<svg xmlns="http://www.w3.org/2000/svg" viewBox="0 0 50 50"><defs><style>.cls-1{isolation:isolate;}.cls-2{fill:none;}.cls-3{fill:#e0b29d;}.cls-11,.cls-18,.cls-4{fill:#1a1c1f;}.cls-5{fill:#13161b;}.cls-11,.cls-23,.cls-5{opacity:0.2;}.cls-11,.cls-18,.cls-21,.cls-23,.cls-5,.cls-9{mix-blend-mode:multiply;}.cls-6,.cls-9{fill:#e6e6e6;}.cls-7{fill:#752828;}.cls-8{fill:#842d2d;}.cls-9{opacity:0.3;}.cls-10{fill:#1e2125;}.cls-12,.cls-24{fill:#fff;}.cls-13{fill:#17181a;}.cls-14{fill:#252b33;}.cls-15{fill:#0f1112;}.cls-16{fill:#0d0e10;}.cls-17{fill:#191b1e;}.cls-19{fill:#0a0e15;}.cls-20,.cls-21,.cls-23{fill:#e9c2b0;}.cls-21{opacity:0.4;}.cls-22{fill:#664133;}.cls-24{opacity:0.5;}</style></defs><title>man-1</title><g class="cls-1"><g id="Layer_1" data-name="Layer 1"><polygon class="cls-2" points="14.36 26.86 14.36 26.81 14.36 26.86 14.36 27.1 14.36 27.1 14.36 26.86"/><path class="cls-2" d="M36.53,18.05h0a25,25,0,0,0-25,25h0A25,25,0,0,0,25.33,65.4L22.53,58l-.18.14-.07.05a.42.42,0,0,1-.66-.21h0l-1.24-.72-.31-1.9,1.25.72a.52.52,0,0,1,.21-.46h0a2,2,0,0,1-.14-.39h0l-.58-.33.24-.23a2,2,0,0,1-.13-.44,1.46,1.46,0,0,1,.75-1.49c0-1.6.16-3.23.77-3.88a1.39,1.39,0,0,1,1.91-.2,3,3,0,0,1,.3-.4V44.08l1.24.72a.56.56,0,0,1,.24-.42L28,43.29c.13-.08.24,0,.24.13v.79l0,7.85v.58a2.17,2.17,0,0,1-.13.86,1.65,1.65,0,0,1-.35.41l-.84.68-.06.11.06.21a2.91,2.91,0,0,1,0,.33l.33.58.1-.07c.11.08.21.18.32.27a35.94,35.94,0,0,1,2.29-5.16c.24-.47.51-.93.78-1.4a3.22,3.22,0,0,1,2.65-1.78,26.36,26.36,0,0,1,3.67-.79l.42-.23a7.77,7.77,0,0,1-1.63-1.75l-.24-.37a6.39,6.39,0,0,1-.92-1.22,12.93,12.93,0,0,1-1.37-3c-1.36-5.19,2.68-5.9,2.68-5.9s3-4.12,7.28-1.9c3.24,1.67,3.08,4.69,2.74,5.28a2.26,2.26,0,0,1,0,.29c.05.55.08,1.11.11,1.67a.78.78,0,0,1,.64.25,1.07,1.07,0,0,1,.16.36,4.61,4.61,0,0,1,.15.72,1,1,0,0,1,0,.51h0a1.43,1.43,0,0,1-.92,1c-.13,2.22-.62,4.14-1.81,5.25L45.55,49A33.48,33.48,0,0,0,49,50.64c.26.12.49.23.69.34a2.45,2.45,0,0,1,1.13.65l.13.13a2.73,2.73,0,0,1,.27,3c0,.1-.1.27-.18.48,0,.77-.14,1.62-.27,2.6-.34,2.45-1.08,4.41-1.62,6.81A25,25,0,0,0,61.53,43.05h0A25,25,0,0,0,36.53,18.05ZM26.12,44.38l-1.24-.72,1.9-1.1,1.24.72Z" transform="translate(-11.53 -18.05)"/><path class="cls-2" d="M25.17,50.46c.09.38.17.8.23,1.23a6,6,0,0,1,.51-.79h0c0-.22,0-.39,0-.41v0l-.52-.3v.46Z" transform="translate(-11.53 -18.05)"/><path class="cls-2" d="M24.66,48.81l-.07.09.07.09Z" transform="translate(-11.53 -18.05)"/><path class="cls-3" d="M23,52.75l.78-.76h0V50.32a3.2,3.2,0,0,1,.56-1.67,1.39,1.39,0,0,0-1.91.2c-.61.65-.72,2.28-.77,3.88A1.64,1.64,0,0,1,23,52.75Z" transform="translate(-11.53 -18.05)"/><path class="cls-3" d="M24.94,51.89a.79.79,0,0,1,.3.11c.05-.1.1-.21.16-.31-.06-.43-.14-.85-.23-1.23l-.1-.08-.08,0c-.33.19-.65-.38-.65-.76a.15.15,0,0,1,.07-.12s.07,0,.07,0c0,.27.17.38.39.29l-.21-.12V49l-.07-.09a2.37,2.37,0,0,0-.39,1.19v2.09l0,0,.46.27C24.6,52.2,24.63,51.91,24.94,51.89Z" transform="translate(-11.53 -18.05)"/><path class="cls-3" d="M25.4,51.69c-.06.1-.11.21-.16.31s.18.13.28.22a2.48,2.48,0,0,0,.19-.26,2.33,2.33,0,0,0,.2-1.07h0A6,6,0,0,0,25.4,51.69Z" transform="translate(-11.53 -18.05)"/><path class="cls-4" d="M28,55.87s.65.47,1.68,1.25c0-.36,0-.72,0-1.07a18.49,18.49,0,0,1,.44-5.19A35.94,35.94,0,0,0,27.76,56h0C27.87,55.92,28,55.85,28,55.87Z" transform="translate(-11.53 -18.05)"/><path class="cls-4" d="M27.29,55.86l.05,0L27,55.24a3.16,3.16,0,0,1,0,.32Z" transform="translate(-11.53 -18.05)"/><path class="cls-4" d="M30,66.88a7.59,7.59,0,0,0-1.28-2.09L26.28,61.7l0-.06A12.28,12.28,0,0,0,24.76,60a5.67,5.67,0,0,1-1-.88,12,12,0,0,1-.62-1.24c-.05-.09-.12-.17-.17-.25a.39.39,0,0,0-.1.08,9.68,9.68,0,0,1,.42.94C24,60.26,25,63.12,26,65.72a25.39,25.39,0,0,0,4.08,1.48Z" transform="translate(-11.53 -18.05)"/><path class="cls-5" d="M21.61,55.59l-.06-.16a1.3,1.3,0,0,1-.15-.2,2,2,0,0,0,.14.39l0,0Z" transform="translate(-11.53 -18.05)"/><path class="cls-4" d="M29.61,56.05c0,.35,0,.71,0,1.07l.67.5c0-1.83-.18-7,1.63-9.07a3.9,3.9,0,0,1,1.53-.87,3.22,3.22,0,0,0-2.65,1.78c-.27.47-.54.93-.78,1.4A18.49,18.49,0,0,0,29.61,56.05Z" transform="translate(-11.53 -18.05)"/><path class="cls-5" d="M29.61,56.05c0,.35,0,.71,0,1.07l.67.5c0-1.83-.18-7,1.63-9.07a3.9,3.9,0,0,1,1.53-.87,3.22,3.22,0,0,0-2.65,1.78c-.27.47-.54.93-.78,1.4A18.49,18.49,0,0,0,29.61,56.05Z" transform="translate(-11.53 -18.05)"/><path class="cls-4" d="M22.92,57.69a5,5,0,0,1-.39.32l2.8,7.39.66.32c-1-2.6-2-5.46-2.65-7.09A9.68,9.68,0,0,0,22.92,57.69Z" transform="translate(-11.53 -18.05)"/><path class="cls-5" d="M22.92,57.69a5,5,0,0,1-.39.32l2.8,7.39.66.32c-1-2.6-2-5.46-2.65-7.09A9.68,9.68,0,0,0,22.92,57.69Z" transform="translate(-11.53 -18.05)"/><path class="cls-4" d="M21.55,55.43l.06.16a.06.06,0,0,1,.06,0Z" transform="translate(-11.53 -18.05)"/><path class="cls-5" d="M21.55,55.43l.06.16a.06.06,0,0,1,.06,0Z" transform="translate(-11.53 -18.05)"/><path class="cls-4" d="M29.82,64.74l-5.2-5.07a1.13,1.13,0,0,1,.2-.29L24.33,59l.46-.64a2.77,2.77,0,0,1-.58-.37l-.83-.74-.36.34c.05.08.12.16.17.25a12,12,0,0,0,.62,1.24,5.67,5.67,0,0,0,1,.88,12.28,12.28,0,0,1,1.48,1.66l0,.06,2.42,3.09A7.59,7.59,0,0,1,30,66.88l.09.32.54.13c0-.35,0-.7,0-1C30.32,65.79,30.07,65.26,29.82,64.74Z" transform="translate(-11.53 -18.05)"/><path class="cls-5" d="M29.82,64.74l-5.2-5.07a1.13,1.13,0,0,1,.2-.29L24.33,59l.46-.64a2.77,2.77,0,0,1-.58-.37l-.83-.74-.36.34c.05.08.12.16.17.25a12,12,0,0,0,.62,1.24,5.67,5.67,0,0,0,1,.88,12.28,12.28,0,0,1,1.48,1.66l0,.06,2.42,3.09A7.59,7.59,0,0,1,30,66.88l.09.32.54.13c0-.35,0-.7,0-1C30.32,65.79,30.07,65.26,29.82,64.74Z" transform="translate(-11.53 -18.05)"/><path class="cls-6" d="M38.11,51l-1.39.76c.18,1.37.45,2.94.74,4.43l1-4.57A1.89,1.89,0,0,1,38.11,51Z" transform="translate(-11.53 -18.05)"/><path class="cls-6" d="M37.92,47.76h0v-.22a4.14,4.14,0,0,0,0,.61c0,.07,0,.12,0,.18,0-.16,0-.34,0-.56Z" transform="translate(-11.53 -18.05)"/><path class="cls-6" d="M40.44,50.94l.07.33a1,1,0,0,1-.66.61L40.39,58c.17-.42.36-.85.55-1.3.57-1.4,1.16-2.95,1.67-4.53a8.65,8.65,0,0,0-.76,1A18.08,18.08,0,0,0,40.44,50.94Z" transform="translate(-11.53 -18.05)"/><polygon class="cls-6" points="27.99 31.7 27.98 31.7 27.97 31.7 27.99 31.71 27.99 31.7"/><path class="cls-7" d="M39,51.9a1.06,1.06,0,0,1-.49-.26l-1,4.57a48.48,48.48,0,0,0,1.26,5.28v0c.29-.56.92-1.86,1.66-3.57l-.54-6.08A1.61,1.61,0,0,1,39,51.9Z" transform="translate(-11.53 -18.05)"/><path class="cls-8" d="M39.79,50.1h0l-.29-.34h0a.42.42,0,0,0-.13.07A.76.76,0,0,1,39.79,50.1Z" transform="translate(-11.53 -18.05)"/><path class="cls-8" d="M39.79,50.1,38.11,51a1.89,1.89,0,0,0,.39.62,1.06,1.06,0,0,0,.49.26,1.61,1.61,0,0,0,.86,0,1,1,0,0,0,.66-.61l-.07-.33c-.19-.24-.36-.5-.56-.74Z" transform="translate(-11.53 -18.05)"/><path class="cls-6" d="M38.11,51a2.3,2.3,0,0,1-.12-.31l-1.29.87c0,.07,0,.13,0,.2Z" transform="translate(-11.53 -18.05)"/><path class="cls-9" d="M38.11,51a2.3,2.3,0,0,1-.12-.31l-1.29.87c0,.07,0,.13,0,.2Z" transform="translate(-11.53 -18.05)"/><path class="cls-6" d="M40.41,50.8l0,.14a18.08,18.08,0,0,1,1.41,2.15,8.65,8.65,0,0,1,.76-1c.09-.25.17-.51.25-.77-.48.57-.9,1-1,1.13S41.08,51.59,40.41,50.8Z" transform="translate(-11.53 -18.05)"/><path class="cls-9" d="M40.41,50.8l0,.14a18.08,18.08,0,0,1,1.41,2.15,8.65,8.65,0,0,1,.76-1c.09-.25.17-.51.25-.77-.48.57-.9,1-1,1.13S41.08,51.59,40.41,50.8Z" transform="translate(-11.53 -18.05)"/><path class="cls-8" d="M39.79,50.1a.76.76,0,0,0-.42-.28c-.27.15-.82.51-1.38.89a2.3,2.3,0,0,0,.12.31Z" transform="translate(-11.53 -18.05)"/><path class="cls-9" d="M39.79,50.1a.76.76,0,0,0-.42-.28c-.27.15-.82.51-1.38.89a2.3,2.3,0,0,0,.12.31Z" transform="translate(-11.53 -18.05)"/><path class="cls-8" d="M39.88,50.2c.2.24.37.5.56.74l0-.14-.6-.71h0Z" transform="translate(-11.53 -18.05)"/><path class="cls-9" d="M39.88,50.2c.2.24.37.5.56.74l0-.14-.6-.71h0Z" transform="translate(-11.53 -18.05)"/><path class="cls-3" d="M37.91,47.68v0Z" transform="translate(-11.53 -18.05)"/><path class="cls-3" d="M40.62,48.93c-.57-.85-2-.46-2.7-1.17,0,.22,0,.4,0,.56a1.46,1.46,0,0,0,.34.64c.54.08,1.08.2,1.61.32C40.09,49.46,40.8,49.1,40.62,48.93Z" transform="translate(-11.53 -18.05)"/><polygon class="cls-3" points="27.98 31.7 27.98 31.7 27.99 31.7 27.98 31.7"/><path class="cls-3" d="M38.12,47.13,38,46.94a4.3,4.3,0,0,0,0,.59v.22h0c.66.71,2.13.32,2.7,1.17.18.17-.53.53-.71.35-.53-.12-1.07-.24-1.61-.32l.15.17a4.12,4.12,0,0,0,1.06.61A3.29,3.29,0,0,0,41,49.41a6.28,6.28,0,0,0,1.23-.76l-.62,0A7,7,0,0,1,38.12,47.13Z" transform="translate(-11.53 -18.05)"/><path class="cls-10" d="M30.32,57.62c1.84,1.41,4.51,3.48,7,5.58l-3.7-8.75.15-.19,0-.09,1.1-1.37-1.68-1.67.17-.22-.06-.06a29.92,29.92,0,0,1,3.16-3.51,6,6,0,0,1,.75-.45,26.36,26.36,0,0,0-3.67.79,3.9,3.9,0,0,0-1.53.87C30.14,50.57,30.34,55.79,30.32,57.62Z" transform="translate(-11.53 -18.05)"/><path class="cls-10" d="M30.6,66.29c0,.34,0,.69,0,1q.38.11.75.18C31.1,67.1,30.84,66.71,30.6,66.29Z" transform="translate(-11.53 -18.05)"/><path class="cls-10" d="M47,50.66l-.2.18.09.1L44.8,52.78l.55.92c.38-.5.78-1,1.2-1.48a3.4,3.4,0,0,1,2.39-1.32l.06-.26A33.48,33.48,0,0,1,45.55,49Z" transform="translate(-11.53 -18.05)"/><path class="cls-4" d="M30.58,65.48l-.76-.74c.25.52.5,1.05.78,1.55C30.6,66,30.59,65.75,30.58,65.48Z" transform="translate(-11.53 -18.05)"/><path class="cls-5" d="M30.58,65.48l-.76-.74c.25.52.5,1.05.78,1.55C30.6,66,30.59,65.75,30.58,65.48Z" transform="translate(-11.53 -18.05)"/><path class="cls-11" d="M30.58,65.48l-.76-.74c.25.52.5,1.05.78,1.55C30.6,66,30.59,65.75,30.58,65.48Z" transform="translate(-11.53 -18.05)"/><path class="cls-10" d="M51,55.21a111.43,111.43,0,0,1-4.81,10.88,23.45,23.45,0,0,0,2.92-1.47c.54-2.4,1.28-4.36,1.62-6.81C50.9,56.83,51,56,51,55.21Z" transform="translate(-11.53 -18.05)"/><path class="cls-11" d="M51,55.21a111.43,111.43,0,0,1-4.81,10.88,23.45,23.45,0,0,0,2.92-1.47c.54-2.4,1.28-4.36,1.62-6.81C50.9,56.83,51,56,51,55.21Z" transform="translate(-11.53 -18.05)"/><path class="cls-10" d="M49.69,51c-.2-.11-.43-.22-.69-.34l-.06.26A2.34,2.34,0,0,1,49.69,51Z" transform="translate(-11.53 -18.05)"/><path class="cls-11" d="M49.69,51c-.2-.11-.43-.22-.69-.34l-.06.26A2.34,2.34,0,0,1,49.69,51Z" transform="translate(-11.53 -18.05)"/><path class="cls-10" d="M39.45,65.09c.07-.23.14-.47.22-.71s.1-.29.14-.43l-.53,1Z" transform="translate(-11.53 -18.05)"/><path class="cls-11" d="M39.45,65.09c.07-.23.14-.47.22-.71s.1-.29.14-.43l-.53,1Z" transform="translate(-11.53 -18.05)"/><path class="cls-10" d="M30.58,65.48c0,.27,0,.54,0,.81.24.42.5.81.76,1.22.52.11,1,.2,1.58.28Z" transform="translate(-11.53 -18.05)"/><path class="cls-11" d="M30.58,65.48c0,.27,0,.54,0,.81.24.42.5.81.76,1.22.52.11,1,.2,1.58.28Z" transform="translate(-11.53 -18.05)"/><path class="cls-12" d="M36.66,48.5c0,.13-.08.25-.11.37a14.77,14.77,0,0,0,.15,2.71L38,50.71c.56-.38,1.11-.74,1.38-.89a.42.42,0,0,1,.13-.07h0a4.12,4.12,0,0,1-1.06-.61L38.3,49a1.46,1.46,0,0,1-.34-.64c0-.06,0-.11,0-.18a4.14,4.14,0,0,1,0-.61,4.3,4.3,0,0,1,0-.59l0,0v0l-.07,0A5.86,5.86,0,0,0,36.66,48.5Z" transform="translate(-11.53 -18.05)"/><path class="cls-13" d="M38.72,61.49a48.48,48.48,0,0,1-1.26-5.28c-.29-1.49-.56-3.06-.74-4.43,0-.07,0-.13,0-.2a14.77,14.77,0,0,1-.15-2.71c0-.12.07-.24.11-.37a3.11,3.11,0,0,0-.22.65c-.23,2.75,1.72,11.51,2.17,12.61a1.76,1.76,0,0,1,.12-.23Z" transform="translate(-11.53 -18.05)"/><path class="cls-13" d="M36.4,47.34a29.92,29.92,0,0,0-3.16,3.51l.06.06a27.27,27.27,0,0,1,3-3.29,16.47,16.47,0,0,1,1.46-.83l-.17-.13-.42.23A6,6,0,0,0,36.4,47.34Z" transform="translate(-11.53 -18.05)"/><polygon class="cls-13" points="23.29 34.76 22.18 36.12 22.22 36.22 23.35 34.82 23.29 34.76"/><path class="cls-12" d="M39.51,49.74h0l.29.34.6.71c.67.79,1.47,1.72,1.48,1.69s.49-.56,1-1.13c.19-.61.37-1.22.53-1.82a4.67,4.67,0,0,0,.16-1.14,3.78,3.78,0,0,1-1.32.25,6.28,6.28,0,0,1-1.23.76A3.29,3.29,0,0,1,39.51,49.74Z" transform="translate(-11.53 -18.05)"/><path class="cls-13" d="M44.25,48l2.59,2.83.2-.18L45.55,49l-1.1-1.19-.19.18Z" transform="translate(-11.53 -18.05)"/><path class="cls-13" d="M38.73,61.53a1.76,1.76,0,0,0-.12.23h0v0c.38-.72,1.32-2.69,2.33-5.15-.19.45-.38.88-.55,1.3C39.65,59.67,39,61,38.73,61.53Z" transform="translate(-11.53 -18.05)"/><path class="cls-13" d="M44.62,52.94l.57,1,.16-.2-.55-.92Z" transform="translate(-11.53 -18.05)"/><path class="cls-13" d="M38.46,62.1l.15-.29v0h0c-.45-1.1-2.4-9.86-2.17-12.61a3.11,3.11,0,0,1,.22-.65,5.86,5.86,0,0,1,1.19-1.62l-.11-.09a16.47,16.47,0,0,0-1.46.83,27.27,27.27,0,0,0-3,3.29l-.17.22,1.68,1.67.06.07-1.13,1.39-.15.19,3.7,8.75c.32.27.65.55,1,.83C38.31,63.37,38.37,62.72,38.46,62.1Z" transform="translate(-11.53 -18.05)"/><path class="cls-13" d="M44.8,52.78l2.13-1.84-.09-.1L44.25,48a2.67,2.67,0,0,1-.7.39,4.67,4.67,0,0,1-.16,1.14c-.16.6-.34,1.21-.53,1.82-.08.26-.16.52-.25.77-.51,1.58-1.1,3.13-1.67,4.53-1,2.46-1.95,4.43-2.33,5.15l-.15.29c-.09.62-.15,1.27-.21,1.93l1,.88,0,0,.53-1A34.79,34.79,0,0,1,45.19,53.9l-.57-1Z" transform="translate(-11.53 -18.05)"/><path class="cls-14" d="M50.72,52.07a2.06,2.06,0,0,1,.23-.31l-.13-.13A2.45,2.45,0,0,0,49.69,51a2.34,2.34,0,0,0-.75-.08,3.4,3.4,0,0,0-2.39,1.32c-.42.49-.82,1-1.2,1.48l-.16.2A34.79,34.79,0,0,0,39.81,64c0,.14-.1.29-.14.43l.1.17a7.64,7.64,0,0,1,.46,1c.06.15.13.3.2.45.53.51,1,1,1.43,1.46a25.5,25.5,0,0,0,3.49-1,19.82,19.82,0,0,0,1.71-3.86C48.23,59.05,48.81,55.26,50.72,52.07Z" transform="translate(-11.53 -18.05)"/><path class="cls-15" d="M20.81,54.89l.58.33a3.11,3.11,0,0,1-.34-.56Z" transform="translate(-11.53 -18.05)"/><path class="cls-15" d="M24.72,52.87a2.69,2.69,0,0,1-.09-.4l-.46-.27-.37.22V52h0l-.78.76.13,0c.36.16.77.36,1.2.59l.41-.4Z" transform="translate(-11.53 -18.05)"/><polygon class="cls-16" points="9.79 38.05 8.55 37.33 8.85 39.22 10.1 39.94 9.79 38.05 9.79 38.05"/><path class="cls-16" d="M25.32,47.68v.47a2.08,2.08,0,0,0-.66.66v.95l.21.12.07,0a1,1,0,0,0,.44-.62v.94l.52.3V48.72l-.08.05V45.54l-1.16-.67v3.38A2.51,2.51,0,0,1,25.32,47.68Z" transform="translate(-11.53 -18.05)"/><path class="cls-17" d="M24.48,49.59s0-.06-.07,0a.15.15,0,0,0-.07.12c0,.38.32.95.65.76l.08,0,.1.08.21.18v-1.4a1,1,0,0,1-.44.62l-.07,0C24.65,50,24.48,49.86,24.48,49.59Z" transform="translate(-11.53 -18.05)"/><path class="cls-17" d="M23.8,52v.43l.37-.22,0,0V50.09a2.37,2.37,0,0,1,.39-1.19l.07-.09a2.08,2.08,0,0,1,.66-.66v-.47a2.51,2.51,0,0,0-.67.57,3,3,0,0,0-.3.4,3.2,3.2,0,0,0-.56,1.67Z" transform="translate(-11.53 -18.05)"/><polygon class="cls-16" points="14.28 27.15 14.36 27.1 14.36 26.86 13.11 26.14 13.12 26.82 14.28 27.5 14.28 27.15"/><polygon class="cls-16" points="14.36 26.81 14.35 26.75 14.35 26.75 13.11 26.03 13.11 26.14 14.36 26.86 14.36 26.81"/><path class="cls-17" d="M24.88,43.66l1.24.72,1.9-1.1-1.24-.72Zm2.46,0a1.25,1.25,0,0,1-1.13,0,.34.34,0,0,1,0-.65,1.25,1.25,0,0,1,1.13,0A.34.34,0,0,1,27.34,43.61Z" transform="translate(-11.53 -18.05)"/><path class="cls-16" d="M26.21,43a.34.34,0,0,0,0,.65,1.25,1.25,0,0,0,1.13,0,.34.34,0,0,0,0-.65A1.25,1.25,0,0,0,26.21,43Z" transform="translate(-11.53 -18.05)"/><path class="cls-10" d="M27.05,47.87a.22.22,0,0,0,.08-.15V44.6L26,45.29v3.2Z" transform="translate(-11.53 -18.05)"/><path class="cls-10" d="M24.75,53l-.41.4a7.44,7.44,0,0,1,.66.38C24.9,53.5,24.82,53.24,24.75,53Z" transform="translate(-11.53 -18.05)"/><path class="cls-10" d="M23,57.61l.36-.34a17.1,17.1,0,0,1-1.71-1.68.06.06,0,0,0-.06,0h-.05l0,0h0a.52.52,0,0,0-.21.46h0l.3,1.9h0a.42.42,0,0,0,.66.21l.07-.05.18-.14a5,5,0,0,0,.39-.32A.39.39,0,0,1,23,57.61Z" transform="translate(-11.53 -18.05)"/><path class="cls-10" d="M25.88,44.86v.29l1.17-.67a.15.15,0,0,1,.17,0,.18.18,0,0,1,.07.15v3.1a.37.37,0,0,1-.16.29l-1.24.71v1.76s0,.19,0,.41a2.33,2.33,0,0,1-.2,1.07,2.48,2.48,0,0,1-.19.26,5.23,5.23,0,0,1,1.39,2.48l.06-.11.84-.68a1.65,1.65,0,0,0,.35-.41,2.17,2.17,0,0,0,.13-.86v-.58l0-7.85v-.79c0-.15-.11-.21-.24-.13l-1.9,1.09a.56.56,0,0,0-.24.42h0Zm1.53,8.9a.18.18,0,0,1-.29-.17.63.63,0,0,1,.29-.5c.16-.1.29,0,.29.16A.66.66,0,0,1,27.41,53.76ZM28,52.3,26.79,52v-.19l1.25.33ZM28,52l-1.25-.33v-.19l1.25.33Zm0-.35-1.25-.33v-.19l1.25.33Zm0-.35-1.25-.34v-.18l1.26.33Zm0-.35-1.26-.34v-.19l1.26.34Zm0-.35-1.26-.34V50l1.26.34Zm0-.35-1.26-.34v-.19L28,50Zm0-.35-1.26-.34v-.19l1.26.34Zm0-.36-1.26-.33V49l1.26.34ZM28,49v.19l-1.26-.33v-.19Zm-.28-3.9L28,44.9v2.83l-.25.14Z" transform="translate(-11.53 -18.05)"/><polygon class="cls-10" points="15.26 30.76 16.51 31.1 16.51 30.91 15.26 30.57 15.26 30.76"/><polygon class="cls-18" points="15.26 30.76 16.51 31.1 16.51 30.91 15.26 30.57 15.26 30.76"/><polygon class="cls-10" points="15.26 31.11 16.52 31.45 16.52 31.26 15.26 30.93 15.26 31.11"/><polygon class="cls-18" points="15.26 31.11 16.52 31.45 16.52 31.26 15.26 30.93 15.26 31.11"/><polygon class="cls-10" points="15.26 31.46 16.52 31.8 16.52 31.61 15.26 31.27 15.26 31.46"/><polygon class="cls-18" points="15.26 31.46 16.52 31.8 16.52 31.61 15.26 31.27 15.26 31.46"/><polygon class="cls-10" points="15.26 31.82 16.52 32.15 16.52 31.96 15.26 31.63 15.26 31.82"/><polygon class="cls-18" points="15.26 31.82 16.52 32.15 16.52 31.96 15.26 31.63 15.26 31.82"/><polygon class="cls-10" points="15.26 32.17 16.52 32.5 16.52 32.31 15.26 31.98 15.26 32.17"/><polygon class="cls-18" points="15.26 32.17 16.52 32.5 16.52 32.31 15.26 31.98 15.26 32.17"/><polygon class="cls-10" points="15.26 32.52 16.52 32.85 16.52 32.66 15.26 32.33 15.26 32.52"/><polygon class="cls-18" points="15.26 32.52 16.52 32.85 16.52 32.66 15.26 32.33 15.26 32.52"/><polygon class="cls-10" points="15.26 32.68 15.26 32.87 16.52 33.2 16.52 33.02 15.26 32.68"/><polygon class="cls-18" points="15.26 32.68 15.26 32.87 16.52 33.2 16.52 33.02 15.26 32.68"/><polygon class="cls-10" points="15.26 33.03 15.26 33.22 16.52 33.55 16.52 33.37 15.26 33.03"/><polygon class="cls-18" points="15.26 33.03 15.26 33.22 16.52 33.55 16.52 33.37 15.26 33.03"/><polygon class="cls-10" points="15.26 33.38 15.26 33.57 16.52 33.91 16.52 33.72 15.26 33.38"/><polygon class="cls-18" points="15.26 33.38 15.26 33.57 16.52 33.91 16.52 33.72 15.26 33.38"/><polygon class="cls-10" points="15.26 33.73 15.26 33.92 16.52 34.26 16.52 34.07 15.26 33.73"/><polygon class="cls-18" points="15.26 33.73 15.26 33.92 16.52 34.26 16.52 34.07 15.26 33.73"/><path class="cls-16" d="M27.13,48a.37.37,0,0,0,.16-.29v-3.1a.18.18,0,0,0-.07-.15.15.15,0,0,0-.17,0l-1.17.67h0l-.08.05v3.57l.08-.05ZM26,45.29l1.17-.69v3.12a.22.22,0,0,1-.08.15L26,48.49v-3.2Z" transform="translate(-11.53 -18.05)"/><polygon class="cls-16" points="16.48 26.86 16.23 27 16.23 29.83 16.48 29.68 16.48 26.86"/><path class="cls-19" d="M27.41,53.09a.63.63,0,0,0-.29.5.18.18,0,0,0,.29.17.66.66,0,0,0,.29-.51C27.7,53.07,27.57,53,27.41,53.09Z" transform="translate(-11.53 -18.05)"/><path class="cls-20" d="M21.67,55.59a17.1,17.1,0,0,0,1.71,1.68l.83.74a2.77,2.77,0,0,0,.58.37l.26-.37c.2-.27.42-.53.64-.78a9.06,9.06,0,0,1,1.6-1.37l-.25-.3c0,.3,0,.58-.2.51l-.65-.31s0,.06,0,0a6.44,6.44,0,0,1-1.16-2,7.44,7.44,0,0,0-.66-.38c-.43-.23-.84-.43-1.2-.59l-.13,0a1.64,1.64,0,0,0-1.34,0,1.46,1.46,0,0,0-.75,1.49,2,2,0,0,0,.13.44,3.11,3.11,0,0,0,.34.56h0a1.3,1.3,0,0,0,.15.2Z" transform="translate(-11.53 -18.05)"/><path class="cls-20" d="M25.52,52.22c-.1-.09-.2-.16-.28-.22a.79.79,0,0,0-.3-.11c-.31,0-.34.31-.31.58a2.69,2.69,0,0,0,.09.4l0,.12c.07.25.15.51.25.78a6.44,6.44,0,0,0,1.16,2c.07,0,0,0,0,0l.65.31c.17.07.21-.21.2-.51a3.16,3.16,0,0,0,0-.32,2.91,2.91,0,0,0,0-.33l-.06-.21A5.23,5.23,0,0,0,25.52,52.22Z" transform="translate(-11.53 -18.05)"/><path class="cls-12" d="M25.69,57.23c-.22.25-.44.51-.64.78l-.26.37-.46.64.49.36.32-.39c.76-.92,2.13-2.49,2.63-3h0c-.11-.09-.21-.19-.32-.27l-.1.07-.05,0A9.06,9.06,0,0,0,25.69,57.23Z" transform="translate(-11.53 -18.05)"/><path class="cls-14" d="M39.25,64.91l-1-.88c-.31-.28-.64-.56-1-.83-2.46-2.1-5.13-4.17-7-5.58l-.67-.5c-1-.78-1.68-1.25-1.68-1.25s-.1.05-.2.15c-.5.48-1.87,2-2.63,3a10.84,10.84,0,0,1,1.51.79A33.48,33.48,0,0,1,35.75,68l.78,0h0a26.41,26.41,0,0,0,2.68-.15c0-.71,0-1.41,0-2.12C39.26,65.49,39.25,65.2,39.25,64.91Z" transform="translate(-11.53 -18.05)"/><path class="cls-14" d="M40.43,66c.23.53.5,1,.77,1.56a21.85,21.85,0,0,1-1.64-1.83c-.08.72-.17,1.43-.26,2.15.87-.1,1.72-.24,2.56-.42C41.44,67,41,66.52,40.43,66Z" transform="translate(-11.53 -18.05)"/><path class="cls-20" d="M41.84,40.24a8.29,8.29,0,0,0,1.31-.12l2.66-.39.28,0a11.72,11.72,0,0,0-.22-1.32c0-.1-.06-.21-.15-.25h0l-.05-.06a2.24,2.24,0,0,0-1.41-.44c-.93-.12-1.87-.24-2.81-.34a3,3,0,0,0-1.89.23c0,.56,0,1.78.12,2.69A11.68,11.68,0,0,1,41.84,40.24Z" transform="translate(-11.53 -18.05)"/><path class="cls-20" d="M39.07,42.05a.78.78,0,0,1,0-.16v-.34l-.23.21.24.27Z" transform="translate(-11.53 -18.05)"/><path class="cls-20" d="M38.12,47.13a7,7,0,0,0,3.49,1.49l0,0a4.17,4.17,0,0,1,1.06-.15,2.37,2.37,0,0,0,1.12-.65,5.34,5.34,0,0,0,1.57-4.7c-.51.11-1-.75-1.53-.77s-.89.39-1.31.67a2.34,2.34,0,0,1-2.12.34,2.1,2.1,0,0,1-.87-.52l-.13-.11A1,1,0,1,1,37.87,44a7.56,7.56,0,0,0,.05,3l0,0Z" transform="translate(-11.53 -18.05)"/><path class="cls-20" d="M44.33,42.07a1.54,1.54,0,0,0-.19-.17.74.74,0,0,0-.81,0,2.43,2.43,0,0,0-.39.45,2.1,2.1,0,0,1-1.89.92,2.46,2.46,0,0,1-1.48-.46,2.1,2.1,0,0,0,.87.52A2.34,2.34,0,0,0,42.56,43c.42-.28.81-.69,1.31-.67s1,.88,1.53.77a5.34,5.34,0,0,1-1.57,4.7,2.37,2.37,0,0,1-1.12.65,4.17,4.17,0,0,0-1.06.15l0,0,.62,0a3.78,3.78,0,0,0,1.32-.25,2.67,2.67,0,0,0,.7-.39h0l.19-.18c1.19-1.11,1.68-3,1.81-5.25a1.63,1.63,0,0,1-1.93-.51Z" transform="translate(-11.53 -18.05)"/><path class="cls-21" d="M44.33,42.07a1.54,1.54,0,0,0-.19-.17.74.74,0,0,0-.81,0,2.43,2.43,0,0,0-.39.45,2.1,2.1,0,0,1-1.89.92,2.46,2.46,0,0,1-1.48-.46,2.1,2.1,0,0,0,.87.52A2.34,2.34,0,0,0,42.56,43c.42-.28.81-.69,1.31-.67s1,.88,1.53.77a5.34,5.34,0,0,1-1.57,4.7,2.37,2.37,0,0,1-1.12.65,4.17,4.17,0,0,0-1.06.15l0,0,.62,0a3.78,3.78,0,0,0,1.32-.25,2.67,2.67,0,0,0,.7-.39h0l.19-.18c1.19-1.11,1.68-3,1.81-5.25a1.63,1.63,0,0,1-1.93-.51Z" transform="translate(-11.53 -18.05)"/><path class="cls-20" d="M46,37.85a7.52,7.52,0,0,0-2.72-1.05,10.24,10.24,0,0,0-3.77.4v.31a3,3,0,0,1,1.89-.23c.94.1,1.88.22,2.81.34a2.24,2.24,0,0,1,1.41.44l.05.06h0c.09,0,.12.15.15.25a11.72,11.72,0,0,1,.22,1.32h.17c0-.56-.06-1.12-.11-1.67a2.26,2.26,0,0,0,0-.29C46.08,37.81,46,37.85,46,37.85Z" transform="translate(-11.53 -18.05)"/><path class="cls-21" d="M46,37.85a7.52,7.52,0,0,0-2.72-1.05,10.24,10.24,0,0,0-3.77.4v.31a3,3,0,0,1,1.89-.23c.94.1,1.88.22,2.81.34a2.24,2.24,0,0,1,1.41.44l.05.06h0c.09,0,.12.15.15.25a11.72,11.72,0,0,1,.22,1.32h.17c0-.56-.06-1.12-.11-1.67a2.26,2.26,0,0,0,0-.29C46.08,37.81,46,37.85,46,37.85Z" transform="translate(-11.53 -18.05)"/><path class="cls-22" d="M37.85,46.88l.07,0v0a7.56,7.56,0,0,1-.05-3,2.66,2.66,0,0,1-.58-.54c-.61-.79-.72-1.74-.23-2.12s1.17-.12,1.76.47l.23-.21a2.68,2.68,0,0,1,.24-1.23.51.51,0,0,1,.27-.12h.07c-.09-.91-.11-2.13-.12-2.69V37.2a10.24,10.24,0,0,1,3.77-.4A7.52,7.52,0,0,1,46,37.85s.08,0,.11-.1c.34-.59.5-3.61-2.74-5.28-4.28-2.22-7.28,1.9-7.28,1.9s-4,.71-2.68,5.9a12.93,12.93,0,0,0,1.37,3,6.39,6.39,0,0,0,.92,1.22l.24.37a7.77,7.77,0,0,0,1.63,1.75l.17.13Z" transform="translate(-11.53 -18.05)"/><path class="cls-20" d="M39.3,44.15a1.23,1.23,0,0,0,.14-1.44,1.16,1.16,0,0,1-.37-.66v0l-.24-.27c-.59-.59-1.34-.81-1.76-.47s-.38,1.33.23,2.12a2.66,2.66,0,0,0,.58.54A1.24,1.24,0,0,0,39.3,44.15Zm-.6-.76c-.23.18-.65,0-.94-.35s-.34-.81-.11-1,.65,0,.94.34S38.93,43.21,38.7,43.39Z" transform="translate(-11.53 -18.05)"/><path class="cls-20" d="M37.65,42.05c-.23.18-.18.62.11,1s.71.53.94.35.18-.63-.11-1S37.88,41.87,37.65,42.05Z" transform="translate(-11.53 -18.05)"/><path class="cls-23" d="M37.65,42.05c-.23.18-.18.62.11,1s.71.53.94.35.18-.63-.11-1S37.88,41.87,37.65,42.05Z" transform="translate(-11.53 -18.05)"/><path class="cls-4" d="M46.09,39.7l-.28,0-2.66.39a8.29,8.29,0,0,1-1.31.12,11.68,11.68,0,0,0-2.21,0h-.07a.51.51,0,0,0-.27.12,2.68,2.68,0,0,0-.24,1.23v.34a.78.78,0,0,0,0,.16,1.16,1.16,0,0,0,.37.66l.13.11a2.46,2.46,0,0,0,1.48.46,2.1,2.1,0,0,0,1.89-.92,2.43,2.43,0,0,1,.39-.45.74.74,0,0,1,.81,0,1.54,1.54,0,0,1,.19.17,1.63,1.63,0,0,0,1.93.51,1.43,1.43,0,0,0,.92-1h0a1,1,0,0,0,0-.51,4.61,4.61,0,0,0-.15-.72A1.07,1.07,0,0,0,46.9,40a.78.78,0,0,0-.64-.25ZM39.7,41c.08-.29.3-.49.49-.43s.3.32.22.62-.3.48-.49.43S39.62,41.28,39.7,41Z" transform="translate(-11.53 -18.05)"/><path class="cls-14" d="M51.22,54.73a2.73,2.73,0,0,0-.27-3,2.06,2.06,0,0,0-.23.31c-1.91,3.19-2.49,7-3.66,10.51a19.82,19.82,0,0,1-1.71,3.86l.88-.35A111.43,111.43,0,0,0,51,55.21C51.12,55,51.19,54.83,51.22,54.73Z" transform="translate(-11.53 -18.05)"/><path class="cls-11" d="M51.22,54.73a2.73,2.73,0,0,0-.27-3,2.06,2.06,0,0,0-.23.31c-1.91,3.19-2.49,7-3.66,10.51a19.82,19.82,0,0,1-1.71,3.86l.88-.35A111.43,111.43,0,0,0,51,55.21C51.12,55,51.19,54.83,51.22,54.73Z" transform="translate(-11.53 -18.05)"/><path class="cls-14" d="M26.65,59.78A10.84,10.84,0,0,0,25.14,59l-.32.39a1.13,1.13,0,0,0-.2.29l5.2,5.07.76.74,2.36,2.31a26,26,0,0,0,2.81.24A33.48,33.48,0,0,0,26.65,59.78Zm-1.06.32a.33.33,0,0,1-.33-.33.33.33,0,0,1,.66,0A.33.33,0,0,1,25.59,60.1Zm.94.72a.33.33,0,1,1,.33-.33A.33.33,0,0,1,26.53,60.82Zm.95.89a.33.33,0,0,1-.33-.33.33.33,0,0,1,.33-.33.33.33,0,0,1,.33.33A.32.32,0,0,1,27.48,61.71Z" transform="translate(-11.53 -18.05)"/><path class="cls-11" d="M26.65,59.78A10.84,10.84,0,0,0,25.14,59l-.32.39a1.13,1.13,0,0,0-.2.29l5.2,5.07.76.74,2.36,2.31a26,26,0,0,0,2.81.24A33.48,33.48,0,0,0,26.65,59.78Zm-1.06.32a.33.33,0,0,1-.33-.33.33.33,0,0,1,.66,0A.33.33,0,0,1,25.59,60.1Zm.94.72a.33.33,0,1,1,.33-.33A.33.33,0,0,1,26.53,60.82Zm.95.89a.33.33,0,0,1-.33-.33.33.33,0,0,1,.33-.33.33.33,0,0,1,.33.33A.32.32,0,0,1,27.48,61.71Z" transform="translate(-11.53 -18.05)"/><path class="cls-4" d="M41.2,67.57c-.27-.52-.54-1-.77-1.56-.07-.15-.14-.3-.2-.45a7.64,7.64,0,0,0-.46-1l-.1-.17c-.08.24-.15.48-.22.71L39.28,65l0,0c0,.29,0,.58,0,.87,0,.71,0,1.41,0,2.12h.09c.09-.72.18-1.43.26-2.15A21.85,21.85,0,0,0,41.2,67.57Z" transform="translate(-11.53 -18.05)"/><path class="cls-4" d="M39.92,41.61c.19,0,.41-.14.49-.43s0-.57-.22-.62-.41.14-.49.43S39.72,41.56,39.92,41.61Z" transform="translate(-11.53 -18.05)"/><path class="cls-24" d="M39.92,41.61c.19,0,.41-.14.49-.43s0-.57-.22-.62-.41.14-.49.43S39.72,41.56,39.92,41.61Z" transform="translate(-11.53 -18.05)"/><path class="cls-4" d="M25.92,59.77a.33.33,0,0,0-.66,0,.33.33,0,1,0,.66,0Z" transform="translate(-11.53 -18.05)"/><path class="cls-4" d="M26.53,60.16a.33.33,0,1,0,.33.33A.33.33,0,0,0,26.53,60.16Z" transform="translate(-11.53 -18.05)"/><path class="cls-4" d="M27.48,61.05a.33.33,0,0,0-.33.33.33.33,0,0,0,.33.33.32.32,0,0,0,.33-.33A.33.33,0,0,0,27.48,61.05Z" transform="translate(-11.53 -18.05)"/></g></g></svg>