<svg xmlns="http://www.w3.org/2000/svg" viewBox="0 0 50 50"><defs><style>.cls-1{isolation:isolate;}.cls-2{fill:none;}.cls-3{fill:#e9c2b0;}.cls-4{fill:#17181a;}.cls-5{fill:#111413;opacity:0.4;}.cls-11,.cls-13,.cls-5,.cls-8{mix-blend-mode:multiply;}.cls-6{fill:#752828;}.cls-7{fill:#1c1e22;}.cls-29,.cls-8{fill:#1a1c1f;}.cls-8{opacity:0.2;}.cls-9{fill:#1e2125;}.cls-10,.cls-11{fill:#19100d;}.cls-11{opacity:0.3;}.cls-12{fill:#252b33;}.cls-13{fill:#090909;opacity:0.1;}.cls-14{fill:#0d0e0f;}.cls-15{fill:#121314;}.cls-16{fill:#141516;}.cls-17{fill:#fb0;}.cls-18{fill:#f90;}.cls-19{fill:#f3cf3f;}.cls-20{fill:#dcdcee;}.cls-21{fill:#d0d0e6;}.cls-22{fill:#b5b6d3;}.cls-23{fill:#a0a2d0;}.cls-24{fill:#c6c7df;}.cls-25{fill:#3f4154;}.cls-26{fill:#f5ac83;}.cls-27{fill:#ef8369;}.cls-28,.cls-30{fill:#fff;}.cls-30{opacity:0.5;}</style></defs><title>women-1</title><g class="cls-1"><g id="Layer_1" data-name="Layer 1"><path class="cls-2" d="M271.79,325.39c0,1.75-.11,3.51-.15,5.25v.23h0v-.23C271.68,328.9,271.8,327.14,271.79,325.39Z" transform="translate(-242.41 -281.23)"/><path class="cls-2" d="M277.3,326.57l-1.3-2.86-.39-.86A11.17,11.17,0,0,0,275,325c-.05.36-.07,2-.07,4,0,.36,0,.73,0,1.1a23.89,23.89,0,0,0,3.77-1.55A5.84,5.84,0,0,1,277.3,326.57Z" transform="translate(-242.41 -281.23)"/><path class="cls-2" d="M259.9,327.05c-.08-.32-.15-.63-.22-.93-.34-1.49-.63-2.83-.88-4l-3.08,6.25a24.87,24.87,0,0,0,4.22,1.76A8.5,8.5,0,0,0,259.9,327.05Z" transform="translate(-242.41 -281.23)"/><path class="cls-2" d="M287.64,313l.21-.14v-1.56a1.76,1.76,0,0,0-.33,1.19,1.33,1.33,0,0,0-.26.42,1.83,1.83,0,0,1,.26-.42A1.82,1.82,0,0,0,287.64,313Z" transform="translate(-242.41 -281.23)"/><path class="cls-2" d="M267.41,281.23A25,25,0,0,0,250.92,325l6.57-13.33a2.89,2.89,0,0,1,2-1.53l.7-.33a3.62,3.62,0,0,1,0-1,6.06,6.06,0,0,1,1.66-2.57l-.12-.3a16.44,16.44,0,0,1-1.1-4.2l-.06,0c0-.37,0-.73,0-1.08a13.65,13.65,0,0,1,.2-2.65c.05-.25.1-.49.16-.72A2.25,2.25,0,0,0,261,297v0c0-.07.05-.14.07-.2l.06-.19c0-.09.08-.17.11-.26s.1-.24.16-.35a.43.43,0,0,0,0-.07.31.31,0,0,0,.05-.1.22.22,0,0,0,.05-.08c.05-.09.1-.18.16-.27l0,0c.08-.13.17-.25.25-.36s.07-.11.11-.15a5.5,5.5,0,0,1,.56-.62l.11-.1a4.81,4.81,0,0,1,.57-.44l.11-.09c.23-.14.46-.27.7-.39l.16-.07a5.17,5.17,0,0,1,.69-.26l.08,0a6.93,6.93,0,0,1,.79-.17l.08,0h0a7.45,7.45,0,0,1,2.11,0,4.83,4.83,0,0,1,3.52,2.17,9,9,0,0,1,.6,4.6.66.66,0,0,1,.34.2,1.05,1.05,0,0,1,.17.39,4.53,4.53,0,0,1,.15.75,1.06,1.06,0,0,1,0,.53h0a1.45,1.45,0,0,1-.74,1,8.48,8.48,0,0,1-.22,1.07,9.67,9.67,0,0,1-.42,1.14l.1.09a1.53,1.53,0,0,1,.73,1.4,2.64,2.64,0,0,1-.05.6l0,.2c0,.11,0,.21-.07.32l.13.11.13.13,1.76.08.17,0,.24.1a2.59,2.59,0,0,1,1.84,1.45l.05.08,0,.05.09.16a1,1,0,0,1,.08.14,2.42,2.42,0,0,1,.12.23l.1.17.17.31.12.22.2.39a1.83,1.83,0,0,1,.13.24l.25.47.13.26.41.79h0a64.57,64.57,0,0,1,2.67,5.91h0l0,.1.09.22.31.83,3.38-6,.2,0c.28-1,.6-2.34.6-2.34a31.88,31.88,0,0,1,2.29-2.34.93.93,0,0,1,.32-.21.33.33,0,0,1,.34.09,0,0,0,0,1,0,0L292,306.9c0,.13,0,.26,0,.39v0a24.56,24.56,0,0,1-.22,3.23c0,.18,0,.36-.07.54-.13.86-.3,1.7-.51,2.53l-3,1.73-.34-.2v-.27a1.71,1.71,0,0,1-.11.14h0v0l0,0h0l-.08.09a4.27,4.27,0,0,1,.36.38l-3.76,9.17a25,25,0,0,0-16.83-43.48Zm-7,18.6-.16.06h0a3.18,3.18,0,0,1-.75,0h0a3.18,3.18,0,0,0,.75,0h0l.16-.06Z" transform="translate(-242.41 -281.23)"/><path class="cls-3" d="M287.75,315h0v0Z" transform="translate(-242.41 -281.23)"/><path class="cls-3" d="M287.72,315.07l-.14-.1a1.24,1.24,0,0,0-.3-.17,2.5,2.5,0,0,1,0-1.9,1.33,1.33,0,0,1,.26-.42,1.76,1.76,0,0,1,.33-1.19v-2l.54-.31a0,0,0,0,0,0,0,.33.33,0,0,0-.34-.09.93.93,0,0,0-.32.21,31.88,31.88,0,0,0-2.29,2.34s-.32,1.33-.6,2.34a4.61,4.61,0,0,1,2.82,1.4Z" transform="translate(-242.41 -281.23)"/><path class="cls-4" d="M277.49,326.33l3.4-6c0-.08,0-.16,0-.24l-1.33,1.47c.21-1,1.09-2,1.28-3a64.57,64.57,0,0,0-2.67-5.91c.85,3.92.57,8-2.13,11.06l1.3,2.86a5.84,5.84,0,0,0,1.44,1.94,24.5,24.5,0,0,0,2.53-1.47A15.37,15.37,0,0,0,277.49,326.33Z" transform="translate(-242.41 -281.23)"/><path class="cls-5" d="M275.37,308.63c.13.28,1.87,6.59,2,7.89a8.85,8.85,0,0,1-.66,3.35c-.35,1-.77,2-1.11,3l.39.86c2.7-3.07,3-7.14,2.13-11.06h0l-.41-.79-.13-.26-.25-.47a1.83,1.83,0,0,0-.13-.24l-.2-.39-.12-.22-.17-.31-.1-.17a2.42,2.42,0,0,0-.12-.23,1,1,0,0,0-.08-.14l-.09-.16,0-.05-.05-.08a2.59,2.59,0,0,0-1.84-1.45A2,2,0,0,1,275.37,308.63Z" transform="translate(-242.41 -281.23)"/><path class="cls-6" d="M271.4,323.24l-.61-7-.08,0c0,.3,0,.6,0,.91a.41.41,0,0,1-.33.38c-.17,0-.7,0-1.31.11l2.27,5.47A.73.73,0,0,0,271.4,323.24Z" transform="translate(-242.41 -281.23)"/><path class="cls-7" d="M273.61,325.11a2.72,2.72,0,0,0-1.39-1.44,6.2,6.2,0,0,0,3.67-4.68,15.06,15.06,0,0,0-.33-6.15,52.81,52.81,0,0,0-1.38-5.26l-.17,0-1.76-.08.18.19.18.18,0,0h0a2.71,2.71,0,0,1,.9,2.65c-.14.42-.38,1.19-.67,2a7.89,7.89,0,0,1,1.79,2.71c.26,2-2.18,6.28-3,7.64q.12,1.25.12,2.52c0,1.75-.11,3.51-.15,5.25v.23c.84-.15,1.67-.34,2.49-.56-.07-1.16-.15-2.32-.22-3.48A5.55,5.55,0,0,0,273.61,325.11Z" transform="translate(-242.41 -281.23)"/><path class="cls-7" d="M275,325a11.17,11.17,0,0,1,.61-2.14c.34-.94.76-2,1.11-3a8.85,8.85,0,0,0,.66-3.35c-.14-1.3-1.88-7.61-2-7.89a2,2,0,0,0-.95-.95l-.24-.1a52.81,52.81,0,0,1,1.38,5.26,15.06,15.06,0,0,1,.33,6.15,6.2,6.2,0,0,1-3.67,4.68,2.72,2.72,0,0,1,1.39,1.44,5.55,5.55,0,0,1,.3,1.72c.07,1.16.15,2.32.22,3.48l.84-.25c0-.37,0-.74,0-1.1C274.93,327,275,325.35,275,325Z" transform="translate(-242.41 -281.23)"/><path class="cls-8" d="M275,325a11.17,11.17,0,0,1,.61-2.14c.34-.94.76-2,1.11-3a8.85,8.85,0,0,0,.66-3.35c-.14-1.3-1.88-7.61-2-7.89a2,2,0,0,0-.95-.95l-.24-.1a52.81,52.81,0,0,1,1.38,5.26,15.06,15.06,0,0,1,.33,6.15,6.2,6.2,0,0,1-3.67,4.68,2.72,2.72,0,0,1,1.39,1.44,5.55,5.55,0,0,1,.3,1.72c.07,1.16.15,2.32.22,3.48l.84-.25c0-.37,0-.74,0-1.1C274.93,327,275,325.35,275,325Z" transform="translate(-242.41 -281.23)"/><path class="cls-9" d="M271.35,323.15l.06.15v-.06A.73.73,0,0,1,271.35,323.15Z" transform="translate(-242.41 -281.23)"/><path class="cls-9" d="M271.79,325.39q0-1.27-.12-2.52l-.26.43s-6.2-3.79-6.81-5.93c-.24-.84.56-2.84,1-3.89-.11-.35-.22-.65-.33-.92a12.41,12.41,0,0,1-1.14-.53.41.41,0,0,1-.05.09l-.07.14a3.19,3.19,0,0,1-.32.43,3.54,3.54,0,0,0-.77.2,2.66,2.66,0,0,1-.28,1.34l-3.87,7.85c.25,1.21.54,2.55.88,4,.07.3.14.61.22.93a8.5,8.5,0,0,1,0,3,24.93,24.93,0,0,0,7.47,1.14,25.69,25.69,0,0,0,4.23-.36v-.23C271.68,328.9,271.79,327.14,271.79,325.39Z" transform="translate(-242.41 -281.23)"/><path class="cls-9" d="M260.22,310.08v0h0c0-.09,0-.17,0-.24l-.7.33a3.09,3.09,0,0,1,.61-.08Z" transform="translate(-242.41 -281.23)"/><path class="cls-4" d="M269.08,317.68a9.1,9.1,0,0,0-1.59.27.67.67,0,0,1-.87-.51,36.76,36.76,0,0,0-1-4c-.47,1-1.27,3-1,3.89.61,2.14,6.81,5.93,6.81,5.93l-.06-.15Z" transform="translate(-242.41 -281.23)"/><path class="cls-4" d="M264.41,311.16a.14.14,0,0,1,0,.07,2.07,2.07,0,0,1-.08.42s0,.09-.05.14a2.44,2.44,0,0,1-.1.24,12.41,12.41,0,0,0,1.14.53,8.77,8.77,0,0,0-.88-1.67A2.44,2.44,0,0,1,264.41,311.16Z" transform="translate(-242.41 -281.23)"/><path class="cls-4" d="M271.14,315.93a3.81,3.81,0,0,1-.35.3l.61,7v.06l.26-.43c.8-1.36,3.24-5.68,3-7.64a7.89,7.89,0,0,0-1.79-2.71,10,10,0,0,1-1.72,3.41Z" transform="translate(-242.41 -281.23)"/><path class="cls-10" d="M260.21,299.89h0l.16-.06h0l-.16.06Z" transform="translate(-242.41 -281.23)"/><path class="cls-11" d="M259.46,299.92a3.18,3.18,0,0,0,.75,0,3.18,3.18,0,0,1-.75,0Z" transform="translate(-242.41 -281.23)"/><path class="cls-4" d="M287.64,315.16a4.61,4.61,0,0,0-2.82-1.4l-.2,0-3.38,6v0l.84-1.43c0,.68,0,1.86-.09,2.53,0,.24,0,.48-.05.73a2.62,2.62,0,0,1-.21,1,6,6,0,0,1-.84-2.15s0-.06,0-.09l-3.4,6a15.37,15.37,0,0,1,3.78.71,24.76,24.76,0,0,0,3-2.33l3.76-9.17A4.27,4.27,0,0,0,287.64,315.16Z" transform="translate(-242.41 -281.23)"/><path class="cls-8" d="M280.8,318.56h0a.42.42,0,0,1,0,.1Z" transform="translate(-242.41 -281.23)"/><path class="cls-8" d="M281.24,319.71l-.31-.83q.15.44.3.84Z" transform="translate(-242.41 -281.23)"/><path class="cls-4" d="M280.85,320.08c0,.08,0,.16,0,.24s0,.06,0,.09a6,6,0,0,0,.84,2.15,2.62,2.62,0,0,0,.21-1c0-.25,0-.49.05-.73.05-.67,0-1.85.09-2.53l-.84,1.43v0h0q-.15-.41-.3-.84l-.09-.22a.42.42,0,0,0,0-.1c-.19,1-1.07,2-1.28,3Z" transform="translate(-242.41 -281.23)"/><path class="cls-8" d="M280.85,320.08c0,.08,0,.16,0,.24s0,.06,0,.09a6,6,0,0,0,.84,2.15,2.62,2.62,0,0,0,.21-1c0-.25,0-.49.05-.73.05-.67,0-1.85.09-2.53l-.84,1.43v0h0q-.15-.41-.3-.84l-.09-.22a.42.42,0,0,0,0-.1c-.19,1-1.07,2-1.28,3Z" transform="translate(-242.41 -281.23)"/><path class="cls-12" d="M254.72,327.12a6.72,6.72,0,0,0,1-.94,15.87,15.87,0,0,0,2.21-3.78c.79-1.7,1.59-3.39,2.38-5.08a16.05,16.05,0,0,0,1.1-2.81.71.71,0,0,1-.33-.4s0-.09-.05-.17v-.06l-.07-.27v0c0-.13-.06-.27-.1-.42l0-.09q0-.21-.09-.45l0-.08-.12-.57,0-.08c0-.17-.07-.34-.1-.51l0-.12c0-.2-.07-.39-.1-.58v-.07c0-.16-.06-.32-.08-.47v-.05h-.13a3.09,3.09,0,0,0-.61.08,2.89,2.89,0,0,0-2,1.53L250.92,325c.34.3.68.58,1,.86A2.8,2.8,0,0,1,254.72,327.12Z" transform="translate(-242.41 -281.23)"/><path class="cls-12" d="M252,325.87a23.32,23.32,0,0,0,2.25,1.58c.17-.11.35-.21.52-.33A2.8,2.8,0,0,0,252,325.87Z" transform="translate(-242.41 -281.23)"/><path class="cls-12" d="M262.67,314.23a2.66,2.66,0,0,0,.28-1.34,1.81,1.81,0,0,0-1.39,1.72.72.72,0,0,1-.17-.1,16.05,16.05,0,0,1-1.1,2.81c-.79,1.69-1.59,3.38-2.38,5.08a15.87,15.87,0,0,1-2.21,3.78,6.72,6.72,0,0,1-1,.94c-.17.12-.35.22-.52.33.49.31,1,.6,1.52.88l3.08-6.25Z" transform="translate(-242.41 -281.23)"/><path class="cls-13" d="M262.67,314.23a2.66,2.66,0,0,0,.28-1.34,1.81,1.81,0,0,0-1.39,1.72.72.72,0,0,1-.17-.1,16.05,16.05,0,0,1-1.1,2.81c-.79,1.69-1.59,3.38-2.38,5.08a15.87,15.87,0,0,1-2.21,3.78,6.72,6.72,0,0,1-1,.94c-.17.12-.35.22-.52.33.49.31,1,.6,1.52.88l3.08-6.25Z" transform="translate(-242.41 -281.23)"/><path class="cls-14" d="M287.86,314.88v.27l.34.2v-1Q288,314.65,287.86,314.88Z" transform="translate(-242.41 -281.23)"/><path class="cls-14" d="M288.19,312.53v-3l-.34-.2v3.55A2.08,2.08,0,0,0,288.19,312.53Z" transform="translate(-242.41 -281.23)"/><path class="cls-15" d="M288.18,309.5l3.82-2.21c0-.13,0-.26,0-.39L288.38,309l-.54.31Z" transform="translate(-242.41 -281.23)"/><path class="cls-16" d="M288.93,313.19c-.22.39-.47.81-.74,1.21v1l3-1.73c.21-.83.38-1.67.51-2.53a8.66,8.66,0,0,1-1.54,2.52A2.39,2.39,0,0,1,288.93,313.19Z" transform="translate(-242.41 -281.23)"/><path class="cls-16" d="M288.19,312.53a2.27,2.27,0,0,0,.18-.28,4.93,4.93,0,0,1,.34-.54,1.29,1.29,0,0,0,0-.74c0-.07-.19-.11-.19-.11l.55-1.07s.19.09.28,0a1.74,1.74,0,0,0,.91-.82s.24.28.9-.2a2.55,2.55,0,0,0,.29-.38l.53.46a1.58,1.58,0,0,0-.15,1.65,24.56,24.56,0,0,0,.22-3.23v0l-3.82,2.21Z" transform="translate(-242.41 -281.23)"/><path class="cls-17" d="M291.74,309.23a2.27,2.27,0,0,1,.19-.33l-.53-.46a2.55,2.55,0,0,1-.29.38c-.66.48-.9.2-.9.2a1.74,1.74,0,0,1-.91.82c-.09,0-.28,0-.28,0l-.55,1.07s.15,0,.19.11a1.29,1.29,0,0,1,0,.74s.05-.08.09-.11a1.07,1.07,0,0,1,.21-.13,1.37,1.37,0,0,0-.09-.79l-.06-.07.2-.4a.43.43,0,0,0,.2,0,1.15,1.15,0,0,0,.25-.12,2.27,2.27,0,0,0,.7-.61,1,1,0,0,0,.68-.17,1.92,1.92,0,0,0,.26-.17,1.24,1.24,0,0,0,.2-.2l.19.17-.06.14a2.34,2.34,0,0,0,0,1.4c0,.05,0,.12,0,.15a5.65,5.65,0,0,1-1.34,2.45,1.89,1.89,0,0,1-1.05-.4c-.06.11-.12.24-.19.36a2.39,2.39,0,0,0,1.24.42,8.66,8.66,0,0,0,1.54-2.52c0-.18.05-.36.07-.54A2.26,2.26,0,0,1,291.74,309.23Z" transform="translate(-242.41 -281.23)"/><path class="cls-18" d="M290.2,310.21c.59-.34,1.07-.06,1.07.62a2.35,2.35,0,0,1-1.07,1.84c-.41.24-.77.17-.94-.13l-.14.29a1.89,1.89,0,0,0,1.05.4,5.65,5.65,0,0,0,1.34-2.45s0-.1,0-.15a2.34,2.34,0,0,1,0-1.4l.06-.14-.19-.17a1.24,1.24,0,0,1-.2.2,1.92,1.92,0,0,1-.26.17,1,1,0,0,1-.68.17,2.27,2.27,0,0,1-.7.61,1.15,1.15,0,0,1-.25.12.43.43,0,0,1-.2,0l-.2.4.06.07a1.37,1.37,0,0,1,.09.79.57.57,0,0,1,.26,0A2.31,2.31,0,0,1,290.2,310.21Zm-.9.12,1.8-1v.26l-1.8,1Z" transform="translate(-242.41 -281.23)"/><path class="cls-19" d="M290.2,312.67a2.35,2.35,0,0,0,1.07-1.84c0-.68-.48-1-1.07-.62a2.31,2.31,0,0,0-.93,1.22.46.46,0,0,1,.22.06l.43-.32.28-.79.26.48.61-.24-.45.75.1.64-.54,0-.54.64.11-.76-.21-.12a3.5,3.5,0,0,1-.28.8C289.43,312.84,289.79,312.91,290.2,312.67Z" transform="translate(-242.41 -281.23)"/><path class="cls-18" d="M289.64,312.62l.54-.64.54,0-.1-.64.45-.75-.61.24-.26-.48-.28.79-.43.32h0c.05,0,.05.13,0,.24l.21.12Z" transform="translate(-242.41 -281.23)"/><polygon class="cls-19" points="48.69 28.07 46.9 29.1 46.9 29.36 48.69 28.32 48.69 28.07"/><path class="cls-3" d="M288.93,313.19c.07-.12.13-.25.19-.36l.14-.29a3.5,3.5,0,0,0,.28-.8c0-.11,0-.21,0-.24h0a.46.46,0,0,0-.22-.06.57.57,0,0,0-.26,0,1.07,1.07,0,0,0-.21.13s-.06.08-.09.11a4.93,4.93,0,0,0-.34.54,2.27,2.27,0,0,1-.18.28,2.08,2.08,0,0,1-.34.32l-.21.14a1.82,1.82,0,0,1-.13-.51,1.83,1.83,0,0,0-.26.42,2.5,2.5,0,0,0,0,1.9,1.24,1.24,0,0,1,.3.17l.14.1h0l0,0v0a1.71,1.71,0,0,0,.11-.14q.17-.22.33-.48C288.46,314,288.71,313.58,288.93,313.19Z" transform="translate(-242.41 -281.23)"/><path class="cls-20" d="M263.34,293.76c.23-.14.46-.27.7-.39C263.8,293.49,263.57,293.62,263.34,293.76Z" transform="translate(-242.41 -281.23)"/><path class="cls-20" d="M262.66,294.29a4.81,4.81,0,0,1,.57-.44A4.81,4.81,0,0,0,262.66,294.29Z" transform="translate(-242.41 -281.23)"/><path class="cls-20" d="M265,293a6.93,6.93,0,0,1,.79-.17A6.93,6.93,0,0,0,265,293Z" transform="translate(-242.41 -281.23)"/><path class="cls-20" d="M264.2,293.3a5.17,5.17,0,0,1,.69-.26A5.17,5.17,0,0,0,264.2,293.3Z" transform="translate(-242.41 -281.23)"/><polygon class="cls-20" points="21.36 20.57 21.37 20.57 21.37 20.56 21.36 20.57"/><path class="cls-20" d="M260.87,297.26A2.25,2.25,0,0,0,261,297,2.25,2.25,0,0,1,260.87,297.26Z" transform="translate(-242.41 -281.23)"/><path class="cls-20" d="M261.88,295.16c-.08.11-.17.23-.25.36l0,.09C261.68,295.46,261.78,295.3,261.88,295.16Z" transform="translate(-242.41 -281.23)"/><path class="cls-20" d="M261.4,295.92a.43.43,0,0,1,0,.07l0-.05Z" transform="translate(-242.41 -281.23)"/><path class="cls-20" d="M260.52,301.71l.06,0a10.36,10.36,0,0,1-.07-1.12C260.5,301,260.51,301.34,260.52,301.71Z" transform="translate(-242.41 -281.23)"/><path class="cls-20" d="M263.77,301.8c-.34-2.77,2.6-7.29,5.56-7.14,2.46.13,2.49,2.58,2.64,4.46h0l0,.12h0c0,.09,0,.2,0,.3l0,0a9,9,0,0,0-.6-4.6,4.83,4.83,0,0,0-3.52-2.17,7.45,7.45,0,0,0-2.11,0C264.61,293.76,263.15,296.08,263.77,301.8Z" transform="translate(-242.41 -281.23)"/><path class="cls-20" d="M261.5,295.74a.22.22,0,0,1-.05.08h0Z" transform="translate(-242.41 -281.23)"/><path class="cls-20" d="M262,295a5.5,5.5,0,0,1,.56-.62A5.5,5.5,0,0,0,262,295Z" transform="translate(-242.41 -281.23)"/><path class="cls-20" d="M261.09,296.6c0-.09.08-.17.11-.26C261.17,296.43,261.13,296.51,261.09,296.6Z" transform="translate(-242.41 -281.23)"/><path class="cls-21" d="M272.12,307.33l-.13-.11h0Z" transform="translate(-242.41 -281.23)"/><path class="cls-21" d="M272.07,308.1c-.13.24-1.24,5.13-1.28,5.43a23.91,23.91,0,0,0,.35,2.4,10,10,0,0,0,1.72-3.41c.29-.83.53-1.6.67-2a2.71,2.71,0,0,0-.9-2.65C272.38,307.9,272.13,308,272.07,308.1Z" transform="translate(-242.41 -281.23)"/><path class="cls-21" d="M272.43,307.65l.18.18Z" transform="translate(-242.41 -281.23)"/><path class="cls-22" d="M271.92,307.45a.61.61,0,0,1,0,.13h0a36.22,36.22,0,0,1-1.39,3.64,1.33,1.33,0,0,1-1.07,1,8.94,8.94,0,0,1,1.28,4.1l.08,0a3.81,3.81,0,0,0,.35-.3h0a23.91,23.91,0,0,1-.35-2.4c0-.3,1.15-5.19,1.28-5.43s.31-.2.56-.25h0l0,0-.18-.18-.18-.19-.13-.13-.13-.11C272,307.3,271.94,307.38,271.92,307.45Z" transform="translate(-242.41 -281.23)"/><path class="cls-21" d="M272.14,306.1a2.64,2.64,0,0,1-.05.6A2.64,2.64,0,0,0,272.14,306.1Z" transform="translate(-242.41 -281.23)"/><path class="cls-21" d="M271.92,307.45c0-.07.05-.15.07-.23h0c0-.11,0-.21.07-.32C272,307.08,272,307.26,271.92,307.45Z" transform="translate(-242.41 -281.23)"/><path class="cls-21" d="M270.5,311.22a36.22,36.22,0,0,0,1.39-3.64,2.92,2.92,0,0,0-.75-.51,16.59,16.59,0,0,0-4,1.42c-.18.19.05.89.05.89h0a16.12,16.12,0,0,1,2.25,2.8A1.33,1.33,0,0,0,270.5,311.22Z" transform="translate(-242.41 -281.23)"/><path class="cls-22" d="M270.45,306.12a2.87,2.87,0,0,1-.82.77,2.66,2.66,0,0,1-1,.36h0A4.24,4.24,0,0,1,264,304v0a7.24,7.24,0,0,0,2,4.12c.36.39.77.8,1.2,1.24h0s-.23-.7-.05-.89a16.59,16.59,0,0,1,4-1.42,2.92,2.92,0,0,1,.75.51h0a.61.61,0,0,0,0-.13c.06-.19.1-.37.14-.55l0-.2a2.64,2.64,0,0,0,.05-.6,1.53,1.53,0,0,0-.73-1.4l-.1-.09A7.81,7.81,0,0,1,270.45,306.12Z" transform="translate(-242.41 -281.23)"/><path class="cls-22" d="M261.24,310.65c.59-.24,1.49-1.17,1.45-1.66,0-.27-.13-.79-.22-1.21s-.43-.94-.67-1.53a6.06,6.06,0,0,0-1.66,2.57,3.62,3.62,0,0,0,0,1c0,.07,0,.15,0,.24S260.74,310.85,261.24,310.65Z" transform="translate(-242.41 -281.23)"/><path class="cls-22" d="M264.11,312.12l-.07.14Z" transform="translate(-242.41 -281.23)"/><path class="cls-22" d="M264.41,311.16a.14.14,0,0,1,0,.07A.14.14,0,0,0,264.41,311.16Z" transform="translate(-242.41 -281.23)"/><path class="cls-22" d="M264.31,311.65s0,.09-.05.14S264.29,311.69,264.31,311.65Z" transform="translate(-242.41 -281.23)"/><path class="cls-22" d="M260.92,313.57c0-.13-.06-.27-.1-.42C260.86,313.3,260.89,313.44,260.92,313.57Z" transform="translate(-242.41 -281.23)"/><path class="cls-22" d="M260.8,313.06q0-.21-.09-.45Q260.76,312.85,260.8,313.06Z" transform="translate(-242.41 -281.23)"/><path class="cls-22" d="M260.55,311.88c0-.17-.07-.34-.1-.51C260.48,311.54,260.51,311.71,260.55,311.88Z" transform="translate(-242.41 -281.23)"/><path class="cls-22" d="M260.42,311.25c0-.2-.07-.39-.1-.58C260.35,310.86,260.39,311.05,260.42,311.25Z" transform="translate(-242.41 -281.23)"/><path class="cls-22" d="M261,313.88l-.07-.27Z" transform="translate(-242.41 -281.23)"/><path class="cls-22" d="M261.06,314.11s0-.09-.05-.17C261,314,261.05,314.08,261.06,314.11Z" transform="translate(-242.41 -281.23)"/><path class="cls-22" d="M260.69,312.53l-.12-.57Z" transform="translate(-242.41 -281.23)"/><path class="cls-22" d="M260.31,310.6c0-.16-.06-.32-.08-.47C260.25,310.28,260.28,310.44,260.31,310.6Z" transform="translate(-242.41 -281.23)"/><path class="cls-23" d="M264.31,311.65a2.07,2.07,0,0,0,.08-.42.14.14,0,0,0,0-.07,2.44,2.44,0,0,0,0-.27,19.72,19.72,0,0,1-1.95-3.11c.09.42.19.94.22,1.21,0,.49-.86,1.42-1.45,1.66s-.91-.4-1-.59h0v.08c0,.15,0,.31.08.47v.07c0,.19.07.38.1.58l0,.12c0,.17.06.34.1.51l0,.08.12.57,0,.08q0,.24.09.45l0,.09c0,.15.07.29.1.42v0l.07.27v.06c0,.08,0,.14.05.17a.71.71,0,0,0,.33.4.72.72,0,0,0,.17.1,1.81,1.81,0,0,1,1.39-1.72,3.54,3.54,0,0,1,.77-.2,3.19,3.19,0,0,0,.32-.43l.07-.14a.41.41,0,0,0,.05-.09,2.44,2.44,0,0,0,.1-.24C264.28,311.74,264.29,311.69,264.31,311.65Z" transform="translate(-242.41 -281.23)"/><path class="cls-20" d="M261,297c0-.07.05-.14.07-.2S261,296.92,261,297Z" transform="translate(-242.41 -281.23)"/><path class="cls-20" d="M261.47,295.81h0a.31.31,0,0,1-.05.1v0Z" transform="translate(-242.41 -281.23)"/><path class="cls-20" d="M261.53,303.43c1.38,4.44,8.19,9.09,6.35,14.42l-.39.1a9.1,9.1,0,0,1,1.59-.27c.61-.07,1.14-.09,1.31-.11a.41.41,0,0,0,.33-.38c0-.31,0-.61,0-.91a8.94,8.94,0,0,0-1.28-4.1,16.12,16.12,0,0,0-2.25-2.8c-.43-.44-.84-.85-1.2-1.24a7.24,7.24,0,0,1-2-4.12v0c0-.16-.08-.32-.1-.49l-.15-1.34c0-.12,0-.24,0-.36h0c-.62-5.72.84-8,2.06-9h0l-.08,0a6.93,6.93,0,0,0-.79.17l-.08,0a5.17,5.17,0,0,0-.69.26l-.16.07c-.24.12-.47.25-.7.39l-.11.09a4.81,4.81,0,0,0-.57.44l-.11.1a5.5,5.5,0,0,0-.56.62s-.07.1-.11.15-.2.3-.29.45A11.37,11.37,0,0,0,261.53,303.43Z" transform="translate(-242.41 -281.23)"/><path class="cls-24" d="M264.42,310.89a8.77,8.77,0,0,1,.88,1.67c.11.27.22.57.33.92a36.76,36.76,0,0,1,1,4,.67.67,0,0,0,.87.51l.39-.1c1.84-5.33-5-10-6.35-14.42a11.37,11.37,0,0,1,.06-7.82l0-.09,0,0c-.06.09-.11.18-.16.27l0,.07-.08.13,0,.05c-.06.11-.1.23-.16.35s-.07.17-.11.26l-.06.19c0,.06,0,.13-.07.2v0a2.25,2.25,0,0,1-.08.24c-.06.23-.11.47-.16.72a13.65,13.65,0,0,0-.2,2.65,10.36,10.36,0,0,0,.07,1.12,16.44,16.44,0,0,0,1.1,4.2l.12.3c.24.59.46,1.09.67,1.53A19.72,19.72,0,0,0,264.42,310.89Z" transform="translate(-242.41 -281.23)"/><path class="cls-25" d="M263.78,301.48l0-.22c0-.15,0-.3.07-.45s.05-.16.07-.25.08-.26.13-.39l.1-.25c0-.06.05-.13.08-.19h0a1.4,1.4,0,0,0,.09-.17l.14-.24c.06-.11.13-.22.2-.33a.61.61,0,0,0,.07-.1,1.47,1.47,0,0,1,.1-.13,4,4,0,0,1,.26-.32l.16-.2,0,0,0,0,.25-.24.16-.16.2-.17.15-.12,0,0,.1-.09h0a5.25,5.25,0,0,1,.49-.33l0,0a7.17,7.17,0,0,1,.67-.35l.17-.07a4.53,4.53,0,0,1,.65-.22h0a2.9,2.9,0,0,1,.63-.09H269a2,2,0,0,1,.56.08,2.78,2.78,0,0,1,.63.27l.13.07a3,3,0,0,1,.48.36l.05.05a3.88,3.88,0,0,1,.34.38l.07.09a5.08,5.08,0,0,1,.27.43.3.3,0,0,0,0,.08c.06.13.12.25.16.36l0,.06v0h0a4.21,4.21,0,0,1,.18.58h0c-.15-1.88-.18-4.33-2.64-4.46-3-.15-5.9,4.37-5.56,7.14h0C263.78,301.69,263.77,301.58,263.78,301.48Z" transform="translate(-242.41 -281.23)"/><path class="cls-26" d="M269.7,302a.86.86,0,0,0-.2-.18.74.74,0,0,0-.84,0,2.25,2.25,0,0,0-.41.46,2.21,2.21,0,0,1-2,1,2.54,2.54,0,0,1-1.66-.57c.12,2.5,2,4.69,4,4.57a2.66,2.66,0,0,0,1-.36,2.87,2.87,0,0,0,.82-.77,7.81,7.81,0,0,0,.86-1.51,9.67,9.67,0,0,0,.42-1.14,8.48,8.48,0,0,0,.22-1.07,1.71,1.71,0,0,1-2.25-.42Z" transform="translate(-242.41 -281.23)"/><path class="cls-26" d="M263.78,301.48c0,.1,0,.21,0,.31h0c0,.12,0,.24,0,.36A3.86,3.86,0,0,1,263.78,301.48Z" transform="translate(-242.41 -281.23)"/><path class="cls-26" d="M270.22,296.63l.13.07Z" transform="translate(-242.41 -281.23)"/><path class="cls-26" d="M269,296.28a2,2,0,0,1,.56.08A2,2,0,0,0,269,296.28Z" transform="translate(-242.41 -281.23)"/><path class="cls-26" d="M264.08,300.17c-.05.13-.09.26-.13.39C264,300.43,264,300.3,264.08,300.17Z" transform="translate(-242.41 -281.23)"/><path class="cls-26" d="M271.22,297.49l.07.09Z" transform="translate(-242.41 -281.23)"/><path class="cls-26" d="M268.25,296.37a2.9,2.9,0,0,1,.63-.09A2.9,2.9,0,0,0,268.25,296.37Z" transform="translate(-242.41 -281.23)"/><path class="cls-26" d="M263.88,300.81c0,.15-.05.3-.07.45C263.83,301.11,263.85,301,263.88,300.81Z" transform="translate(-242.41 -281.23)"/><path class="cls-26" d="M264.18,299.92c0-.07.07-.13.1-.2h0C264.23,299.79,264.21,299.86,264.18,299.92Z" transform="translate(-242.41 -281.23)"/><path class="cls-26" d="M271.56,298a.59.59,0,0,0,0,.08A.3.3,0,0,1,271.56,298Z" transform="translate(-242.41 -281.23)"/><path class="cls-26" d="M266.75,297a7.17,7.17,0,0,1,.67-.35A7.17,7.17,0,0,0,266.75,297Z" transform="translate(-242.41 -281.23)"/><path class="cls-26" d="M264.86,298.76a4,4,0,0,1,.26-.32A4,4,0,0,0,264.86,298.76Z" transform="translate(-242.41 -281.23)"/><path class="cls-26" d="M270.83,297.06l.05.05Z" transform="translate(-242.41 -281.23)"/><path class="cls-26" d="M264.35,299.56a1.4,1.4,0,0,1-.09.17s.05-.07.06-.1Z" transform="translate(-242.41 -281.23)"/><path class="cls-26" d="M264.69,299c-.07.11-.14.22-.2.33a3,3,0,0,1,.19-.3Z" transform="translate(-242.41 -281.23)"/><path class="cls-26" d="M267.88,297.46a6.42,6.42,0,0,0-2.62,2.5c.6,0,1.22.1,1.83.11a10.73,10.73,0,0,0,1.38-.13l2.79-.41a2.16,2.16,0,0,1,.76,0c0-.1,0-.21,0-.3h0l0-.12a4.21,4.21,0,0,0-.18-.58A3.29,3.29,0,0,0,267.88,297.46Z" transform="translate(-242.41 -281.23)"/><path class="cls-26" d="M271.76,298.45l0,.06Z" transform="translate(-242.41 -281.23)"/><path class="cls-26" d="M265.32,298.2l0,0h0Z" transform="translate(-242.41 -281.23)"/><path class="cls-26" d="M266.14,297.45l0,0h0Z" transform="translate(-242.41 -281.23)"/><path class="cls-26" d="M266.73,297a5.25,5.25,0,0,0-.49.33h0C266.42,297.25,266.57,297.13,266.73,297Z" transform="translate(-242.41 -281.23)"/><path class="cls-26" d="M265.59,297.93l-.25.24.11-.1Z" transform="translate(-242.41 -281.23)"/><path class="cls-26" d="M266,297.6l-.2.17.16-.13Z" transform="translate(-242.41 -281.23)"/><path class="cls-26" d="M267.59,296.59a4.53,4.53,0,0,1,.65-.22A4.53,4.53,0,0,0,267.59,296.59Z" transform="translate(-242.41 -281.23)"/><path class="cls-27" d="M268.61,307.25h0c-2,.12-3.88-2.07-4-4.57a1.2,1.2,0,0,1-.44-.88c0-.05,0-1.4.25-1.65a.72.72,0,0,1,.28-.13,5.32,5.32,0,0,1,.56-.06,6.42,6.42,0,0,1,2.62-2.5,10.45,10.45,0,0,0-3.6,2.26c0,.07-.07.13-.1.2l-.1.25c-.05.13-.09.26-.13.39s-.05.17-.07.25-.05.3-.07.45l0,.22a3.86,3.86,0,0,0,0,.68l.15,1.34c0,.17.07.33.1.49A4.24,4.24,0,0,0,268.61,307.25Z" transform="translate(-242.41 -281.23)"/><path class="cls-27" d="M266.26,297.36h0l-.1.09,0,0Z" transform="translate(-242.41 -281.23)"/><path class="cls-27" d="M265.29,298.23h0l-.16.2a4,4,0,0,0-.26.32,1.47,1.47,0,0,0-.1.13A6.66,6.66,0,0,1,265.29,298.23Z" transform="translate(-242.41 -281.23)"/><path class="cls-27" d="M265.91,297.64l-.16.13-.16.16-.14.14A6.17,6.17,0,0,1,265.91,297.64Z" transform="translate(-242.41 -281.23)"/><path class="cls-27" d="M264.68,299a3,3,0,0,0-.19.3l-.14.24,0,.07A6.11,6.11,0,0,1,264.68,299Z" transform="translate(-242.41 -281.23)"/><path class="cls-28" d="M271.79,298.54h0v0l0-.06c0-.11-.1-.23-.16-.36a.59.59,0,0,1,0-.08,5.08,5.08,0,0,0-.27-.43l-.07-.09a3.88,3.88,0,0,0-.34-.38l-.05-.05a3,3,0,0,0-.48-.36l-.13-.07a2.78,2.78,0,0,0-.63-.27,2,2,0,0,0-.56-.08h-.15a2.9,2.9,0,0,0-.63.09h0a4.53,4.53,0,0,0-.65.22l-.17.07a7.17,7.17,0,0,0-.67.35l0,0c-.16.1-.31.22-.47.33l-.16.12h0l-.15.12,0,0a6.17,6.17,0,0,0-.46.43l-.11.1,0,0,0,0a6.66,6.66,0,0,0-.53.66.61.61,0,0,1-.07.1v0a6.11,6.11,0,0,0-.36.61s0,.06-.06.1h0a10.45,10.45,0,0,1,3.6-2.26A3.29,3.29,0,0,1,271.79,298.54Z" transform="translate(-242.41 -281.23)"/><path class="cls-29" d="M271.26,299.53l-2.79.41a10.73,10.73,0,0,1-1.38.13c-.61,0-1.23-.12-1.83-.11a5.32,5.32,0,0,0-.56.06.72.72,0,0,0-.28.13c-.26.25-.25,1.6-.25,1.65a1.2,1.2,0,0,0,.44.88,2.54,2.54,0,0,0,1.66.57,2.21,2.21,0,0,0,2-1,2.25,2.25,0,0,1,.41-.46.74.74,0,0,1,.84,0,.86.86,0,0,1,.2.18,1.71,1.71,0,0,0,2.25.42,1.45,1.45,0,0,0,.74-1h0a1.06,1.06,0,0,0,0-.53,4.53,4.53,0,0,0-.15-.75,1.05,1.05,0,0,0-.17-.39.66.66,0,0,0-.34-.2l0,0A2.16,2.16,0,0,0,271.26,299.53Zm-5.89.86a.52.52,0,0,1,.23.65c-.08.31-.31.51-.52.46s-.31-.34-.23-.65S265.16,300.34,265.37,300.39Z" transform="translate(-242.41 -281.23)"/><path class="cls-29" d="M265.08,301.5c.21.05.44-.15.52-.46a.52.52,0,0,0-.23-.65c-.21-.05-.44.15-.52.46S264.87,301.45,265.08,301.5Z" transform="translate(-242.41 -281.23)"/><path class="cls-30" d="M265.08,301.5c.21.05.44-.15.52-.46a.52.52,0,0,0-.23-.65c-.21-.05-.44.15-.52.46S264.87,301.45,265.08,301.5Z" transform="translate(-242.41 -281.23)"/></g></g></svg>