<svg id="Layer_1" data-name="Layer 1" xmlns="http://www.w3.org/2000/svg" viewBox="0 0 267.18 476.33"><defs><style>.cls-1{fill:#fff;}.cls-1,.cls-13,.cls-14{stroke:#000;stroke-miterlimit:10;}.cls-2{font-size:12px;}.cls-2,.cls-9{font-family:MyriadPro-Regular, Myriad Pro;}.cls-3{letter-spacing:-0.05em;}.cls-4{letter-spacing:-0.04em;}.cls-5{letter-spacing:0.04em;}.cls-6{letter-spacing:-0.02em;}.cls-7{letter-spacing:0.03em;}.cls-8{letter-spacing:-0.01em;}.cls-9{font-size:8px;}.cls-10{letter-spacing:-0.07em;}.cls-11{letter-spacing:0em;}.cls-12{letter-spacing:0.01em;}.cls-13{fill:none;stroke-width:2px;}</style></defs><title>flowchart-soal9</title><rect class="cls-1" x="0.68" y="113.95" width="117.44" height="32.43"/><text class="cls-2" transform="translate(55.27 133.69)">a.</text><rect class="cls-1" x="149.24" y="172.19" width="117.44" height="32.43"/><text class="cls-2" transform="translate(186.23 191.93)"><tspan class="cls-3">T</tspan><tspan x="5.42" y="0">runk</tspan><tspan class="cls-4" x="28.25" y="0"> </tspan><tspan class="cls-5" x="30.3" y="0">T</tspan><tspan x="36.74" y="0">V</tspan></text><rect class="cls-1" x="148.63" y="247.55" width="117.44" height="32.43"/><text class="cls-2" transform="translate(202.84 267.29)"><tspan class="cls-6">b</tspan><tspan x="6.54" y="0">.</tspan></text><rect class="cls-1" x="147.88" y="322.46" width="117.44" height="32.43"/><text class="cls-2" transform="translate(195.58 342.2)">S<tspan class="cls-7" x="5.92" y="0">C</tspan><tspan x="13.21" y="0">TI</tspan></text><rect class="cls-1" x="0.88" y="391.45" width="117.44" height="32.43"/><text class="cls-2" transform="translate(55.73 411.19)"><tspan class="cls-8">c</tspan><tspan x="5.26" y="0">.</tspan></text><rect class="cls-1" x="174.98" y="195.06" width="40.47" height="40.47" transform="translate(-231.05 174.93) rotate(-45)"/><text class="cls-9" transform="translate(40.71 191.47)">chanel ==1 ?</text><rect class="cls-1" x="174.98" y="265.41" width="40.47" height="40.47" transform="translate(-280.8 195.53) rotate(-45)"/><text class="cls-9" transform="translate(40.71 261.82)">chanel ==2 ?</text><rect class="cls-1" x="174.98" y="343.9" width="40.47" height="40.47" transform="translate(-336.3 218.52) rotate(-45)"/><text class="cls-9" transform="translate(40.71 340.31)">chanel ==3 ?</text><rect class="cls-1" x="0.5" y="0.5" width="117.44" height="32.43" rx="16.22"/><text class="cls-2" transform="translate(43.79 20.24)">S<tspan class="cls-10" x="5.92" y="0">T</tspan><tspan class="cls-11" x="10.98" y="0">A</tspan><tspan class="cls-12" x="18.32" y="0">R</tspan><tspan x="24.89" y="0">T</tspan></text><path class="cls-1" d="M238.91,119.17l-101.74.58,15.7-32.56,101.74.13Q246.77,103.24,238.91,119.17Z" transform="translate(-135.99 -26.17)"/><text class="cls-2" transform="translate(43.24 80.82)">chanel</text><rect class="cls-1" x="0.5" y="443.4" width="117.44" height="32.43" rx="16.22"/><text class="cls-2" transform="translate(48.33 463.13)">END</text><line x1="60.77" y1="33.65" x2="60.77" y2="57.65"/><line class="cls-13" x1="60.77" y1="33.65" x2="60.77" y2="51.26"/><path d="M196.76,83.82a31.9,31.9,0,0,0-5-9.06l5,1.83,5-1.83A32.39,32.39,0,0,0,196.76,83.82Z" transform="translate(-135.99 -26.17)"/><line x1="55.13" y1="93.65" x2="55.13" y2="113.42"/><line class="cls-13" x1="55.13" y1="93.65" x2="55.13" y2="107.02"/><path d="M191.12,139.59a32.25,32.25,0,0,0-5-9.06l5,1.82,5-1.82A31.76,31.76,0,0,0,191.12,139.59Z" transform="translate(-135.99 -26.17)"/><line x1="59.36" y1="146.6" x2="59.22" y2="160.51"/><line class="cls-13" x1="59.36" y1="146.6" x2="59.29" y2="154.11"/><path d="M195.21,186.68a31.57,31.57,0,0,0-5-9.11l5,1.87,5.05-1.77A32.06,32.06,0,0,0,195.21,186.68Z" transform="translate(-135.99 -26.17)"/><line x1="59.22" y1="217.74" x2="59.22" y2="230.86"/><line class="cls-13" x1="59.22" y1="217.74" x2="59.22" y2="224.46"/><path d="M195.21,257a31.9,31.9,0,0,0-5-9.06l5,1.83,5-1.83A32.14,32.14,0,0,0,195.21,257Z" transform="translate(-135.99 -26.17)"/><line class="cls-14" x1="59.22" y1="288.09" x2="59.22" y2="309.34"/><line x1="59.22" y1="366.58" x2="58.65" y2="391.54"/><line class="cls-13" x1="59.22" y1="366.58" x2="58.8" y2="385.14"/><path d="M194.65,417.71a32,32,0,0,0-4.84-9.18l5,1.94,5.08-1.71A31.88,31.88,0,0,0,194.65,417.71Z" transform="translate(-135.99 -26.17)"/><line x1="58.65" y1="423.3" x2="58.65" y2="443.07"/><line class="cls-13" x1="58.65" y1="423.3" x2="58.65" y2="437.03"/><path d="M194.65,469.24a30.2,30.2,0,0,0-4.76-8.55l4.76,1.72,4.75-1.72A30.18,30.18,0,0,0,194.65,469.24Z" transform="translate(-135.99 -26.17)"/><line x1="87.84" y1="189.13" x2="148.3" y2="189.65"/><line class="cls-13" x1="87.84" y1="189.13" x2="141.9" y2="189.6"/><path d="M284.29,215.82a31.94,31.94,0,0,0-9.1,5l1.87-5-1.78-5.06A31.93,31.93,0,0,0,284.29,215.82Z" transform="translate(-135.99 -26.17)"/><line x1="87.84" y1="259.47" x2="147.6" y2="259.54"/><line class="cls-13" x1="87.84" y1="259.47" x2="141.2" y2="259.53"/><path d="M283.59,285.71a31.93,31.93,0,0,0-9.07,5l1.83-5-1.82-5A32.17,32.17,0,0,0,283.59,285.71Z" transform="translate(-135.99 -26.17)"/><line x1="87.84" y1="337.96" x2="146.18" y2="337.89"/><line class="cls-13" x1="87.84" y1="337.96" x2="139.79" y2="337.9"/><path d="M282.18,364.06a32.17,32.17,0,0,0-9.06,5.05l1.82-5-1.83-5A31.79,31.79,0,0,0,282.18,364.06Z" transform="translate(-135.99 -26.17)"/><line x1="207.6" y1="203.77" x2="207.6" y2="246.83"/><line class="cls-13" x1="207.6" y1="203.77" x2="207.6" y2="240.43"/><path d="M343.59,273a32,32,0,0,0-5-9.06l5,1.82,5-1.82A31.76,31.76,0,0,0,343.59,273Z" transform="translate(-135.99 -26.17)"/><line x1="206.89" y1="280.71" x2="206.89" y2="320.24"/><line class="cls-13" x1="206.89" y1="280.71" x2="206.89" y2="313.85"/><path d="M342.88,346.41a31.9,31.9,0,0,0-5-9.06l5,1.82,5-1.82A32.14,32.14,0,0,0,342.88,346.41Z" transform="translate(-135.99 -26.17)"/><path class="cls-13" d="M344.29,381q1.06,51.53,2.12,103.06l-86.08,1.6" transform="translate(-135.99 -26.17)"/><path d="M253.93,485.78a32.06,32.06,0,0,0,9-5.21l-1.73,5.08,1.92,5A32.29,32.29,0,0,0,253.93,485.78Z" transform="translate(-135.99 -26.17)"/></svg>