<svg id="Layer_1" data-name="Layer 1" xmlns="http://www.w3.org/2000/svg" viewBox="0 0 339.79 476.33"><defs><style>.cls-1{fill:#fff;}.cls-1,.cls-10,.cls-9{stroke:#000;stroke-miterlimit:10;}.cls-2{font-size:12px;}.cls-11,.cls-2,.cls-5{font-family:MyriadPro-Regular, Myriad Pro;}.cls-3{letter-spacing:-0.01em;}.cls-4{letter-spacing:0.02em;}.cls-5{font-size:8px;}.cls-6{letter-spacing:-0.07em;}.cls-7{letter-spacing:0em;}.cls-8{letter-spacing:0.01em;}.cls-9{fill:none;stroke-width:2px;}.cls-11{font-size:20px;}</style></defs><title>flowchart</title><rect class="cls-1" x="31.96" y="113.95" width="117.44" height="32.43"/><text class="cls-2" transform="translate(54.91 133.69)">swi<tspan class="cls-3" x="16.39" y="0">t</tspan><tspan x="20.29" y="0">ch (paket)</tspan></text><rect class="cls-1" x="179.97" y="172.19" width="117.44" height="32.43"/><text class="cls-2" transform="translate(186.42 191.93)">tampil<tspan class="cls-4" x="32.23" y="0">k</tspan><tspan x="38.08" y="0">an isi paket 1</tspan></text><rect class="cls-1" x="179.97" y="247.55" width="117.44" height="32.43"/><text class="cls-2" transform="translate(186.42 267.29)">tampil<tspan class="cls-4" x="32.23" y="0">k</tspan><tspan x="38.08" y="0">an isi paket 2</tspan></text><rect class="cls-1" x="179.97" y="322.46" width="117.44" height="32.43"/><text class="cls-2" transform="translate(186.42 342.2)">tampil<tspan class="cls-4" x="32.23" y="0">k</tspan><tspan x="38.08" y="0">an isi paket 3</tspan></text><rect class="cls-1" x="31.96" y="391.45" width="117.44" height="32.43"/><text class="cls-2" transform="translate(51.57 411.19)">paket tidak ada</text><rect class="cls-1" x="174.98" y="195.06" width="40.47" height="40.47" transform="translate(-199.59 174.93) rotate(-45)"/><text class="cls-5" transform="translate(72.17 191.47)">paket ==1 ?</text><rect class="cls-1" x="174.98" y="265.41" width="40.47" height="40.47" transform="translate(-249.33 195.53) rotate(-45)"/><text class="cls-5" transform="translate(72.17 261.82)">paket ==2 ?</text><rect class="cls-1" x="174.98" y="343.9" width="40.47" height="40.47" transform="translate(-304.83 218.52) rotate(-45)"/><text class="cls-5" transform="translate(72.17 340.31)">paket ==3 ?</text><rect class="cls-1" x="31.96" y="0.5" width="117.44" height="32.43" rx="16.22"/><text class="cls-2" transform="translate(75.25 20.24)">S<tspan class="cls-6" x="5.92" y="0">T</tspan><tspan class="cls-7" x="10.98" y="0">A</tspan><tspan class="cls-8" x="18.32" y="0">R</tspan><tspan x="24.89" y="0">T</tspan></text><path class="cls-1" d="M238.24,119.17l-101.75.58q7.84-16.27,15.7-32.56l101.74.13Z" transform="translate(-104.53 -26.17)"/><text class="cls-2" transform="translate(67.37 80.82)">paket = 1</text><rect class="cls-1" x="31.96" y="443.4" width="117.44" height="32.43" rx="16.22"/><text class="cls-2" transform="translate(79.79 463.13)">END</text><line x1="92.24" y1="33.65" x2="92.24" y2="57.65"/><line class="cls-9" x1="92.24" y1="33.65" x2="92.24" y2="51.26"/><path d="M196.76,83.82a31.9,31.9,0,0,0-5-9.06l5,1.83,5-1.83A32.39,32.39,0,0,0,196.76,83.82Z" transform="translate(-104.53 -26.17)"/><line x1="86.59" y1="93.65" x2="86.59" y2="113.42"/><line class="cls-9" x1="86.59" y1="93.65" x2="86.59" y2="107.02"/><path d="M191.12,139.59a32.25,32.25,0,0,0-5-9.06l5,1.82,5-1.82A31.76,31.76,0,0,0,191.12,139.59Z" transform="translate(-104.53 -26.17)"/><line x1="90.82" y1="146.6" x2="90.68" y2="160.51"/><line class="cls-9" x1="90.82" y1="146.6" x2="90.75" y2="154.11"/><path d="M195.21,186.68a31.57,31.57,0,0,0-5-9.11l5,1.87,5.05-1.77A32.06,32.06,0,0,0,195.21,186.68Z" transform="translate(-104.53 -26.17)"/><line x1="90.68" y1="217.74" x2="90.68" y2="230.86"/><line class="cls-9" x1="90.68" y1="217.74" x2="90.68" y2="224.46"/><path d="M195.21,257a31.9,31.9,0,0,0-5-9.06l5,1.83,5-1.83A32.14,32.14,0,0,0,195.21,257Z" transform="translate(-104.53 -26.17)"/><line class="cls-10" x1="90.68" y1="288.09" x2="90.68" y2="309.34"/><line x1="90.68" y1="366.58" x2="90.12" y2="391.54"/><line class="cls-9" x1="90.68" y1="366.58" x2="90.26" y2="385.14"/><path d="M194.65,417.71a32,32,0,0,0-4.84-9.18l5,1.94,5.08-1.71A31.88,31.88,0,0,0,194.65,417.71Z" transform="translate(-104.53 -26.17)"/><line x1="90.12" y1="423.3" x2="90.12" y2="443.07"/><line class="cls-9" x1="90.12" y1="423.3" x2="90.12" y2="437.03"/><path d="M194.65,469.24a30.2,30.2,0,0,0-4.76-8.55l4.76,1.72,4.75-1.72A30.18,30.18,0,0,0,194.65,469.24Z" transform="translate(-104.53 -26.17)"/><line x1="119.3" y1="189.13" x2="179.76" y2="189.65"/><line class="cls-9" x1="119.3" y1="189.13" x2="173.37" y2="189.6"/><path d="M284.29,215.82a31.94,31.94,0,0,0-9.1,5l1.87-5-1.78-5.06A31.93,31.93,0,0,0,284.29,215.82Z" transform="translate(-104.53 -26.17)"/><line x1="119.3" y1="259.47" x2="179.06" y2="259.54"/><line class="cls-9" x1="119.3" y1="259.47" x2="172.66" y2="259.53"/><path d="M283.59,285.71a31.93,31.93,0,0,0-9.07,5l1.83-5-1.82-5A32.17,32.17,0,0,0,283.59,285.71Z" transform="translate(-104.53 -26.17)"/><line x1="119.3" y1="337.96" x2="177.65" y2="337.89"/><line class="cls-9" x1="119.3" y1="337.96" x2="171.25" y2="337.9"/><path d="M282.18,364.06a32.17,32.17,0,0,0-9.06,5.05l1.82-5-1.83-5A31.79,31.79,0,0,0,282.18,364.06Z" transform="translate(-104.53 -26.17)"/><line x1="239.06" y1="203.77" x2="239.06" y2="246.83"/><line class="cls-9" x1="239.06" y1="203.77" x2="239.06" y2="240.43"/><path d="M343.59,273a32,32,0,0,0-5-9.06l5,1.82,5-1.82A31.76,31.76,0,0,0,343.59,273Z" transform="translate(-104.53 -26.17)"/><line x1="238.35" y1="280.71" x2="238.35" y2="320.24"/><line class="cls-9" x1="238.35" y1="280.71" x2="238.35" y2="313.85"/><path d="M342.88,346.41a31.9,31.9,0,0,0-5-9.06l5,1.82,5-1.82A32.14,32.14,0,0,0,342.88,346.41Z" transform="translate(-104.53 -26.17)"/><path class="cls-9" d="M344.29,381q1.06,51.53,2.12,103.06l-86.08,1.6" transform="translate(-104.53 -26.17)"/><path d="M253.93,485.78a32.06,32.06,0,0,0,9-5.21l-1.73,5.08,1.92,5A32.29,32.29,0,0,0,253.93,485.78Z" transform="translate(-104.53 -26.17)"/><text class="cls-11" transform="translate(0 80.3)">1</text><text class="cls-11" transform="translate(0 132.54)">2</text><text class="cls-11" transform="translate(0 193.24)">3</text><text class="cls-11" transform="translate(0 259.6)">4</text><text class="cls-11" transform="translate(0 337.95)">5</text><text class="cls-11" transform="translate(329.53 198.18)">7</text><text class="cls-11" transform="translate(329.53 264.54)">8</text><text class="cls-11" transform="translate(329.53 342.89)">9</text><text class="cls-11" transform="translate(0 412.77)">6</text></svg>