<svg xmlns="http://www.w3.org/2000/svg" xmlns:xlink="http://www.w3.org/1999/xlink" viewBox="0 0 1500 1500"><defs><style>.cls-1,.cls-35,.cls-43,.cls-56{fill:none;}.cls-2{fill:#d4d4ff;}.cls-3{isolation:isolate;}.cls-32,.cls-4,.cls-44,.cls-45,.cls-55,.cls-60{fill:#fff;}.cls-5{font-size:22px;}.cls-37,.cls-39,.cls-44,.cls-45,.cls-46,.cls-48,.cls-49,.cls-5,.cls-68{font-family:BaksoSapi, Bakso Sapi;}.cls-6{fill:#ebf3fa;}.cls-7{fill:#ddeaf4;}.cls-8{fill:#acd29a;}.cls-9{fill:#88b374;}.cls-10{fill:#7a3909;}.cls-11{clip-path:url(#clip-path);}.cls-12{fill:#a2c5f9;}.cls-13{fill:#afcdfb;}.cls-14{fill:#c7dcf9;}.cls-15{fill:#d2e4f9;}.cls-16{fill:#d3a17f;}.cls-17{fill:#f9d0af;}.cls-18,.cls-19,.cls-29{fill:#1a1c1f;}.cls-19{opacity:0.3;}.cls-19,.cls-24,.cls-29,.cls-30,.cls-31{mix-blend-mode:multiply;}.cls-20{fill:#e6e6e6;}.cls-21{fill:#752828;}.cls-22{fill:#842d2d;}.cls-23{fill:#e0b29d;}.cls-24,.cls-30{opacity:0.4;}.cls-25,.cls-30,.cls-31{fill:#e9c2b0;}.cls-26{fill:#16181d;}.cls-27{fill:#1e2125;}.cls-28{fill:#17181a;}.cls-29,.cls-31{opacity:0.2;}.cls-32{opacity:0.5;}.cls-33{fill:#252b33;}.cls-34,.cls-36,.cls-38{fill:#ef52eb;}.cls-34{opacity:0.7;}.cls-35,.cls-55,.cls-56{stroke:#000;stroke-miterlimit:10;}.cls-35{stroke-width:7px;}.cls-36,.cls-47{opacity:0.8;}.cls-37{font-size:24.3px;}.cls-38{opacity:0.9;}.cls-39{font-size:18.9px;}.cls-40{fill:url(#linear-gradient);}.cls-41{clip-path:url(#clip-path-2);}.cls-42{fill:#a9a9ff;}.cls-43{stroke:#fff;stroke-linecap:round;stroke-linejoin:round;stroke-width:5px;}.cls-44{font-size:14px;}.cls-45{font-size:32.79px;}.cls-46{font-size:9.24px;}.cls-47{fill:#54ed9c;}.cls-48{font-size:17.1px;}.cls-49{font-size:19px;}.cls-50{clip-path:url(#clip-path-3);}.cls-51,.cls-52{font-size:22.31px;}.cls-51{fill:red;}.cls-51,.cls-52,.cls-62,.cls-63,.cls-64,.cls-65{font-family:Consolas;}.cls-53{font-size:8px;font-family:TimesNewRomanPSMT, Times New Roman;}.cls-54{font-size:9px;}.cls-54,.cls-57,.cls-58,.cls-59,.cls-67{font-family:Roboto-Condensed, Roboto;}.cls-55,.cls-56{stroke-width:3px;}.cls-57{font-size:14.23px;}.cls-58{font-size:8.54px;}.cls-59{font-size:19.92px;}.cls-60{fill-rule:evenodd;}.cls-61{clip-path:url(#clip-path-36);}.cls-62,.cls-63,.cls-64,.cls-65{font-size:16.04px;}.cls-62{fill:blue;}.cls-64{fill:#098658;}.cls-65{fill:#a31515;}.cls-66{fill:#f5f99d;}.cls-67{font-size:33px;}.cls-68{font-size:31px;}</style><clipPath id="clip-path"><path id="SVGID" class="cls-1" d="M84.42,624.81l198.94-.3,13.46,0L734.2,623l144.26-.47s54.55-96,22-192.6a187.13,187.13,0,0,0-12.29-28.53,193.36,193.36,0,0,0-11.4-18.73l-1.33-1.9a211.73,211.73,0,0,0-21.29-25.5c-61.9-63.46-119-72.07-165.83-67.75-37.37,3.43-68.21,15.11-89.77,13.7C550,298.09,534.44,198.16,390.76,168a463.05,463.05,0,0,0-93-9.55c-89.83-.1-179.38,26.78-191.17,101a119,119,0,0,0,0,35.14,175.06,175.06,0,0,0,6.6,28.59c5.9,18.69,15.26,39.25,28.61,61.82,42.63,72.06,7.76,104.94-42.65,133.52Q96,520.32,93,522.16C57,543.85,84.42,624.81,84.42,624.81Z"/></clipPath><linearGradient id="linear-gradient" x1="1073.26" y1="115.47" x2="1105.24" y2="115.47" gradientUnits="userSpaceOnUse"><stop offset="0" stop-color="#303030"/><stop offset="0.12" stop-color="#242424"/><stop offset="0.3" stop-color="#171717"/><stop offset="0.48" stop-color="#131313"/><stop offset="0.78" stop-color="#151515"/><stop offset="0.89" stop-color="#1c1c1c"/><stop offset="0.96" stop-color="#272727"/><stop offset="1" stop-color="#303030"/></linearGradient><clipPath id="clip-path-2"><path id="SVGID-2" data-name="SVGID" class="cls-2" d="M1191.61,111.64h-.18l-.27,0h-29.8a3.34,3.34,0,0,0-3.15,3c0,.11,0,.23,0,.34v0a16,16,0,0,1-16,15.21H1037.93A16,16,0,0,1,1022,115v0c0-.11,0-.23,0-.34a3.34,3.34,0,0,0-3.16-3H989l-.28,0h-.18a20.08,20.08,0,0,0-18.74,20V612.34a20.17,20.17,0,0,0,18.48,20l.27,0h.29c.34,0,.69,0,1,0h200.39c.35,0,.69,0,1,0h.29l.27,0a20.17,20.17,0,0,0,18.48-20V131.67A20.08,20.08,0,0,0,1191.61,111.64Z"/></clipPath><clipPath id="clip-path-3"><rect class="cls-1" x="395.46" y="644.07" width="912.12" height="391.18"/></clipPath><clipPath id="clip-path-36"><rect class="cls-1" x="952" y="645.39" width="603.34" height="859.06"/></clipPath></defs><title>percabangan bersarang</title><g class="cls-3"><g id="Layer_1" data-name="Layer 1"><rect class="cls-4" x="-310.43" y="-32.71" width="2121.43" height="1584"/><text class="cls-5" transform="translate(1171.07 53.46)">percabangan bersarang</text><path class="cls-6" d="M84.42,624.81l198.94-.3,13.46,0L734.2,623l144.26-.47s54.55-96,22-192.6a187.13,187.13,0,0,0-12.29-28.53,193.36,193.36,0,0,0-11.4-18.73l-1.33-1.9a211.73,211.73,0,0,0-21.29-25.5c-61.9-63.46-119-72.07-165.83-67.75-37.37,3.43-68.21,15.11-89.77,13.7C550,298.09,534.44,198.16,390.76,168a463.05,463.05,0,0,0-93-9.55c-89.83-.1-179.38,26.78-191.17,101a119,119,0,0,0,0,35.14,175.06,175.06,0,0,0,6.6,28.59c5.9,18.69,15.26,39.25,28.61,61.82,42.63,72.06,7.76,104.94-42.65,133.52Q96,520.32,93,522.16C57,543.85,84.42,624.81,84.42,624.81Z"/><polygon class="cls-7" points="234.38 485.76 234.38 445.99 237.36 445.99 237.36 363.31 283.23 363.31 283.23 445.99 337.58 445.99 337.58 392.71 420.34 392.71 420.34 293.11 472.46 293.11 472.46 422.63 488.73 422.63 488.73 312.35 530.57 312.35 530.57 422.63 626.96 422.63 626.96 523.52 675.89 523.52 675.89 455.31 721.5 455.31 721.5 523.52 734.71 523.52 734.71 381.49 784.95 381.49 784.95 523.52 802.99 523.52 802.99 624.3 784.95 624.3 734.71 624.3 626.96 624.3 620.36 624.3 530.57 624.3 488.73 624.3 417.86 624.3 417.86 623.77 378.85 623.77 337.58 623.77 283.23 623.77 260.29 623.77 237.36 623.77 234.38 623.77 139.44 623.77 139.44 535.99 234.38 485.76"/><path class="cls-8" d="M752.3,396.94a26,26,0,0,0,.87-6.71c0-10.53-6.1-19.07-13.63-19.07a10.18,10.18,0,0,0-3.2.53c-1.22-28.51-13.71-50.92-28.93-50.92-14.5,0-26.51,20.33-28.68,46.9C667.94,375,660.55,390,660.55,407.3a56,56,0,0,0,4.61,22.6c-10,6.17-16.39,15.47-16.39,25.87,0,18.57,20.3,33.63,45.34,33.63,18.75,0,34.83-8.44,41.74-20.47a25.93,25.93,0,0,0,5.93.69c17,0,30.86-16.77,30.86-37.46C772.64,416,764.16,402.16,752.3,396.94Z"/><path class="cls-9" d="M752.3,396.94s-30-11.69-52.9,8.9-38.8-11.88-31.17-27a54,54,0,0,0-7.68,28.44,56,56,0,0,0,4.61,22.6c-10,6.17-16.39,15.47-16.39,25.87,0,18.57,20.3,33.63,45.34,33.63,18.75,0,34.83-8.44,41.74-20.47a25.93,25.93,0,0,0,5.93.69c17,0,30.86-16.77,30.86-37.46C772.64,416,764.16,402.16,752.3,396.94Z"/><path class="cls-10" d="M717,617.13c-1.18,0-2.14-.32-2.14-1.5V384a2.14,2.14,0,1,1,4.28,0V615.63C719.15,616.81,718.19,617.13,717,617.13Z"/><path class="cls-10" d="M717,466.25a20.26,20.26,0,0,1-15.25-6.42c-11.34-11.93-10.25-36.29-10.2-37.32a2.14,2.14,0,1,1,4.27.22h0c0,.23-1,23.57,9,34.16A16,16,0,0,0,717,462a2.14,2.14,0,1,1,0,4.27Z"/><path class="cls-10" d="M717.31,514.75h-.43a2.14,2.14,0,0,1,.26-4.27,3.41,3.41,0,0,0,2.49-1.07c2.64-2.36,7.66-10.69,11.56-39.9,2.25-16.88,3-32.63,3-32.79a2.14,2.14,0,0,1,4.28.21c0,.16-.79,16.08-3.07,33.15a205.7,205.7,0,0,1-4.74,25.26c-2.37,8.79-5.05,14.43-8.2,17.26A7.68,7.68,0,0,1,717.31,514.75Z"/><path class="cls-8" d="M221,355a30.18,30.18,0,0,0,1-7.8C222,335,214.92,325,206.16,325a11.41,11.41,0,0,0-3.73.63c-1.43-33.2-16-59.29-33.68-59.29-16.88,0-30.87,23.67-33.39,54.6-12.56,8.53-21.17,26-21.17,46.14a65.22,65.22,0,0,0,5.37,26.31c-11.66,7.18-19.08,18-19.08,30.12,0,21.62,23.64,39.14,52.79,39.14,21.82,0,40.55-9.82,48.59-23.82a30.36,30.36,0,0,0,6.9.8c19.84,0,35.92-19.52,35.92-43.61C244.68,377.17,234.82,361.1,221,355Z"/><path class="cls-9" d="M221,355s-34.95-13.6-61.59,10.37-45.17-13.84-36.28-31.4c-5.59,9-9,20.5-9,33.1a65.22,65.22,0,0,0,5.37,26.31c-11.66,7.18-19.08,18-19.08,30.12,0,21.62,23.64,39.14,52.79,39.14,21.82,0,40.55-9.82,48.59-23.82a30.36,30.36,0,0,0,6.9.8c19.84,0,35.92-19.52,35.92-43.61C244.68,377.17,234.82,361.1,221,355Z"/><path class="cls-10" d="M179.93,611.37c-1.38,0-2.49-.37-2.49-1.75V339.93a2.49,2.49,0,1,1,5,0V609.62C182.42,611,181.3,611.37,179.93,611.37Z"/><path class="cls-10" d="M179.93,435.72a23.6,23.6,0,0,1-17.76-7.48C149,414.36,150.23,386,150.29,384.8a2.49,2.49,0,0,1,5,.25h0c0,.27-1.22,27.44,10.51,39.76a18.56,18.56,0,0,0,14.15,5.93,2.49,2.49,0,0,1,0,5Z"/><path class="cls-10" d="M180.27,492.18h-.5a2.49,2.49,0,1,1,.31-5A4,4,0,0,0,183,486c3.07-2.76,8.91-12.46,13.45-46.46,2.62-19.66,3.52-38,3.53-38.17a2.49,2.49,0,1,1,5,.24c0,.18-.92,18.73-3.58,38.59a238.24,238.24,0,0,1-5.51,29.41c-2.76,10.23-5.88,16.8-9.55,20.09A8.9,8.9,0,0,1,180.27,492.18Z"/><path class="cls-8" d="M849.21,352.75a85,85,0,0,1-9.06-40.53c.75-33.62-9.35-80-34.18-80-29.88,0-32.25,58.57-22.93,91.54a15.32,15.32,0,0,1-6.49,17.2,2.56,2.56,0,0,1-.93.45c-7.53,0-13.63,8.19-13.63,18.28a23.84,23.84,0,0,0,.87,6.43c-11.86,5-20.34,18.24-20.34,33.77,0,19.83,13.82,35.91,30.86,35.91,13.67,0,25.26-10.34,29.31-24.67a28.21,28.21,0,0,0,18.78,7.5c18.31,0,33.14-19.06,33.14-42.57A51.33,51.33,0,0,0,849.21,352.75Z"/><path class="cls-9" d="M829.7,357.45C798.76,353.28,794.16,387,794.16,387c-36.66-16.68-52.94,9.49-52.94,9.49l-.91,7.82c.82,19,16.55,31.53,33.07,31.53,13.67,0,25.26-10.34,29.31-24.67a28.21,28.21,0,0,0,18.78,7.5c11,0,20.75-6.89,26.77-17.48C848.45,400.48,860.39,361.58,829.7,357.45Z"/><path class="cls-10" d="M804,617.13c-1.18,0-2.31.75-2.31-.43V385a2.14,2.14,0,1,1,4.27,0V616.7C806,617.88,805.19,617.13,804,617.13Z"/><path class="cls-10" d="M803.83,467.32c-6.6,0-12.26-3.89-16.83-11.56C783.56,450,780.71,442,778.53,432a211.85,211.85,0,0,1-4.21-34,2.14,2.14,0,1,1,4.27-.12,209.15,209.15,0,0,0,4.13,33.29c3.18,14.55,9.42,31.9,21.11,31.9a2.14,2.14,0,1,1,0,4.28Z"/><path class="cls-10" d="M804,515.82h-.33a2.14,2.14,0,1,1,.27-4.27,1.77,1.77,0,0,0,1.36-.66c2.66-2.55,7.43-13.14,9.35-55.32,1.11-24.32.7-47.48.69-47.71a2.14,2.14,0,0,1,4.28-.08c0,.24.42,23.53-.7,48a346.59,346.59,0,0,1-3.12,35.63c-1.85,12.11-4.32,19.5-7.55,22.59A6.06,6.06,0,0,1,804,515.82Z"/><g class="cls-11"><path class="cls-1" d="M819.57,418.58a37.08,37.08,0,0,1-.87-8.06c0-12.67,6.1-22.94,13.62-22.94a8.63,8.63,0,0,1,3.21.64c1.22-34.29,13.7-61.24,28.93-61.24,14.5,0,26.51,24.45,28.68,56.4,10.79,8.81,18.18,26.85,18.18,47.67a79.24,79.24,0,0,1-4.61,27.18c10,7.42,16.38,18.6,16.38,31.12,0,22.33-20.3,40.43-45.34,40.43-18.74,0-34.83-10.14-41.73-24.61a21.52,21.52,0,0,1-5.94.83c-17,0-30.85-20.17-30.85-45.05C799.23,441.46,807.7,424.86,819.57,418.58Z"/><path class="cls-1" d="M915.86,467.42a31.16,31.16,0,0,1-5.56-23.19,84.11,84.11,0,0,0,1-13.18c0-2.5-.11-5-.31-7.36-41.89,2.88-40.22,44.87-40.22,44.87s-34.65-14.59-46.2,6S836,505.17,836,505.17c6.9,14.47,23,24.61,41.73,24.61,25,0,45.34-18.1,45.34-40.43A37.16,37.16,0,0,0,915.86,467.42Z"/><path class="cls-1" d="M864,616.81c-1.19,0-2.14,0-2.14-1.18v-180a2.14,2.14,0,1,1,4.27,0v180C866.14,616.81,865.19,616.81,864,616.81Z"/><path class="cls-1" d="M864,495.7a20.28,20.28,0,0,1-15.26-6.42C837.41,477.35,838.5,453,838.55,452a2.14,2.14,0,1,1,4.27.22c0,.25-1,23.57,9,34.16A15.93,15.93,0,0,0,864,491.43a2.14,2.14,0,0,1,0,4.27Z"/><path class="cls-1" d="M865.72,565.67l-.43,0a2.14,2.14,0,0,1,.27-4.27,3.43,3.43,0,0,0,2.49-1.06c2.64-2.37,7.65-10.7,11.55-39.9,2.25-16.89,3-32.64,3-32.8a2.14,2.14,0,1,1,4.27.21c0,.16-.79,16.09-3.07,33.15a203.82,203.82,0,0,1-4.74,25.26c-2.36,8.79-5.05,14.44-8.2,17.26A7.65,7.65,0,0,1,865.72,565.67Z"/></g><path class="cls-9" d="M757.05,591.29c-28.06,9.53-79.71,34-139,17.39s-129.58-2.14-217.82,15.84l-1.3.25,489.77-.7C851,581.53,800.21,576.63,757.05,591.29Z"/><path class="cls-12" d="M223,117h4.8l0-.38-1.45-12.75a.81.81,0,0,0-.81-.72h-.15a1.29,1.29,0,0,0-.71.32,1.33,1.33,0,0,0-.42.82Z"/><path class="cls-13" d="M227.38,114.1h.17l-1.2-10.24a.81.81,0,0,0-.81-.72h-.15l-.13.12a1.23,1.23,0,0,0-.34.85l-.07,7.36A2.6,2.6,0,0,0,227.38,114.1Z"/><rect class="cls-12" x="219.99" y="173.74" width="9.25" height="407.14"/><rect class="cls-13" x="224.97" y="173.74" width="4.27" height="407.14"/><rect class="cls-12" x="209.88" y="515.91" width="29.46" height="107.72"/><rect class="cls-13" x="221.78" y="515.91" width="17.56" height="107.72"/><path class="cls-12" d="M208.51,123.13c0,5,7.58,9.11,16.93,9.11.72,0,1.42,0,2.11-.07,8.35-.56,14.82-4.39,14.82-9s-6.47-8.47-14.82-9c-.69,0-1.39-.07-2.11-.07C216.09,114,208.51,118.11,208.51,123.13Z"/><polygon class="cls-13" points="209.92 181.77 239.38 181.77 249.76 131.92 201.12 131.92 209.92 181.77"/><rect class="cls-12" x="198.49" y="128.16" width="53.9" height="4.78"/><path class="cls-12" d="M234.52,515.91H215.69l2.76-8.33a1.79,1.79,0,0,1,1.71-1.23H229a2.37,2.37,0,0,1,2.19,1.45Z"/><path class="cls-13" d="M217.17,122.7h.12c.3-3.87,4.44-7.16,10.26-8.6,8.09.54,14.41,4.15,14.8,8.6h2.75l3.85,5.46h3.44v4.78H218.51v-4.78h-5Z"/><polygon class="cls-14" points="246.28 134.35 204.74 134.35 212.85 179.16 236.71 179.16 246.28 134.35"/><path class="cls-14" d="M241.25,123.67s-3.16-6.89-9.41-6.68c0,0,4,3.53,3.61,6.68S241.25,123.67,241.25,123.67Z"/><polygon class="cls-12" points="201.94 128.16 248.95 128.16 245.1 122.7 205.59 122.7 201.94 128.16"/><polygon class="cls-15" points="243.52 135.91 234 135.91 231.23 177.76 234 177.76 243.52 135.91"/><polygon class="cls-12" points="626.56 624.17 692.13 624.17 702.03 501.46 616.66 501.46 626.56 624.17"/><path class="cls-13" d="M685.53,617h0a1.33,1.33,0,0,0,1.32-1.32V510.41a1.33,1.33,0,0,0-1.32-1.32h0a1.33,1.33,0,0,0-1.32,1.32V615.64A1.33,1.33,0,0,0,685.53,617Z"/><path class="cls-13" d="M678.44,617h0a1.33,1.33,0,0,0,1.32-1.32V510.41a1.33,1.33,0,0,0-1.32-1.32h0a1.33,1.33,0,0,0-1.32,1.32V615.64A1.33,1.33,0,0,0,678.44,617Z"/><path class="cls-13" d="M671.34,617h0a1.33,1.33,0,0,0,1.32-1.32V510.41a1.33,1.33,0,0,0-1.32-1.32h0a1.33,1.33,0,0,0-1.32,1.32V615.64A1.33,1.33,0,0,0,671.34,617Z"/><path class="cls-13" d="M664.25,617h0a1.33,1.33,0,0,0,1.32-1.32V510.41a1.33,1.33,0,0,0-1.32-1.32h0a1.33,1.33,0,0,0-1.32,1.32V615.64A1.33,1.33,0,0,0,664.25,617Z"/><path class="cls-13" d="M657.15,617h0a1.33,1.33,0,0,0,1.32-1.32V510.41a1.33,1.33,0,0,0-1.32-1.32h0a1.33,1.33,0,0,0-1.32,1.32V615.64A1.33,1.33,0,0,0,657.15,617Z"/><path class="cls-13" d="M650.06,617h0a1.33,1.33,0,0,0,1.32-1.32V510.41a1.33,1.33,0,0,0-1.32-1.32h0a1.33,1.33,0,0,0-1.32,1.32V615.64A1.33,1.33,0,0,0,650.06,617Z"/><path class="cls-13" d="M643,617h0a1.33,1.33,0,0,0,1.32-1.32V510.41a1.33,1.33,0,0,0-1.32-1.32h0a1.33,1.33,0,0,0-1.32,1.32V615.64A1.33,1.33,0,0,0,643,617Z"/><path class="cls-13" d="M635.87,617h0a1.33,1.33,0,0,0,1.32-1.32V510.41a1.33,1.33,0,0,0-1.32-1.32h0a1.33,1.33,0,0,0-1.32,1.32V615.64A1.33,1.33,0,0,0,635.87,617Z"/><path class="cls-16" d="M569.1,624.17H579V558.25a45.35,45.35,0,0,1,90.69,0v65.92h9.89V558.25a55.24,55.24,0,0,0-110.48,0Z"/><path class="cls-16" d="M285,547.14a5,5,0,0,0,4.95-4.95V418.68a4.95,4.95,0,0,0-9.9,0V542.19A5,5,0,0,0,285,547.14Z"/><path class="cls-16" d="M590.05,547.14a5,5,0,0,0,5-4.95V418.68a4.95,4.95,0,1,0-9.89,0V542.19A5,5,0,0,0,590.05,547.14Z"/><rect class="cls-17" x="258.41" y="496.85" width="364.65" height="30.49" rx="11.29" transform="translate(881.47 1024.18) rotate(-180)"/><path class="cls-17" d="M275.87,548.39H666.63a6.2,6.2,0,0,0,6.2-6.2h0a6.19,6.19,0,0,0-6.2-6.2H275.87Z"/><rect class="cls-17" x="255.89" y="460.88" width="364.65" height="30.49" rx="11.29" transform="translate(876.44 952.26) rotate(180)"/><rect class="cls-17" x="252.5" y="423.62" width="364.65" height="30.49" rx="11.29" transform="translate(869.66 877.73) rotate(180)"/><path class="cls-16" d="M270.66,624.17h9.9V558.25a45.35,45.35,0,0,1,90.69,0v65.92h9.89V558.25a55.24,55.24,0,0,0-110.48,0Z"/><path class="cls-8" d="M350.2,611.26c-48.21,15-98.85-3.11-191.54-17.61S29,624.81,29,624.81l450.69,0C465.72,610.83,398.41,596.24,350.2,611.26Z"/><path class="cls-18" d="M511.93,615.23c0,1.86-5.89,5.57-12.58,7.59-1,.3-1.93.55-2.9.76-3.69.79-7.41.94-10.35-.11a3.08,3.08,0,0,1-.47-.19,8.05,8.05,0,0,1-3.9-3.22c.11-.85.22-1.71.31-2.57,2.26-20.34,1.15-44.16.32-61.7,0-.7-.07-1.39-.1-2.06-.11-2.55-.23-5-.32-7.15,0-.27,0-.53,0-.79-.1-2.29-.16-4.36-.19-6.19-.07-5.31-5.81-17.22-35-24.1l-.72-.17c5.81-8.63,33.44-8,50.7-6.72,8.23.63,14.11,1.4,14.11,1.41C516.62,520.82,512,606.33,511.93,615.23Z"/><path class="cls-19" d="M499.35,622.82c-1,.3-1.93.55-2.9.76-3.69.79-7.41.94-10.35-.11a3.08,3.08,0,0,1-.47-.19c-1.26-1.89-2.48-3.82-3.59-5.79,2.26-20.34,1.15-44.16.32-61.7,0-.7-.07-1.39-.1-2.06-.11-2.55-.23-5-.32-7.15,5.08,15.75,11.47,45.56,12.52,49.14A146.15,146.15,0,0,1,499.35,622.82Z"/><path class="cls-18" d="M446.76,515.5c-.45-.06-.7-.12-.72-.17.1,1.14,27.73,13.33,32.28,21.84.47.89,2,7.37,3.94,16.56,3.59,16.7,8.76,42.35,12.14,59.46l2.05,10.39c1.12,5.71,1.76,6.43,1.39,7.38-1,2.6-7.44,4.45-33.25-.26-16.46-47-20.36-64.05-20.15-69.86,0-1.36,1.2-8.53-3.22-10.6-1.07-.5-2.55-1.12-4.34-1.83-9.5-3.83-27.74-10.37-39.7-15.84-5.42-2.48-9.56-4.74-11-6.43-4.6-5.39-6-11.59-5.81-18,.27-10.05,4.3-20.58,5.42-29.15.15-1.14,19.63,4.3,37.86,3,7.71-.55,15.2-2.33,20.9-6.33.59-.42.5.71,1.75,2.19,14.27,3.16,54.9,19.21,64.56,32.18-2.38,1.57-6.24,2.77-10.92,3.66C481.92,517.14,451.77,516.15,446.76,515.5Z"/><path class="cls-19" d="M445,548.31a9.13,9.13,0,0,0-.82,2.9,15.55,15.55,0,0,0,.56,3.69,15.67,15.67,0,0,1-.27,5.94c-1.85-6.42-3.09-10.53-3.22-10.6-1.07-.5-2.55-1.12-4.34-1.83a79.39,79.39,0,0,1,10.06-4.93Z"/><path class="cls-19" d="M510.85,510c-9.66-13-50.29-29-64.56-32.18-1.25-1.48-1.16-2.61-1.75-2.19-5.7,4-13.19,5.78-20.9,6.33-15.22,7.45-29.89,15.86-43.28,26.18-.15,6.39,1.21,12.59,5.81,18,1.45,1.69,5.59,4,11,6.43l.13-.06a282,282,0,0,0,24.8-14.79c1.68-1.12,28.63,25.58,30.28,24.42,2.47-1.72,11.87-4.45,10.73-10.16-2.42-12-18.69-30.72-13.89-34.84,2.41-2.08,4.9-4.25,8-5.13s6.23-.38,9.31.26a78.07,78.07,0,0,1,11.12,3.11c3.61,1.33,8.61,18.56,11.81,20.68s4.86-10.61,7.31-7.45a33,33,0,0,1,3.19,5.07,27.63,27.63,0,0,1,1.81,4.68,43.78,43.78,0,0,1,1.35,9,146,146,0,0,1,3,17.74c1.46,12.61,3.82,25.64,3.13,38.35-.55,10.15-.81,20.91-5.05,30.34a25.27,25.27,0,0,1-7.73,9.8c7.79-1.68,15.47-6.23,15.47-8.35C512,606.33,516.62,520.82,510.85,510Z"/><path class="cls-20" d="M395.28,457.41h6.32V505c12.49-6.69,25.24-12.86,37.95-19.1q7-3.45,13.93-7V410.81h4.08c-1.18-9.21-4.1-23-10.38-30-12.29-13.7-21.62-8.41-32.94-6.74-6.56,1-33.7,11.36-38,18.56-3.25,5.45-3.83,10.55-2.88,19.63h21.9Z"/><polygon class="cls-21" points="414.29 425.53 421.1 443.38 430.31 423.45 422.52 389.2 417.49 389.51 414.29 425.53"/><path class="cls-22" d="M421.78,382.81,415.67,384l-1.38,6s1.11,3.89,6.67,2.78c3.39-.69,4.47-5.69,4.47-5.69Z"/><path class="cls-23" d="M410.82,383.86c-4.11-.95-7.85-3-8.94-5.38-1.22-2.65-.37-11.68-.37-11.68L426,365.23s-.19,9.59-.57,12.65C424.92,381.59,417,385.3,410.82,383.86Z"/><g class="cls-24"><path class="cls-25" d="M401.51,366.8s0,.32-.07.85c5.27,5.7,14.9,6,17.88,12a5.85,5.85,0,0,1,.61,3.3c3-1.21,5.21-3.13,5.45-5.05.39-3.06.57-12.65.57-12.65Z"/></g><path class="cls-26" d="M436.18,386.91c-.09,6.9,1.25,50.77,6.84,69.3.24.79.48,1.54.74,2.23a25.77,25.77,0,0,0,9.76,13c2.17,1.46,3.77,2.91,4.8,3.57.58.38.93.58.93.58h.18c2.3-.14,3.25-1.28,3.62-2.77.56-2.32,1.95-3.3,2.55-5.13.7-2.17,1.59-58.73-7.72-83.82-2.22-5.94-6.6-9.46-9.6-10.38C437.66,370.21,436.28,380,436.18,386.91Z"/><path class="cls-27" d="M458.74,480.16a128.82,128.82,0,0,1-19.27,16.65c-3.4,2.41-6.82,4.58-10.2,6.55a136.23,136.23,0,0,1-20.2,9.68c-16.1,6.13-28.24,7-28.71,4.53A197.15,197.15,0,0,1,378.71,494c-.08-7.31.22-13.06.36-16.66,1.09-27.29-6.68-39.54-9.42-57.85,0-.31-.09-.62-.13-.94a118,118,0,0,1-1.33-13.9h0a29.59,29.59,0,0,1,1.22-9.75c.08-.26.17-.51.27-.77a19.09,19.09,0,0,1,1.44-3c.74-1.23,3-2.45,6.1-3.82l.38-.18c6.42-2.84,15.89-6.33,21.24-11.68.29.71-1.26,1.78-1.51,3.36a17.59,17.59,0,0,0,.71,7.58c3.27,7.78,15,45.54,23.93,50.66a4.77,4.77,0,0,0,1,.45c7,2.12,11.64-49.41,11.76-54.12,0-2-1.47-5-3.08-7.52-1.71-2.75-3.51-5-3.54-5.13,2.54.63,9.45,1.39,15.36,3.16,3.44,1,6.54,2.4,8.22,4.27,8.37,9.32,6.92,34.36,7.18,40.89.16,4.16-1.85,10-2.21,16.84-.29,5.94-.62,12.65-.76,19.75C455.73,464.77,457.65,470.59,458.74,480.16Z"/><path class="cls-28" d="M424.59,472.28a5.56,5.56,0,0,1,2.52-4.36c1.39-.8,2.51-.15,2.51,1.45a5.55,5.55,0,0,1-2.51,4.36C425.72,474.53,424.59,473.88,424.59,472.28Z"/><path class="cls-29" d="M458.74,480.16a128.82,128.82,0,0,1-19.27,16.65c-3.4,2.41-6.82,4.58-10.2,6.55,6.24-5.52,12.15-11.41,18.05-17.28,2.53-2.51,5.18-5.28,5.74-8.8.83-5.28-3.29-9.94-7.24-13.54a7.89,7.89,0,0,1-2.09-2.45c-1.3-2.77.78-5.84,2.43-8.41,7.52-11.75,7.26-26.68,6.75-40.63-.18-4.92-.37-9.88-1.65-14.62a64.91,64.91,0,0,0-5.2-12.35,26.51,26.51,0,0,0-4.52-7,9,9,0,0,0-7.5-2.9l-2.4.47c-1.71-2.75-3.51-5-3.54-5.13,2.54.63,9.45,1.39,15.36,3.16,3.44,1,6.54,2.4,8.22,4.27,8.37,9.32,6.92,34.36,7.18,40.89.16,4.16-1.85,10-2.21,16.84-.29,5.94-.62,12.65-.76,19.75C455.73,464.77,457.65,470.59,458.74,480.16Z"/><path class="cls-19" d="M439.47,496.81A138.7,138.7,0,0,1,409.07,513c-11.35-3.75-21.14-11.14-30.36-19-.08-7.31.22-13.06.36-16.66,1.09-27.29-6.68-39.54-9.42-57.85,0-.31-.09-.62-.13-.94a118,118,0,0,1-1.33-13.9h0c.31-1.77.63-3.53.95-5.3.24-1.33.34-3.25.54-5.22a19.09,19.09,0,0,1,1.44-3c.74-1.23,3-2.45,6.1-3.82l.38-.18a28.4,28.4,0,0,1,8.18,7.46c2.74,4.13,4.26,8.94,5.7,13.68,5.07,16.65,9.8,33.73,9.31,51.14a10.6,10.6,0,0,0,.32,3.81C401.49,464.28,432.87,490.13,439.47,496.81Z"/><path class="cls-4" d="M423.31,380.67a6.76,6.76,0,0,0,2.3-4.32,30.62,30.62,0,0,0-.18-5.94s.38,0,2.33.3L429.9,373h2.15v5.81h2.14c-.25,1.84-.55,3.68-.92,5.51-.52,2.55,0,5.49-1.26,7.8-.53-.31-12.22-8.4-13.34-8.75C420.17,382.55,422.13,381.91,423.31,380.67Z"/><path class="cls-28" d="M432.28,372.86C436.56,376.07,446,388.2,446,388.2l-7.61,7.59,5.6,6.91-18.31,58.49s-3.81-26-3.6-26.5c1.9-4.64,10.48-43.08,9.49-55.13-1.23-5.88-7.54-11.23-7.54-11.23S430.61,371.61,432.28,372.86Z"/><path class="cls-4" d="M397.89,378.1c.1-.28.49-3.47.59-3.75a31.57,31.57,0,0,1,2.79-3.88,15.94,15.94,0,0,0,1.78,4.33,18,18,0,0,0,3.23,3.41,25.31,25.31,0,0,0,5.91,3.71,15,15,0,0,0,6.48,1.44c-.09.09-10.28,12.22-10.39,12C407.54,394.1,396.1,382.93,397.89,378.1Z"/><path class="cls-28" d="M395.87,396.13l-10.09-8.75s14.39-15.75,15.53-17c-.71,1.28-1.33,6.13-.09,10.85,6.56,24.79,20.34,53,21.56,54.85,1.18,8.37,2.94,15.42,2.94,25.08C424.6,455.74,393,401,393,401Z"/><path class="cls-25" d="M430.5,371.8c-3.18,2.54-7.47,3.26-11.89,2.75a31.05,31.05,0,0,1-15.68-6.71c-4-3.33-11.19-17-12.53-22.61-.22-1-.4-1.86-.52-2.74-2.13-15.41,11.8-19.15,22.38-27.34,11.18-8.7,25.32-6.37,26.76,11.81S440.23,364.05,430.5,371.8Z"/><path class="cls-30" d="M439,327c-1.44-18.18-15.58-20.51-26.76-11.81-10.58,8.19-24.51,11.93-22.38,27.34a19.09,19.09,0,0,0,5.43,2.58,12.58,12.58,0,0,0,5.43.22c1.82-5.62,3.28-11.34,5.44-16.83,2.11-5.33,6.3-5.42,11.48-4.89,4.22.43,8.44,1,12.65,1.5,2.1.26,4.77.36,6.34,2l.23.27a.58.58,0,0,1,.21.07,1.56,1.56,0,0,1,.65,1.1,46.09,46.09,0,0,1,1.21,8,4,4,0,0,1-.21,1.92,3.74,3.74,0,0,1-2.75,1.69c-3.38.75-6.88.52-10.34.65a48.9,48.9,0,0,0-17.43,3.94c-.23,3.35,2,5,5.11,6.1a10.73,10.73,0,0,0,9.56-1.51c1.85-1.28,3.62-3.14,5.86-3s4.59,4,6.87,3.48a23.89,23.89,0,0,1-7.05,21.13,10.39,10.39,0,0,1-5,2.88c-1.57.29-3.27,0-4.72.69l-.2.1c4.42.51,8.71-.21,11.89-2.75C440.23,364.05,440.47,345.15,439,327Z"/><path class="cls-18" d="M438.34,326.14c-1,0,.54-7.16-12.39-2.61-9.12,3.2-15.26-3.76-17.76-.31-2.21,3-2.8,9.18-2,14.44.38,2.52-2.67,8.66-4,8.27-2.25-.69,1.83,2.38.82,4.08-2.71,4.51-1.82,14.47-1,16.95a34.68,34.68,0,0,1-8.92-9.1c-.36-.55-.71-1.1-1.05-1.66a27,27,0,0,1-4.14-5.46c-2.48-4.36-4.85-8.72-6.16-13.72-6.14-23.37,12-26.55,12-26.55s13.5-18.51,32.77-8.55C442.69,310.27,440.05,326.14,438.34,326.14Z"/><path class="cls-25" d="M408.19,354.44c-2.18,1.71-6.21.22-9-3.33s-3.26-7.82-1.07-9.53,6.21-.22,9,3.33S410.38,352.72,408.19,354.44Z"/><path class="cls-31" d="M405.52,351c-1,.81-2.91.11-4.21-1.56s-1.53-3.66-.51-4.46,2.92-.11,4.22,1.55S406.55,350.22,405.52,351Z"/><path class="cls-18" d="M443.78,341.05a23.74,23.74,0,0,0-.67-3.23,4.49,4.49,0,0,0-.73-1.64c-1.08-1.37-3.16-1.24-4.9-1l-12,1.73a41.91,41.91,0,0,1-5.91.56c-3.42,0-6.89-.89-10.24-.18a2.45,2.45,0,0,0-1.22.53c-1.12,1.06-1.08,6.89-1.08,7.06,0,3.44,4,6.23,9,6.23,3.92,0,7.25-1.73,8.49-4.15a10.12,10.12,0,0,1,1.75-2,3.26,3.26,0,0,1,3.63-.05,5.43,5.43,0,0,1,.84.75,7.29,7.29,0,0,0,5.92,2.87,6.85,6.85,0,0,0,6.92-5.17s0,0,0-.05A4.74,4.74,0,0,0,443.78,341.05Z"/><path class="cls-32" d="M413.21,341.08c-.34,1.31-1.33,2.19-2.22,2s-1.32-1.48-1-2.79,1.33-2.19,2.21-2S413.55,339.77,413.21,341.08Z"/><path class="cls-18" d="M424.05,521a3.06,3.06,0,1,1,3.06,3.06A3.06,3.06,0,0,1,424.05,521Z"/><path class="cls-28" d="M454.84,322.52c1.13,12.45-15.9,23.26-38.06,24.15s-41-8.49-42.14-20.94a14.44,14.44,0,0,1,3.5-10.47c4.59-5.81,13.38-10.42,24.29-12.5a68.12,68.12,0,0,1,10.27-1.19C434.86,300.69,453.72,310.06,454.84,322.52Z"/><path class="cls-33" d="M454.72,321.06c1.13,12.46-15.93,23.28-38.06,24.16s-41-8.49-42.17-21a12.91,12.91,0,0,1,1-6.28,16.35,16.35,0,0,1,2.47-4.17c3.24-4.06,8.5-7.56,15.1-10a59.15,59.15,0,0,1,9.21-2.54,66.85,66.85,0,0,1,10.28-1.19C434.72,299.22,453.59,308.6,454.72,321.06Z"/><path class="cls-28" d="M441.68,311.14h0c.09-.15-4.93-21.36-8.19-23.3-4.74-2.83-11.63,1.3-21.13,4.57-12,4.14-17.45-1.62-22.09,4.84s-2.1,21.81-2.07,21.83c.39.33.08,1,.19,1.54,1.81,8.24,15.24,12.92,30,10.45s25.24-11.15,23.44-19.39C441.81,311.49,441.58,311.29,441.68,311.14Z"/><path class="cls-33" d="M395.35,461a0,0,0,0,1,0,0c0,.08,0,.15,0,.23-.07.82-.15,1.61-.23,2.4-.11,1.15-.25,2.26-.39,3.32-.11.9-.23,1.76-.37,2.58A78.56,78.56,0,0,1,391.77,481c-.61,1.84.23,5-.33,7.36-.37,1.5-1.32,2.62-3.62,2.77l-.18,0s-.35-.21-.93-.59c-.84-.54-2.07-1.61-3.68-2.77-.36-.27-.73-.54-1.12-.8l-1.08-.79-.19-.14a24.84,24.84,0,0,1-4.3-4.27,26.29,26.29,0,0,1-4.19-7.78c-.26-.68-.5-1.43-.74-2.22-5.59-18.53-6.94-62.4-6.84-69.29s2.89-9.68,8.89-13.36l.66-.42a1.51,1.51,0,0,1,.69-.11,5.77,5.77,0,0,1,1.86.43,17.66,17.66,0,0,1,9.59,10.38C395.58,424.54,396.56,446.17,395.35,461Z"/><path class="cls-23" d="M428.44,512.39l-1.33-3.12a10,10,0,0,1,2.3-2.14c4.11-2.72,8.73-.85,12.68,1.35A9.3,9.3,0,0,0,444,509.9c.77.21,3.83,1.31,4.33,1.56,3.2,1.7,5.77,4.47,9,6.24.95.49,4.26,1.74,4.6,2.9a.91.91,0,0,1-.33.76c-2.4,2.8-5.56.7-8-1.06.95,1.08,2,2.11,3,3.2s7.32,7.46,5.73,8.83c-.79.64-1.95-.33-2.56-.79a75.56,75.56,0,0,1-7.63-7c2,2.24,3.93,4.35,5.83,6.52.89,1,4.18,5.11,2.6,6.41a1.3,1.3,0,0,1-1.58-.09,38.45,38.45,0,0,1-5.75-6c1.05,1.42,2.1,2.85,3.14,4.34.53.65,1.39,2,.7,2.91-.78,1.18-2.19.11-2.86-.48a64.06,64.06,0,0,1-7.05-8.1c.78,2.06,4.17,6.49,4.51,8.37a.07.07,0,0,1,.06.08c.15.54,0,.79-.6.73a3,3,0,0,1-1.81-1c-3.14-2.95-5-4.66-8.17-7.55a36,36,0,0,1-4.14-4.84c-1.28-1.77-2.33-3.13-3.69-4.79a53.93,53.93,0,0,1-3.12-4.54Z"/><path class="cls-20" d="M431.88,520.6a.71.71,0,0,0,.47-.18,46.43,46.43,0,0,0,10.56-9.66,1.24,1.24,0,0,0,.32-.62,15,15,0,0,0,.45-1.5c-.09-.48-4.49-3-6.34-3.66.22.07-4.34,8.23-4.79,8.87a18.78,18.78,0,0,1-1.37,1.72c-.44.49-1.33,1.06-1.52,1.71C429.41,518.13,431,520.49,431.88,520.6Z"/><path class="cls-33" d="M441.85,506.13c.15.12-1.41,2.1-3.48,4.55-1.86,2.21-4.13,4.82-5.9,6.77a17.83,17.83,0,0,1-2.94,2.92l-41.71-29.2L383,487.83l-.57-.41-.55-.39-1.08-.79-.19-.14-1.07-.77a14.41,14.41,0,0,1-1.69-1.53l0,0a12.94,12.94,0,0,1-2.41-3.63,13.34,13.34,0,0,1,1.32-13.34l.16-.21a13,13,0,0,1,12.65-5,15.17,15.17,0,0,1,3.8,1.13l.13.06a16.57,16.57,0,0,1,1.61.86c.2.11.39.24.58.36l1.29.88C417,478.68,441.85,506.13,441.85,506.13Z"/><path class="cls-23" d="M482.52,480.86l-3-1.29a9.47,9.47,0,0,0-2.06,2.22c-2.63,3.94-.83,8.38,1.27,12.19a9.26,9.26,0,0,1,1.36,1.85c.2.74,1.25,3.69,1.49,4.17,1.63,3.08,4.28,5.55,6,8.63.47.9,1.66,4.09,2.78,4.43a.9.9,0,0,0,.73-.33c2.69-2.29.68-5.34-1-7.71,1,.91,2,1.9,3.08,2.88s7.16,7.05,8.47,5.52c.62-.76-.31-1.87-.75-2.46a73.11,73.11,0,0,0-6.74-7.35c2.15,1.89,4.17,3.79,6.26,5.62,1,.85,4.89,4,6.14,2.51a1.22,1.22,0,0,0-.08-1.52,35.85,35.85,0,0,0-5.74-5.53c1.36,1,2.73,2,4.16,3,.62.51,1.91,1.34,2.8.68,1.13-.74.11-2.1-.46-2.75a60.75,60.75,0,0,0-7.77-6.8c2,.76,6.23,4,8,4.36,0,0,0,.07.07.06.52.14.76,0,.71-.58a2.89,2.89,0,0,0-1-1.74c-2.83-3-4.47-4.84-7.24-7.87a33.92,33.92,0,0,0-4.64-4c-1.7-1.23-3-2.25-4.6-3.56a52.52,52.52,0,0,0-4.35-3Z"/><path class="cls-20" d="M490.41,484.19a.72.72,0,0,1-.17.45,44.85,44.85,0,0,1-9.31,10.13,1.11,1.11,0,0,1-.6.3,13.79,13.79,0,0,1-1.44.43c-.47-.09-2.9-4.32-3.51-6.1.08.21,7.93-4.15,8.54-4.59a17.36,17.36,0,0,0,1.66-1.31c.47-.42,1-1.28,1.65-1.46C488,481.81,490.31,483.36,490.41,484.19Z"/><path class="cls-26" d="M490.19,481.93a17.39,17.39,0,0,1-2.81,2.81c-3.95,3.58-10.69,9.28-10.9,9,0,0-8.54-7.78-18.33-18-1.08-7.12-2.4-12.44-2.26-20.09.07-3.4.18-6.72.31-9.9,1.29-2.3,2.7-4.56,4-6.86l2,2.91Z"/><path class="cls-19" d="M441.85,506.13c.15.12-1.41,2.1-3.48,4.55a5.43,5.43,0,0,1-.8-1c-10.14-15.65-25.35-27.22-40.45-38.18-.88-.64-1.81-1.29-2.78-1.89-2.74-1.69-5.75-2.89-8.75-2.06.48-2.36,2.37-4,4-5.89a14.17,14.17,0,0,0,1.44-2c1.61-2.77,1.56-6.17,1.28-9.37-.39-4.44-1.13-8.85-1.87-13.24q-1.46-8.49-2.89-17c-1.31-7.77-2.66-15.63-5.82-22.83-1.48-3.38-3.81-6.85-6.89-8.57a5.77,5.77,0,0,1,1.86.43,17.66,17.66,0,0,1,9.59,10.38c9.32,25.08,10.3,46.71,9.09,61.57a0,0,0,0,1,0,0c0,.08,0,.15,0,.23-.07.82-.15,1.61-.23,2.4.2.11.39.24.58.36l1.29.88C417,478.68,441.85,506.13,441.85,506.13Z"/><path class="cls-34" d="M488.73,312.35l44.71-46.74c-25.19-31.13-31.35-72.62-15.62-106.75C535,121.58,571,109,577.7,106.79l353.23-.55L932.67,316c-40.26,16.33-250,97.84-361,0a167.79,167.79,0,0,1-22.57-24.3Z"/><rect class="cls-35" x="25.41" y="106.24" width="905.52" height="523.88"/><path class="cls-36" d="M559.41,434.2c8.91,12.26,25.18,23.91,109.27,28.34,90.93,4.78,136.4,7.17,163.16-17.36,29.64-27.16,46.34-78.74,27.77-112.83-24.46-44.9-99.33-39.6-154.81-35.68-48.41,3.43-124.08,8.78-148.95,60C544.76,379.5,543.43,412.21,559.41,434.2Z"/><text class="cls-37" transform="translate(572.21 168.21)">hallo agen, ini adalah<tspan x="0" y="29.16">sesi terakhir untuk misi</tspan><tspan x="0" y="58.32">percabangan. misi ini</tspan><tspan x="0" y="87.48">akan disebut sebagai</tspan><tspan x="0" y="116.64">percabangan bersarang</tspan></text><path class="cls-38" d="M594.19,449.6c-26.19,15.79-32.48,30.08-34.71,38.19-7.84,28.5,13.73,56.11,17.35,60.75,42.6,54.53,142.47,48,204.83,27.77,22.39-7.25,88.83-28.78,90.26-64.22,1.44-35.83-64.5-62.77-85.06-71.17C717.59,412.63,643.66,419.78,594.19,449.6Z"/><text class="cls-39" transform="translate(585.12 349.56)">percabangan bersarang<tspan x="0" y="22.68">adalah percabangan</tspan><tspan x="0" y="45.36">yang ada di dalam</tspan><tspan x="0" y="68.04">percabangan</tspan></text><text class="cls-39" transform="translate(602.21 490.51)">intinya, ada <tspan x="0" y="22.68">percabangan setelah </tspan><tspan x="0" y="45.36">kondisi percabangan</tspan><tspan x="0" y="68.04">pertama terpenuhi</tspan></text><path d="M1191.74,104.37h-.13c-.43,0-.88,0-1.32,0H989.9c-.45,0-.91,0-1.35,0h-.21a27.38,27.38,0,0,0-25.82,27.33V612.34a27.49,27.49,0,0,0,25.21,27.29c.21,0,.44,0,.66,0h.08c.47,0,.95,0,1.43,0h200.39q.7,0,1.41,0h.08c.24,0,.47,0,.7,0a27.49,27.49,0,0,0,25.18-27.29V131.7A27.36,27.36,0,0,0,1191.74,104.37Zm18.62,508a20.16,20.16,0,0,1-18.46,20l-.29,0h-.31c-.33,0-.68,0-1,0H989.9c-.35,0-.7,0-1,0h-.28l-.28,0a20.17,20.17,0,0,1-18.48-20V131.7a20.08,20.08,0,0,1,18.75-20h.18l.27,0,.88,0h200.39l.9,0h.17a20.06,20.06,0,0,1,19,20Z"/><path d="M1158.22,111.63v2.62a16,16,0,0,1-16,16h-104.3a16,16,0,0,1-16-16v-2.62Z"/><path d="M1158.22,111.63v1.73c0,5.83-7.15,10.55-16,10.55h-104.3c-8.82,0-16-4.72-16-10.55v-1.73Z"/><rect class="cls-40" x="1073.26" y="113.79" width="31.98" height="3.36" rx="1.68"/><path id="SVGID-3" data-name="SVGID" class="cls-2" d="M1191.61,111.64h-.18l-.27,0h-29.8a3.34,3.34,0,0,0-3.15,3c0,.11,0,.23,0,.34v0a16,16,0,0,1-16,15.21H1037.93A16,16,0,0,1,1022,115v0c0-.11,0-.23,0-.34a3.34,3.34,0,0,0-3.16-3H989l-.28,0h-.18a20.08,20.08,0,0,0-18.74,20V612.34a20.17,20.17,0,0,0,18.48,20l.27,0h.29c.34,0,.69,0,1,0h200.39c.35,0,.69,0,1,0h.29l.27,0a20.17,20.17,0,0,0,18.48-20V131.67A20.08,20.08,0,0,0,1191.61,111.64Z"/><g class="cls-41"><rect class="cls-42" x="969.46" y="109.52" width="244.2" height="58.65"/></g><line class="cls-43" x1="991.83" y1="142.14" x2="1017.71" y2="142.14"/><path class="cls-4" d="M1005.5,151.74a1,1,0,0,0-.3-1.38l-12.91-8.22,12.91-8.22a1,1,0,0,0-1.08-1.68l-14.23,9.06a1,1,0,0,0-.46.84,1,1,0,0,0,.46.85l14.23,9.06a1.06,1.06,0,0,0,.54.16A1,1,0,0,0,1005.5,151.74Z"/><text class="cls-44" transform="translate(1029.93 147.93)">mang nasgor</text><rect class="cls-4" x="973.01" y="581.86" width="189.2" height="42.43" rx="21.21"/><circle class="cls-42" cx="1186.46" cy="603" r="20.25"/><text class="cls-45" transform="translate(1178.55 158.54) rotate(-90)">...</text><path class="cls-42" d="M1191,198.61h-93.83c-4.47,0-8.09-4.26-8.09-9.52s3.62-9.52,8.09-9.52H1191a7.88,7.88,0,0,1,5.31,2.34c1.81,1.91,2.21,4.38,2.78,7.18a137.64,137.64,0,0,0,3.46,13.57l-5.06-5.24a12,12,0,0,1-2.63,1A11.36,11.36,0,0,1,1191,198.61Z"/><text class="cls-46" transform="translate(1094.65 192.9)">nasi goreng masih?</text><path class="cls-42" d="M1190,256.47H1096.2c-4.47,0-8.09-4.26-8.09-9.52s3.62-9.52,8.09-9.52H1190a7.88,7.88,0,0,1,5.31,2.34c1.82,1.91,2.22,4.38,2.78,7.18.65,3.21,1.7,7.81,3.46,13.57l-5-5.24a12.07,12.07,0,0,1-2.63,1A11.46,11.46,0,0,1,1190,256.47Z"/><text class="cls-46" transform="translate(1093.68 250.76)">Ya</text><path class="cls-42" d="M1190.67,305.33h-93.83c-4.47,0-8.09-4.26-8.09-9.52s3.62-9.52,8.09-9.52h93.83a7.86,7.86,0,0,1,5.31,2.33c1.81,1.92,2.21,4.38,2.77,7.19.65,3.2,1.7,7.81,3.46,13.56l-5-5.23a12.07,12.07,0,0,1-2.63.95A11.68,11.68,0,0,1,1190.67,305.33Z"/><text class="cls-46" transform="translate(1094.33 299.61)">Ya</text><path class="cls-42" d="M1190,347.76H1096.2c-4.47,0-8.09-4.27-8.09-9.52s3.62-9.53,8.09-9.53H1190a7.93,7.93,0,0,1,5.31,2.34c1.82,1.91,2.22,4.38,2.78,7.19.65,3.2,1.7,7.81,3.46,13.56l-5-5.23a12.07,12.07,0,0,1-2.63.95A11.72,11.72,0,0,1,1190,347.76Z"/><text class="cls-46" transform="translate(1093.68 342.04)">Ga</text><path class="cls-47" d="M992.62,230.44h93.83c4.46,0,8.09-4.27,8.09-9.53s-3.63-9.52-8.09-9.52H992.62a7.93,7.93,0,0,0-5.31,2.34c-1.82,1.91-2.21,4.38-2.78,7.18a139.84,139.84,0,0,1-3.46,13.57l5.06-5.23a12.4,12.4,0,0,0,2.63.95A11.65,11.65,0,0,0,992.62,230.44Z"/><text class="cls-46" transform="translate(993.65 224.72)">masih, mau beli?</text><path class="cls-47" d="M992.62,283.15h93.83c4.46,0,8.09-4.26,8.09-9.52s-3.63-9.52-8.09-9.52H992.62a7.88,7.88,0,0,0-5.31,2.34c-1.82,1.91-2.21,4.37-2.78,7.18-.64,3.2-1.7,7.81-3.46,13.57,1.69-1.75,3.37-3.5,5.06-5.24a11.88,11.88,0,0,0,2.63,1A11.39,11.39,0,0,0,992.62,283.15Z"/><text class="cls-46" transform="translate(993.65 277.44)">pedes?</text><path class="cls-47" d="M992,327.51h93.82c4.47,0,8.09-4.27,8.09-9.52s-3.62-9.53-8.09-9.53H992a7.93,7.93,0,0,0-5.31,2.34c-1.82,1.91-2.22,4.38-2.78,7.19-.65,3.2-1.7,7.81-3.46,13.56l5.05-5.23a12.07,12.07,0,0,0,2.63.95A11.72,11.72,0,0,0,992,327.51Z"/><text class="cls-46" transform="translate(993 321.79)">mau yang spesial?</text><rect class="cls-38" x="1231.14" y="102.29" width="250.71" height="536.14"/><text class="cls-48" transform="translate(1246.57 144.71)">pada contoh tersebut<tspan x="0" y="20.52">penjual nasi goreng</tspan><tspan x="0" y="41.03">tidak akan bertanya </tspan><tspan x="0" y="61.55">lebih lanjut jika</tspan><tspan x="0" y="82.06">pembeli tidak membeli </tspan><tspan x="0" y="102.58">nasi goreng</tspan></text><text class="cls-48" transform="translate(1236 460.43)">if (pesan nasi goreng){<tspan x="0" y="20.52" xml:space="preserve">  If(pedes){</tspan><tspan x="0" y="41.03" xml:space="preserve">      nasgor = nasgor+pedes</tspan><tspan x="0" y="61.55" xml:space="preserve">  }</tspan><tspan x="0" y="82.06" xml:space="preserve">  if(spesial){</tspan><tspan x="0" y="102.58" xml:space="preserve">   nasgor= nasgor+spesial}</tspan><tspan x="0" y="123.09">}else{</tspan><tspan x="0" y="143.61" xml:space="preserve">   tidak beli nasgor</tspan><tspan x="0" y="164.12">}</tspan></text><rect class="cls-8" x="26.43" y="645.5" width="412.71" height="509.14"/><text class="cls-48" transform="translate(43.14 676)">contoh kasus lain</text><text class="cls-49" transform="translate(38.5 716.86)">Ketika kamu ingin membeli Boba, kamu <tspan x="0" y="34">akan mendapatkan potongan harga </tspan><tspan x="0" y="68">sebesar 5% dari total pembelian,</tspan><tspan x="0" y="102">saat total pembelian kamu melewati </tspan><tspan x="0" y="136">Rp. 50.000. Diskon akan dinaikan </tspan><tspan x="0" y="170">menjadi 10%, apabila kamu sudah </tspan><tspan x="0" y="204">mendaftar sebagai member Boba. </tspan><tspan x="0" y="238">Buatlah notasi program, flowchart </tspan><tspan x="0" y="272">dan implementasi dalam bahasa pasCal </tspan><tspan x="0" y="306">pada contoh kasus ini! </tspan><tspan x="0" y="340">(diketahui total belanja kamu </tspan><tspan x="0" y="374">sebesar 40.000 dan </tspan><tspan x="0" y="408">kamu adalah member).</tspan></text><rect class="cls-2" x="445.57" y="647.43" width="295.07" height="415.37"/><rect class="cls-8" x="749.64" y="647.43" width="289.29" height="511.07"/><g class="cls-50"><text class="cls-51" transform="translate(467 678.01)">if</text></g><g class="cls-50"><text class="cls-52" transform="translate(491.49 678.01)">(belanja&gt;= 50.000){</text></g><g class="cls-50"><text class="cls-53" transform="translate(723.59 678.03)"> </text></g><g class="cls-50"><text class="cls-51" transform="translate(467 721.43)"><tspan xml:space="preserve">  </tspan></text></g><g class="cls-50"><text class="cls-51" transform="translate(491.49 721.43)">if</text></g><g class="cls-50"><text class="cls-52" transform="translate(515.99 721.43)">(member){</text></g><g class="cls-50"><text class="cls-53" transform="translate(625.85 721.43)"> </text></g><g class="cls-50"><text class="cls-52" transform="translate(467 765.09)"><tspan xml:space="preserve">    </tspan></text></g><g class="cls-50"><text class="cls-52" transform="translate(515.99 765.09)">diskon 10%</text></g><g class="cls-50"><text class="cls-53" transform="translate(638.22 765.09)"> </text></g><g class="cls-50"><text class="cls-52" transform="translate(467 808.49)"><tspan xml:space="preserve">  </tspan></text></g><g class="cls-50"><text class="cls-52" transform="translate(491.49 808.49)">}</text></g><g class="cls-50"><text class="cls-51" transform="translate(503.87 808.49)">else</text></g><g class="cls-50"><text class="cls-52" transform="translate(552.61 808.49)">{</text></g><g class="cls-50"><text class="cls-53" transform="translate(564.73 808.49)"> </text></g><g class="cls-50"><text class="cls-52" transform="translate(467 851.91)"><tspan xml:space="preserve">    </tspan></text></g><g class="cls-50"><text class="cls-52" transform="translate(515.99 851.91)">diskon 5%</text></g><g class="cls-50"><text class="cls-52" transform="translate(625.85 851.91)"> </text></g><g class="cls-50"><text class="cls-52" transform="translate(686.48 851.91)"> </text></g><g class="cls-50"><text class="cls-53" transform="translate(759.24 851.91)"> </text></g><g class="cls-50"><text class="cls-52" transform="translate(467 895.32)"><tspan xml:space="preserve">  </tspan></text></g><g class="cls-50"><text class="cls-52" transform="translate(491.49 895.32)">}</text></g><g class="cls-50"><text class="cls-53" transform="translate(503.63 895.33)"> </text></g><g class="cls-50"><text class="cls-52" transform="translate(467 938.97)">}</text></g><g class="cls-50"><text class="cls-51" transform="translate(479.36 938.97)">else</text></g><g class="cls-50"><text class="cls-52" transform="translate(528.1 938.97)">{</text></g><g class="cls-50"><text class="cls-53" transform="translate(540.24 938.99)"> </text></g><g class="cls-50"><text class="cls-52" transform="translate(467 982.39)"> </text></g><g class="cls-50"><text class="cls-52" transform="translate(468.21 982.39)"><tspan xml:space="preserve">  </tspan></text></g><g class="cls-50"><text class="cls-52" transform="translate(492.7 982.39)">diskon 0%</text></g><g class="cls-50"><text class="cls-53" transform="translate(602.58 982.39)"> </text></g><g class="cls-50"><text class="cls-52" transform="translate(467 1025.8)">}</text></g><g class="cls-50"><text class="cls-53" transform="translate(479.12 1025.8)"> </text></g><text class="cls-54" transform="translate(793.14 887.21)">YA</text><text class="cls-54" transform="translate(781.57 976.89)">YA</text><path class="cls-55" d="M773.56,743.42c2.16-5.27,4.37-10.53,6.46-15.82s4.14-10.3,5.85-15.54c.79-2.43,2.21-2.93,4.83-2.89,7.23.14,14.46.05,22.16.05l-1.67-3.79H813V693.2c-4.8,0-9.45.23-14.05,0-10.45-.62-18.51-8.24-18.52-17.22,0-9.15,8-16.91,18.67-17.33,9.71-.38,19.47-.36,29.18,0,10.32.4,18.41,8.4,18.29,17.37s-8.07,16.56-18.24,17.15c-4.7.28-9.44.05-14.33.05v12.12h1.88l-1.79,3.88h39.16c-.59,1.67-1,2.9-1.47,4.12-3.54,9.27-7.25,18.5-10.55,27.83-.93,2.63-2.32,3.26-5.24,3.19-7.23-.18-14.48-.06-21.66-.06-1.13,4.28-.71,6.09,1.46,6.5l-1.72,3.63H853.1c-.33,1.1-.51,1.88-.79,2.63-3.79,10-7.66,20-11.35,30-.73,2-1.84,2.56-4.15,2.52-7.55-.12-15.1,0-22.82,0v11.9h1.93l-2,3.87c.57.55,1.17,1.19,1.84,1.77,11.77,10.26,23.52,20.55,35.39,30.73a7.54,7.54,0,0,0,4.4,1.68c13.73.13,27.47.1,41.21,0,1,0,3.51,1.24,2.17-1.81l4.68,1.63V822.46h79.18v17h25.58v220.92H857.72v2l-4.54-1.5v16.78H813.81v8.07c0,4.52,0,9,.06,13.57,0,.69.75,1.36,1.91,1.91l-1.83,3.85c4.92,0,9.34-.21,13.73.05,9.39.55,17.27,6.65,18.57,14.1,1.52,8.71-3.58,16.45-12.93,19.63-.68.23-1.32.54-2,.82h-35.7c-.76-.31-1.5-.65-2.27-.93-8.35-3-13.47-9.84-12.83-17.24.69-8,6.58-14.4,15.53-16,4.17-.75,8.6-.44,12.91-.59,1.21,0,2.42,0,4,0-.76-1.66-1.26-2.74-1.76-3.82h1c.31-.48.87-.95.88-1.44.09-2.92,0-5.84,0-8.76v-13.11c-10,0-19.65,0-29.26,0-3.45,0-6.9-.18-10.35-.28V1043c1.29-.09,2.57-.27,3.85-.27q15.86,0,31.72,0h3.8l-1.81-3.9h1.8v-20.41c-9.84,0-19.44,0-29,0-3.44,0-6.88-.18-10.32-.27V983.67c1.29-.1,2.57-.27,3.85-.28q15.89,0,31.76,0h3.76l-1.81-3.92h2a38.47,38.47,0,0,1,0-5.16c.39-2.76-.78-4.69-3.05-6.63-9.13-7.74-18-15.67-27.09-23.5-3.11-2.71-6.33-5.33-9.51-8v-.56l38.75-34.76.75.52-2-3.9h2.11c0-6.89-.08-13.66,0-20.42a5.47,5.47,0,0,0-2.16-4.68c-10.83-9.32-21.55-18.74-32.33-28.11-1.66-1.44-3.43-2.79-5.16-4.19v-.56c.66-.47,1.36-.89,2-1.4l37.65-32.64-2-4c2.22-.24,2.93-6.49,1.58-12-9.56,0-19.18,0-28.79,0-3.45,0-6.9-.18-10.35-.27v-.57a17,17,0,0,0,1.25-2.18c3.52-9.16,6.92-18.35,10.53-27.48,2.16-5.46.36-4.45,7.21-4.52,6.66-.07,13.33,0,20.41,0l-1.84-3.86,1.81-.12v-6.19c-9.83,0-19.44,0-29,0-3.44,0-6.88-.18-10.33-.27Zm234.13,316.49V936.35H982.8V953.2H903.66V936.38L899.28,938l-.15-1.78c-14.83,0-29.43,0-44,.05a5.77,5.77,0,0,0-3.36,1.18q-18.33,15.81-36.49,31.77a3.94,3.94,0,0,0-1.36,2.36c-.17,2.61-.06,5.24-.06,8h2L814,983.43h38.86v35H814v20.52h1.79l-1.69,3.85h39v16.86l4.53-1.53v1.79Zm.1-219.68H982.87v16.91H903.61V840.31L898.83,842c1.57-2.81-.76-1.85-1.74-1.85-14,0-27.9-.07-41.85,0a6.22,6.22,0,0,0-3.64,1.28Q833.39,857.11,815.36,873a4.17,4.17,0,0,0-1.48,2.61c-.12,6.87-.1,13.75,0,20.62,0,.59,1,1.18,1.71,2l-1.79,3.29q19.22,16.68,38.4,33.29a3.82,3.82,0,0,0,2.27.76c14.9,0,29.8,0,44.79,0v-1.79l4.52,1.63V918.55H983v16.91h24.77ZM813.56,807.14l-37.38,32.55c12.44,10.85,25,21.81,37.21,32.42l37.38-32.56Zm-.17,161.2L850.52,936l-37.36-32.53L776,935.8ZM981.45,823.67H905.3V856h76.15ZM905.2,952h76.15V919.72H905.2Zm-53.58,32.75H775.47v32.31h76.15Zm-.17,59.37H775.51v32.27h75.94Zm-76-301h55.8c7.74,0,7.75,0,10.23-6.46,3.3-8.64,6.58-17.28,10-26.33h-55.8c-7.74,0-7.76,0-10.23,6.47C782.19,725.45,778.91,734.09,775.46,743.14Zm.12,44.94a11.28,11.28,0,0,0,1.54.25c19.91,0,39.82,0,59.73.06,2,0,2.51-.9,3-2.27,2.19-5.9,4.49-11.77,6.74-17.65,1.59-4.17,3.17-8.34,4.79-12.61a11.46,11.46,0,0,0-1.55-.26c-19.9,0-39.81,0-59.72-.05-2,0-2.51.89-3,2.26-2.19,5.9-4.49,11.77-6.74,17.66C778.78,779.63,777.2,783.81,775.58,788.08Z"/><path class="cls-56" d="M1007.69,1059.91h-150v-1.79l-4.53,1.53v-16.86h-39l1.69-3.85H814v-20.52h38.87v-35H814l1.86-3.93h-2c0-2.72-.11-5.35.06-8a3.94,3.94,0,0,1,1.36-2.36q18.18-15.95,36.49-31.77a5.77,5.77,0,0,1,3.36-1.18c14.61-.07,29.21-.05,44-.05l.15,1.78,4.38-1.58V953.2H982.8V936.35h24.89Z"/><path class="cls-56" d="M1007.79,840.23v95.23H983V918.55H903.78v16.91l-4.52-1.63v1.79c-15,0-29.89,0-44.79,0a3.82,3.82,0,0,1-2.27-.76Q833,918.23,813.8,901.53l1.79-3.29c-.75-.86-1.7-1.45-1.71-2-.1-6.87-.12-13.75,0-20.62a4.17,4.17,0,0,1,1.48-2.61q18-15.84,36.24-31.55a6.22,6.22,0,0,1,3.64-1.28c14-.09,27.9-.07,41.85,0,1,0,3.31-1,1.74,1.85l4.78-1.66v16.83h79.26V840.23Z"/><path class="cls-55" d="M813.56,807.14l37.21,32.41-37.38,32.56c-12.18-10.61-24.77-21.57-37.21-32.42Z"/><path class="cls-55" d="M813.39,968.34,776,935.8l37.13-32.33L850.52,936Z"/><path class="cls-55" d="M981.45,823.67V856H905.3V823.67Z"/><path class="cls-55" d="M905.2,952V919.72h76.15V952Z"/><path class="cls-55" d="M851.62,984.78v32.31H775.47V984.78Z"/><path class="cls-55" d="M851.45,1044.15v32.27H775.51v-32.27Z"/><path class="cls-55" d="M775.46,743.14c3.45-9,6.73-17.69,10-26.32,2.47-6.47,2.49-6.47,10.23-6.47h55.8c-3.45,9-6.73,17.69-10,26.33-2.48,6.46-2.49,6.46-10.23,6.46h-55.8Z"/><path class="cls-55" d="M775.58,788.08c1.62-4.27,3.2-8.45,4.79-12.61,2.25-5.89,4.55-11.76,6.74-17.66.51-1.37,1-2.27,3-2.26,19.91.06,39.82,0,59.72.05a11.46,11.46,0,0,1,1.55.26c-1.62,4.27-3.2,8.44-4.79,12.61-2.25,5.88-4.55,11.75-6.74,17.65-.51,1.37-1,2.28-3,2.27-19.91-.06-39.82,0-59.73-.06A11.28,11.28,0,0,1,775.58,788.08Z"/><text class="cls-57" transform="translate(795.36 680.81)">START</text><text class="cls-58" transform="translate(790.76 725.06)">total_belanja = <tspan x="0" y="8.54">40.000</tspan></text><text class="cls-58" transform="translate(791.37 769.37)">member = true<tspan x="0" y="8.54">diskon = 0</tspan></text><text class="cls-58" transform="translate(789.2 840.58)">total_belanja &gt;= <tspan x="0" y="8.54">50.000?</tspan></text><text class="cls-58" transform="translate(800.38 937.54)">member?</text><text class="cls-58" transform="translate(867.25 828.18)">TIDAK</text><text class="cls-58" transform="translate(870.91 927.58)">TIDAK</text><text class="cls-58" transform="translate(924.77 843.49)">diskon = 0;</text><text class="cls-58" transform="translate(923.32 939.47)">diskon = 0.05;</text><text class="cls-58" transform="translate(795.46 1003.5)">diskon = 0.1</text><text class="cls-58" transform="translate(778.46 1053.54)">total_belanja = <tspan x="0" y="8.54">total_belanja-</tspan><tspan x="0" y="17.07">(total_belanja*diskon)</tspan></text><text class="cls-59" transform="translate(799.39 1128.98)">END</text><polyline class="cls-60" points="1035.42 645.39 1035.42 686.94 1555.34 686.94 1555.34 645.39 1035.42 645.39"/><g class="cls-61"><text class="cls-62" transform="translate(1037.35 659.99)">program</text></g><g class="cls-61"><text class="cls-63" transform="translate(1099.12 659.99)"> </text></g><g class="cls-61"><text class="cls-63" transform="translate(1107.93 659.99)">belanja;</text></g><g class="cls-61"><text class="cls-63" transform="translate(1178.52 659.99)"> </text></g><polyline class="cls-60" points="1035.42 686.94 1035.42 728.49 1555.34 728.49 1555.34 686.94 1035.42 686.94"/><g class="cls-61"><text class="cls-62" transform="translate(1037.35 701.54)">var</text></g><g class="cls-61"><text class="cls-63" transform="translate(1063.82 701.54)"> </text></g><g class="cls-61"><text class="cls-63" transform="translate(1072.64 701.54)">total_belanja</text></g><g class="cls-61"><text class="cls-63" transform="translate(1187.35 701.54)"> </text></g><g class="cls-61"><text class="cls-63" transform="translate(1196.16 701.54)">:</text></g><g class="cls-61"><text class="cls-63" transform="translate(1204.99 701.54)"> </text></g><g class="cls-61"><text class="cls-62" transform="translate(1213.81 701.54)">double</text></g><g class="cls-61"><text class="cls-63" transform="translate(1266.75 701.54)"> </text></g><g class="cls-61"><text class="cls-63" transform="translate(1275.57 701.54)">=</text></g><g class="cls-61"><text class="cls-63" transform="translate(1284.39 701.54)"> </text></g><g class="cls-61"><text class="cls-64" transform="translate(1293.22 701.54)">60000</text></g><g class="cls-61"><text class="cls-63" transform="translate(1337.33 701.54)">;</text></g><g class="cls-61"><text class="cls-63" transform="translate(1346.16 701.54)"> </text></g><polyline class="cls-60" points="1035.42 728.49 1035.42 770.04 1555.34 770.04 1555.34 728.49 1035.42 728.49"/><g class="cls-61"><text class="cls-62" transform="translate(1037.35 743.09)">var</text></g><g class="cls-61"><text class="cls-63" transform="translate(1063.82 743.09)"> </text></g><g class="cls-61"><text class="cls-63" transform="translate(1072.64 743.09)">diskon:</text></g><g class="cls-61"><text class="cls-63" transform="translate(1134.41 743.09)"> </text></g><g class="cls-61"><text class="cls-62" transform="translate(1143.22 743.09)">double</text></g><g class="cls-61"><text class="cls-63" transform="translate(1196.16 743.09)"> </text></g><g class="cls-61"><text class="cls-63" transform="translate(1204.99 743.09)">=</text></g><g class="cls-61"><text class="cls-63" transform="translate(1213.81 743.09)"> </text></g><g class="cls-61"><text class="cls-64" transform="translate(1222.63 743.09)">0</text></g><g class="cls-61"><text class="cls-63" transform="translate(1231.46 743.09)">;</text></g><g class="cls-61"><text class="cls-63" transform="translate(1240.28 743.09)"> </text></g><polyline class="cls-60" points="1035.42 770.04 1035.42 811.59 1555.34 811.59 1555.34 770.04 1035.42 770.04"/><g class="cls-61"><text class="cls-62" transform="translate(1037.35 784.64)">var</text></g><g class="cls-61"><text class="cls-63" transform="translate(1063.82 784.64)"> </text></g><g class="cls-61"><text class="cls-63" transform="translate(1072.64 784.64)">member:</text></g><g class="cls-61"><text class="cls-63" transform="translate(1134.41 784.64)"> </text></g><g class="cls-61"><text class="cls-62" transform="translate(1143.22 784.64)">boolean</text></g><g class="cls-61"><text class="cls-63" transform="translate(1204.99 784.64)"> </text></g><g class="cls-61"><text class="cls-63" transform="translate(1213.81 784.64)">=</text></g><g class="cls-61"><text class="cls-63" transform="translate(1222.63 784.64)"> </text></g><g class="cls-61"><text class="cls-62" transform="translate(1231.46 784.64)">true</text></g><g class="cls-61"><text class="cls-63" transform="translate(1266.75 784.64)">;</text></g><g class="cls-61"><text class="cls-63" transform="translate(1275.57 784.64)"> </text></g><polyline class="cls-60" points="1035.42 811.59 1035.42 853.13 1555.34 853.13 1555.34 811.59 1035.42 811.59"/><g class="cls-61"><text class="cls-63" transform="translate(1037.35 826.18)"> </text></g><polyline class="cls-60" points="1035.42 853.13 1035.42 894.68 1555.34 894.68 1555.34 853.13 1035.42 853.13"/><g class="cls-61"><text class="cls-62" transform="translate(1037.35 867.74)">begin</text></g><g class="cls-61"><text class="cls-63" transform="translate(1081.47 867.74)"> </text></g><polyline class="cls-60" points="1035.42 894.68 1035.42 936.23 1555.34 936.23 1555.34 894.68 1035.42 894.68"/><g class="cls-61"><text class="cls-63" transform="translate(1037.35 909.29)"><tspan xml:space="preserve">    </tspan></text></g><g class="cls-61"><text class="cls-62" transform="translate(1072.64 909.29)">if</text></g><g class="cls-61"><text class="cls-63" transform="translate(1090.29 909.29)"> </text></g><g class="cls-61"><text class="cls-63" transform="translate(1099.12 909.29)">total_belanja</text></g><g class="cls-61"><text class="cls-63" transform="translate(1213.81 909.29)"> </text></g><g class="cls-61"><text class="cls-63" transform="translate(1222.63 909.29)">&gt;=</text></g><g class="cls-61"><text class="cls-63" transform="translate(1240.28 909.29)"> </text></g><g class="cls-61"><text class="cls-64" transform="translate(1249.11 909.29)">50000</text></g><g class="cls-61"><text class="cls-63" transform="translate(1293.22 909.29)"> </text></g><g class="cls-61"><text class="cls-62" transform="translate(1302.04 909.29)">then</text></g><g class="cls-61"><text class="cls-63" transform="translate(1337.33 909.29)"> </text></g><g class="cls-61"><text class="cls-62" transform="translate(1346.16 909.29)">begin</text></g><g class="cls-61"><text class="cls-63" transform="translate(1390.28 909.29)"> </text></g><polyline class="cls-60" points="1035.42 936.23 1035.42 977.78 1555.34 977.78 1555.34 936.23 1035.42 936.23"/><g class="cls-61"><text class="cls-63" transform="translate(1037.35 950.83)"><tspan xml:space="preserve">        </tspan></text></g><g class="cls-61"><text class="cls-62" transform="translate(1107.93 950.83)">if</text></g><g class="cls-61"><text class="cls-63" transform="translate(1125.58 950.83)"> </text></g><g class="cls-61"><text class="cls-63" transform="translate(1134.41 950.83)">member</text></g><g class="cls-61"><text class="cls-63" transform="translate(1187.35 950.83)"> </text></g><g class="cls-61"><text class="cls-62" transform="translate(1196.16 950.83)">then</text></g><g class="cls-61"><text class="cls-63" transform="translate(1231.46 950.83)"> </text></g><g class="cls-61"><text class="cls-62" transform="translate(1240.28 950.83)">begin</text></g><g class="cls-61"><text class="cls-63" transform="translate(1284.39 950.83)"> </text></g><polyline class="cls-60" points="1035.42 977.78 1035.42 1019.33 1555.34 1019.33 1555.34 977.78 1035.42 977.78"/><g class="cls-61"><text class="cls-63" transform="translate(1037.35 992.39)"><tspan xml:space="preserve">            </tspan></text></g><g class="cls-61"><text class="cls-63" transform="translate(1143.22 992.39)">diskon</text></g><g class="cls-61"><text class="cls-63" transform="translate(1196.16 992.39)"> </text></g><g class="cls-61"><text class="cls-63" transform="translate(1204.99 992.39)">:=</text></g><g class="cls-61"><text class="cls-63" transform="translate(1222.63 992.39)"> </text></g><g class="cls-61"><text class="cls-64" transform="translate(1231.46 992.39)">0.1</text></g><g class="cls-61"><text class="cls-63" transform="translate(1257.93 992.39)">;</text></g><g class="cls-61"><text class="cls-63" transform="translate(1266.75 992.39)"> </text></g><polyline class="cls-60" points="1035.42 1019.33 1035.42 1060.88 1555.34 1060.88 1555.34 1019.33 1035.42 1019.33"/><g class="cls-61"><text class="cls-63" transform="translate(1037.35 1033.94)"><tspan xml:space="preserve">        </tspan></text></g><g class="cls-61"><text class="cls-62" transform="translate(1107.93 1033.94)">end</text></g><g class="cls-61"><text class="cls-63" transform="translate(1134.41 1033.94)"> </text></g><g class="cls-61"><text class="cls-62" transform="translate(1143.22 1033.94)">else</text></g><g class="cls-61"><text class="cls-63" transform="translate(1178.52 1033.94)"> </text></g><g class="cls-61"><text class="cls-62" transform="translate(1187.35 1033.94)">begin</text></g><g class="cls-61"><text class="cls-63" transform="translate(1231.46 1033.94)"> </text></g><polyline class="cls-60" points="1035.42 1060.88 1035.42 1102.43 1555.34 1102.43 1555.34 1060.88 1035.42 1060.88"/><g class="cls-61"><text class="cls-63" transform="translate(1037.35 1075.48)"><tspan xml:space="preserve">            </tspan></text></g><g class="cls-61"><text class="cls-63" transform="translate(1143.22 1075.48)">diskon</text></g><g class="cls-61"><text class="cls-63" transform="translate(1196.16 1075.48)"> </text></g><g class="cls-61"><text class="cls-63" transform="translate(1204.99 1075.48)">:=</text></g><g class="cls-61"><text class="cls-63" transform="translate(1222.63 1075.48)"> </text></g><g class="cls-61"><text class="cls-64" transform="translate(1231.46 1075.48)">0.05</text></g><g class="cls-61"><text class="cls-63" transform="translate(1266.75 1075.48)">;</text></g><g class="cls-61"><text class="cls-63" transform="translate(1275.57 1075.48)"> </text></g><polyline class="cls-60" points="1035.42 1102.43 1035.42 1143.98 1555.34 1143.98 1555.34 1102.43 1035.42 1102.43"/><g class="cls-61"><text class="cls-63" transform="translate(1037.35 1117.04)"><tspan xml:space="preserve">        </tspan></text></g><g class="cls-61"><text class="cls-62" transform="translate(1107.93 1117.04)">end</text></g><g class="cls-61"><text class="cls-63" transform="translate(1134.41 1117.04)">;</text></g><g class="cls-61"><text class="cls-63" transform="translate(1143.22 1117.04)"> </text></g><polyline class="cls-60" points="1035.42 1143.98 1035.42 1185.53 1555.34 1185.53 1555.34 1143.98 1035.42 1143.98"/><g class="cls-61"><text class="cls-63" transform="translate(1037.35 1158.57)"><tspan xml:space="preserve">    </tspan></text></g><g class="cls-61"><text class="cls-62" transform="translate(1072.64 1158.57)">end</text></g><g class="cls-61"><text class="cls-63" transform="translate(1099.12 1158.57)"> </text></g><g class="cls-61"><text class="cls-62" transform="translate(1107.93 1158.57)">else</text></g><g class="cls-61"><text class="cls-63" transform="translate(1143.22 1158.57)"> </text></g><g class="cls-61"><text class="cls-62" transform="translate(1152.05 1158.57)">begin</text></g><g class="cls-61"><text class="cls-63" transform="translate(1196.16 1158.57)"> </text></g><polyline class="cls-60" points="1035.42 1185.53 1035.42 1227.08 1555.34 1227.08 1555.34 1185.53 1035.42 1185.53"/><g class="cls-61"><text class="cls-63" transform="translate(1037.35 1200.13)"><tspan xml:space="preserve">        </tspan></text></g><g class="cls-61"><text class="cls-63" transform="translate(1107.93 1200.13)">diskon</text></g><g class="cls-61"><text class="cls-63" transform="translate(1160.87 1200.13)"> </text></g><g class="cls-61"><text class="cls-63" transform="translate(1169.7 1200.13)">:=</text></g><g class="cls-61"><text class="cls-63" transform="translate(1187.35 1200.13)"> </text></g><g class="cls-61"><text class="cls-64" transform="translate(1196.16 1200.13)">0</text></g><g class="cls-61"><text class="cls-63" transform="translate(1204.99 1200.13)">;</text></g><g class="cls-61"><text class="cls-63" transform="translate(1213.81 1200.13)"> </text></g><polyline class="cls-60" points="1035.42 1227.08 1035.42 1268.63 1555.34 1268.63 1555.34 1227.08 1035.42 1227.08"/><g class="cls-61"><text class="cls-63" transform="translate(1037.35 1241.68)"><tspan xml:space="preserve">    </tspan></text></g><g class="cls-61"><text class="cls-62" transform="translate(1072.64 1241.68)">end</text></g><g class="cls-61"><text class="cls-63" transform="translate(1099.12 1241.68)">;</text></g><g class="cls-61"><text class="cls-63" transform="translate(1107.93 1241.68)"> </text></g><polyline class="cls-60" points="1035.42 1268.63 1035.42 1310.01 1555.34 1310.01 1555.34 1268.63 1035.42 1268.63"/><g class="cls-61"><text class="cls-63" transform="translate(1037.35 1283.23)"><tspan xml:space="preserve">    </tspan></text></g><g class="cls-61"><text class="cls-63" transform="translate(1072.64 1283.23)"> </text></g><polyline class="cls-60" points="1035.42 1310.01 1035.42 1351.56 1555.34 1351.56 1555.34 1310.01 1035.42 1310.01"/><g class="cls-61"><text class="cls-63" transform="translate(1037.35 1324.62)"><tspan xml:space="preserve">    </tspan></text></g><g class="cls-61"><text class="cls-63" transform="translate(1072.64 1324.62)">writeln(total_belanja);</text></g><g class="cls-61"><text class="cls-63" transform="translate(1275.57 1324.62)"> </text></g><polyline class="cls-60" points="1035.42 1351.56 1035.42 1379.8 1555.34 1379.8 1555.34 1351.56 1035.42 1351.56"/><g class="cls-61"><text class="cls-63" transform="translate(1037.35 1366.17)"><tspan xml:space="preserve">    </tspan></text></g><g class="cls-61"><text class="cls-63" transform="translate(1072.64 1366.17)">total_belanja</text></g><g class="cls-61"><text class="cls-63" transform="translate(1187.35 1366.17)"> </text></g><g class="cls-61"><text class="cls-63" transform="translate(1196.16 1366.17)">:=</text></g><g class="cls-61"><text class="cls-63" transform="translate(1213.81 1366.17)"> </text></g><g class="cls-61"><text class="cls-63" transform="translate(1222.63 1366.17)">total_belanja</text></g><g class="cls-61"><text class="cls-63" transform="translate(1337.33 1366.17)"> </text></g><g class="cls-61"><text class="cls-63" transform="translate(1346.16 1366.17)">-</text></g><polyline class="cls-60" points="1035.42 1379.8 1035.42 1421.35 1555.34 1421.35 1555.34 1379.8 1035.42 1379.8"/><g class="cls-61"><text class="cls-63" transform="translate(1037.35 1394.4)"> </text></g><g class="cls-61"><text class="cls-63" transform="translate(1046.17 1394.4)">(total_belanja</text></g><g class="cls-61"><text class="cls-63" transform="translate(1169.7 1394.4)"> </text></g><g class="cls-61"><text class="cls-63" transform="translate(1178.52 1394.4)">*</text></g><g class="cls-61"><text class="cls-63" transform="translate(1187.35 1394.4)"> </text></g><g class="cls-61"><text class="cls-63" transform="translate(1196.16 1394.4)">diskon);</text></g><g class="cls-61"><text class="cls-63" transform="translate(1266.75 1394.4)"> </text></g><polyline class="cls-60" points="1035.42 1421.35 1035.42 1462.9 1555.34 1462.9 1555.34 1421.35 1035.42 1421.35"/><g class="cls-61"><text class="cls-63" transform="translate(1037.35 1435.95)"><tspan xml:space="preserve">    </tspan></text></g><g class="cls-61"><text class="cls-63" transform="translate(1072.64 1435.95)">writeln(</text></g><g class="cls-61"><text class="cls-65" transform="translate(1143.22 1435.95)">&apos;kamu</text></g><g class="cls-61"><text class="cls-65" transform="translate(1187.35 1435.95)"> </text></g><g class="cls-61"><text class="cls-65" transform="translate(1196.16 1435.95)">harus</text></g><g class="cls-61"><text class="cls-65" transform="translate(1240.28 1435.95)"> </text></g><g class="cls-61"><text class="cls-65" transform="translate(1249.11 1435.95)">membayar</text></g><g class="cls-61"><text class="cls-65" transform="translate(1319.7 1435.95)"> </text></g><g class="cls-61"><text class="cls-65" transform="translate(1328.51 1435.95)">&apos;</text></g><g class="cls-61"><text class="cls-63" transform="translate(1337.33 1435.95)">,</text></g><g class="cls-61"><text class="cls-63" transform="translate(1346.16 1435.95)"> </text></g><g class="cls-61"><text class="cls-63" transform="translate(1354.99 1435.95)">total_belanja);</text></g><g class="cls-61"><text class="cls-63" transform="translate(1487.33 1435.95)"> </text></g><polyline class="cls-60" points="1035.42 1462.9 1035.42 1491.13 1555.34 1491.13 1555.34 1462.9 1035.42 1462.9"/><g class="cls-61"><text class="cls-62" transform="translate(1037.35 1477.51)">end</text></g><g class="cls-61"><text class="cls-63" transform="translate(1063.82 1477.51)">.</text></g><g class="cls-61"><text class="cls-63" transform="translate(1072.64 1477.51)"> </text></g><rect class="cls-66" x="26.43" y="1170.07" width="991.29" height="311.07"/><text class="cls-67" transform="translate(54.29 1202.86)">if (sudah mengerti){<tspan x="0" y="34" xml:space="preserve">	if (sudah paham){</tspan><tspan x="0" y="68" xml:space="preserve">		bantu teman;</tspan><tspan x="0" y="102" xml:space="preserve">	}else{</tspan><tspan x="0" y="136" xml:space="preserve">		pahami lagi!</tspan><tspan x="0" y="170" xml:space="preserve">	}</tspan><tspan x="0" y="204">}else{</tspan><tspan x="0" y="238" xml:space="preserve">	nanya yah!</tspan><tspan x="0" y="272">}</tspan></text><path class="cls-34" d="M500.26,1220.21c-35.73,14-54,29.31-66.31,44.36-26,31.71-45.29,85.92-25.66,121.5,9,16.26,27.14,30.59,173.24,44.36,131.61,12.4,199,8.52,233.13,5.78,96-7.69,144.39-12.24,162.55-46.28,23.21-43.5-13.87-108.28-17.11-113.79a161,161,0,0,0-49.19-52.07c-47.12-31.26-83.41-18-203.19-17.36C595.45,1207.28,562.17,1195.92,500.26,1220.21Z"/><text class="cls-68" transform="translate(444.93 1316.64)">kalau kamu masih bingung,<tspan x="0" y="34">jangan malu untuk bertanya</tspan></text></g></g></svg>