<svg xmlns="http://www.w3.org/2000/svg" xmlns:xlink="http://www.w3.org/1999/xlink" viewBox="0 0 280.49 485.12"><defs><style>.cls-1{fill:none;}.cls-2{isolation:isolate;}.cls-3,.cls-9{fill:#090909;}.cls-4,.cls-6{fill:#1c1e22;}.cls-5{fill:#1a1c1f;}.cls-13,.cls-6,.cls-9{opacity:0.2;}.cls-11,.cls-13,.cls-6,.cls-9{mix-blend-mode:multiply;}.cls-7{fill:#24150f;}.cls-8{fill:#e0b29d;}.cls-10,.cls-11,.cls-13{fill:#e9c2b0;}.cls-11{opacity:0.3;}.cls-12{fill:#664133;}.cls-14{fill:#252b33;}.cls-15{clip-path:url(#clip-path);}.cls-16{fill:#fff;}.cls-17{fill:#bfbfbf;}.cls-18{fill:#919191;}.cls-19{clip-path:url(#clip-path-2);}.cls-20{fill:#fefefe;}.cls-21{clip-path:url(#clip-path-3);}.cls-22{clip-path:url(#clip-path-4);}.cls-23{clip-path:url(#clip-path-5);}.cls-24{fill:#8daef0;opacity:0.6;mix-blend-mode:screen;}.cls-25{fill:#d9edff;}.cls-26{fill:#e8e9eb;}</style><clipPath id="clip-path" transform="translate(-115.75 -13.44)"><path id="SVGID" class="cls-1" d="M192.26,413.57,183,398.08A30.21,30.21,0,0,0,194,387.54c2.16-3.81,2.66-7.61,1-10.49l9.22,15.5c1.67,2.88,1.17,6.68-1,10.48A30.13,30.13,0,0,1,192.26,413.57Z"/></clipPath><clipPath id="clip-path-2" transform="translate(-115.75 -13.44)"><path id="SVGID-2" data-name="SVGID" class="cls-1" d="M168.21,413.69,159,398.2c3.35,5.75,14.13,5.7,24-.12l9.22,15.49C182.34,419.39,171.56,419.45,168.21,413.69Z"/></clipPath><clipPath id="clip-path-3" transform="translate(-115.75 -13.44)"><path id="SVGID-3" data-name="SVGID" class="cls-1" d="M166.68,414.58l-9.21-15.49c-1.75-3-1.39-7.07,1.05-11.37l9.22,15.5C165.3,407.52,164.94,411.55,166.68,414.58Z"/></clipPath><clipPath id="clip-path-4" transform="translate(-115.75 -13.44)"><path id="SVGID-4" data-name="SVGID" class="cls-1" d="M179.61,391.78l-9.22-15.5c10.75-6.32,22.45-6.38,26.08-.13l9.22,15.5C202.06,385.4,190.36,385.46,179.61,391.78Z"/></clipPath><clipPath id="clip-path-5" transform="translate(-115.75 -13.44)"><path id="SVGID-5" data-name="SVGID" class="cls-1" d="M167.74,403.22l-9.22-15.5a32.78,32.78,0,0,1,11.87-11.44l9.22,15.5A32.7,32.7,0,0,0,167.74,403.22Z"/></clipPath></defs><title>misi</title><g class="cls-2"><g id="Layer_1" data-name="Layer 1"><path class="cls-3" d="M171.09,315.32a34.4,34.4,0,0,1-23.79-2.71c-7.81-3.87-16.63-19.83-17.23-28.57,21.54-49.61,68.41-112.33,68.41-112.33,6.74-11.56,18.81-15.52,30.38-8.77h2.91a24.41,24.41,0,0,1,8.76,33.29s-36.46,70.17-64.91,105.09C174.36,301.93,172.59,314.92,171.09,315.32Z" transform="translate(-115.75 -13.44)"/><path class="cls-4" d="M180.13,481.87s174.33,29.54,175.59,10q.24-3.54.39-6.95.19-3.9.28-7.6c.81-29.07-1.92-51.64-4.27-78.42-.62-7-1.2-14.34-1.71-22.15-.07-1.22-.15-2.44-.22-3.67-.24-4.08-.46-8.31-.62-12.69A215,215,0,0,1,355,301.2c1.13-4.95,2.36-9.67,3.61-14.32.13-.45.25-.89.35-1.33,1.19-4.39,2.4-8.7,3.55-13,.57-2.13,1.12-4.28,1.64-6.42.3-1.18.59-2.37.87-3.56,1.33-5.68,2.49-11.53,3.35-17.72,1.71-12.35,2.81-22.47,2.61-31.05-.23-9.05-1.89-16.4-5.78-23-1.25-2.1-4.86-4.2-9.77-6.49-.71-.34-1.46-.67-2.22-1-6.92-3.09-20.72-9.39-31.7-13.92-1.69-.7-3.27-1.34-4.78-1.93-2.9-1.15-5.43-2.07-7.36-2.66-.21-.07-.43-.14-.63-.19l-.77-.23c-.55-.14-1.33-.36-2.26-.63-2.46-.68-6.06-1.67-9.81-2.68l-3.21-.86c-5.3-1.39-10.31-2.65-12.25-2.94-2.87-.42-5.66-1-8.42-1.52a162.61,162.61,0,0,0-16.93-3H255l-.86-.06-1.88-.12h-.1c-1.48-.06-2.94-.06-4.44,0a2,2,0,0,1-.27,0h-.24c-.79,0-1.56.13-2.35.24v0c-1.75.16-4.62.41-8,.87-1.24.16-2.56.35-3.92.57h0c-9.1,1.54-20.35,4.61-26.12,11-8.08,9-11.5,25.36-13,41.28h0c-.52,5.73-.79,11.4-.92,16.63-.24,9.1-.07,16.9-.18,21.4,0,.39,0,.74,0,1.07,0,1.42-.08,2.93-.08,4.54,0,7.67.46,17.42,1,28.57.59,11.66,1.27,24.86,1.52,38.81.32,17.39,2.17,35.92.39,54.11-.08.9-.17,1.81-.28,2.69,0,.14,0,.27,0,.4-.52,4.24-1.55,11.8-2.88,21C187.83,427.68,180.13,479.29,180.13,481.87Z" transform="translate(-115.75 -13.44)"/><path class="cls-5" d="M180.13,481.87s174.33,29.54,175.59,10q.24-3.54.39-6.95a12.12,12.12,0,0,0-3.86.4c-15.06,3.13-30.6,2.82-46,2.43q-26.1-.66-52.18-1.58c-15.49-.54-31.23-1.2-45.93-6.14-5.19-1.75-10.49-4.25-13.44-8.85s-2.44-11.77,2.33-14.46c3.86-2.2,8.74-.75,12.68,1.28s7.8,4.7,12.22,4.91,9.41-3.5,8.39-7.82-6.65-5.45-11.14-5.66-9.38-.46-13.71-2.12-8.3-5-9.45-9.54,1.34-10,5.86-11.06c6.84-1.66,11.85,6.29,18.3,9.1a4.5,4.5,0,0,0,2.3.48c2.5-.28,3.29-3.58,2.95-6.07a18.83,18.83,0,0,0-6.53-11.76L200.1,376.31a5.66,5.66,0,0,0-4.83-1.86c0,.14,0,.27,0,.4-.52,4.24-1.55,11.8-2.88,21C187.83,427.68,180.13,479.29,180.13,481.87Z" transform="translate(-115.75 -13.44)"/><path class="cls-6" d="M216.7,410.32c3.73,1,7.65-.2,11.33-1.39q15.75-5.15,31.53-10.26,19.23-6.27,38.48-12.51c7.42-2.42,14.88-4.84,22.62-5.92,8.22-1.15,16.62-.74,24.78-2.3,1.69-.32,3.34-.71,5-1.17-.07-1.22-.15-2.44-.22-3.67-.24-4.08-.46-8.31-.62-12.69A215,215,0,0,1,355,301.2c1.13-4.95,2.36-9.67,3.61-14.32.13-.45.25-.89.35-1.33,1.19-4.39,2.4-8.7,3.55-13,.57-2.13,1.12-4.28,1.64-6.42.3-1.18.59-2.37.87-3.56,1.33-5.68,2.49-11.53,3.35-17.72,1.71-12.35,2.81-22.47,2.61-31.05-.23-9.05-1.89-16.4-5.78-23-1.25-2.1-4.86-4.2-9.77-6.49A26.41,26.41,0,0,0,344.62,192c-13.92,16.09-18.14,38.54-17.61,59.79s5.28,42.18,7,63.37c1.15,14.34.49,30-8.59,41.19a50,50,0,0,1-11.53,9.86,106.54,106.54,0,0,1-40.9,16c-9.41,1.56-19.35,2-27.63,6.67-4.77,2.73-8.73,6.74-13.62,9.26s-11.47,3.1-15.39-.75c-1.32-1.3-2.76-3.2-4.53-2.64a3.36,3.36,0,0,0-1.88,2.17C207.88,402.22,211.26,408.87,216.7,410.32Z" transform="translate(-115.75 -13.44)"/><path class="cls-7" d="M192.88,223.26a146,146,0,0,0,10.68-10.92c5.85-6.65,11.12-13.91,15.79-20.32,9.48-13.07,19-26.3,28.37-39.41-.95.06-1.91.14-2.86.28h0c-2.4.22-6.83.59-12,1.43h0c-7.46,10.41-15,20.85-22.51,31.2-4.51,6.2-9.62,13.25-15.13,19.52-.47.52-.94,1.06-1.44,1.59h0C193.29,212.36,193,218,192.88,223.26Z" transform="translate(-115.75 -13.44)"/><path class="cls-7" d="M309.36,164.79c.07.4.15.82.22,1.22,4.45,24.25,9.15,42.56,15.21,59.38,7.61,21.15,17.52,39.5,29.43,54.53,1.28,1.61,2.87,3.56,4.73,5.62,1.19-4.39,2.39-8.69,3.54-13-11-14-20.16-31.11-27.29-50.89-5.39-15-9.68-31.26-13.72-52.27-1.67-.69-3.27-1.33-4.77-1.92C313.81,166.3,311.28,165.37,309.36,164.79Z" transform="translate(-115.75 -13.44)"/><path class="cls-8" d="M252.9,142.17s.53,4.85,1.24,10.55c.26,2,.53,4,.81,6.05,0,.28.06.55.1.81.32,2.36.66,4.59,1,6.41.08.47.16.92.24,1.33s.15.8.23,1.13a5.83,5.83,0,0,0,.17.66,8,8,0,0,0,.83,1.68c4.22,6.51,19.22,11.13,30.53,7.39,8.4-2.77,17.46-7.45,17.63-12.92,0-.47,0-1,0-1.52.05-3.78-.07-9.2-.23-13.94,0-.14,0-.28,0-.42v0c-.16-5.28-.37-9.59-.37-9.59l-9.39.43-29.12,1.34Z" transform="translate(-115.75 -13.44)"/><path class="cls-4" d="M254.83,157.93c.08.56.15,1.11.23,1.65.32,2.36.65,4.6,1,6.41.17,1,.33,1.79.48,2.47,1.66,7.66,18.28,23.19,30.9,19,8.39-2.77,19.65-5.88,21.46-11,1.11-3.11-2.61-21.17-3.31-26.84-6.09,15-24.86,19-39.34,15.38a38.18,38.18,0,0,1-4.43-1.41,17.69,17.69,0,0,1-5.65-4.11C255.67,159,255.24,158.46,254.83,157.93Z" transform="translate(-115.75 -13.44)"/><path class="cls-6" d="M236.82,153.74c.07.67.13,1.34.19,2a6.74,6.74,0,0,0,.61,2.59,6.22,6.22,0,0,0,1.53,1.67,53,53,0,0,0,16.76,10.27c.47.16.92.32,1.4.47l.19,0a29.35,29.35,0,0,0,17.81.06,38.82,38.82,0,0,0,10.71-5.7c2-1.39,4.27-3.1,6.65-5a165.71,165.71,0,0,0,12.78-10.82v0c-.16-5.28-.37-9.59-.37-9.59l-9.39.43c-8.36,2.53-17.32,2.54-26,1.67q-1.55-.15-3.09-.33l-13.67.63s.53,4.85,1.24,10.55l-1.88-.12h-.1c-1.48-.06-2.94-.06-4.44,0a2,2,0,0,1-.27,0h-.24c-.79,0-1.56.13-2.35.24v0C243.11,153,240.24,153.28,236.82,153.74Z" transform="translate(-115.75 -13.44)"/><path class="cls-9" d="M247.46,152.64a14.35,14.35,0,0,0,10.81,9.79,13.64,13.64,0,0,0,3.24.31c2.13-.05,4.26-.56,6.36-.38a36.22,36.22,0,0,1-4-1.71,16.45,16.45,0,0,1-4.93-4.32,6.74,6.74,0,0,1-1,0,15.27,15.27,0,0,1-2-.07l-.89-3.51-2.74-.18-.09,0c-1.48-.05-2.95-.05-4.45,0A2.3,2.3,0,0,1,247.46,152.64Z" transform="translate(-115.75 -13.44)"/><path class="cls-10" d="M249.75,159.93c6.71,4.48,15.29,5.17,23.93,3.44a61.62,61.62,0,0,0,29.83-15.89c7.29-7.24,19.25-35.44,20.94-46.72.28-1.93.47-3.75.56-5.51,1.62-30.76-26.49-35.81-48.75-50.21-23.54-15.29-51-8.32-50.85,27.82S229.26,146.27,249.75,159.93Z" transform="translate(-115.75 -13.44)"/><path class="cls-11" d="M225.41,72.86c-.2-36.14,27.31-43.11,50.85-27.82,22.26,14.4,50.37,19.45,48.75,50.21-.09,1.76-.28,3.58-.56,5.51a64.37,64.37,0,0,1-2.37,9.25c-8.25-4.38-16.37-10.94-24.22-15.06-2.9-1.09-12,5.44-14.06-1.3-3.77-9.34.93-16.93-3.49-19.24-5.28-3.28-15.7,11.79-22.64,9.94C247,81.49,236.48,66.84,233,74c-6.2,23.64-4.4,85.58,34.86,88.4,9.35.69,17.14-4,25.39-6.9a60.7,60.7,0,0,1-19.58,7.91c-8.64,1.73-17.22,1-23.93-3.44C229.26,146.27,225.61,109,225.41,72.86Z" transform="translate(-115.75 -13.44)"/><path class="cls-12" d="M225.41,71.69c1.92-.16-.5-15.08,23.39,2.67,14.06,10.44,28.63-10,34.15-3.57,4.87,5.65,2.47,8.95,1.84,19.46-.32,5,14,14.84,16.46,13.86,4.33-1.73-3.2,5-.92,8.19,6.11,8.45,6,28.26,4.84,33.29a68.68,68.68,0,0,0,16.06-19.46c.63-1.14,1.22-2.29,1.82-3.45a53.46,53.46,0,0,0,7.24-11.48c4.17-9,8.11-18,9.86-28.11C348.33,35.94,312,32.71,312,32.71S282.22-1.58,245.87,21.32C215.37,40.51,222.05,72,225.41,71.69Z" transform="translate(-115.75 -13.44)"/><path class="cls-10" d="M296.28,119c4,3.76,12.23,1.5,18.32-5s7.76-14.87,3.73-18.63S306.1,93.83,300,100.37,292.25,115.24,296.28,119Z" transform="translate(-115.75 -13.44)"/><path class="cls-13" d="M304,112.06c2.07,1.54,5.78.07,8.28-3.29s2.85-7.33.77-8.87-5.77-.07-8.27,3.29S301.89,110.52,304,112.06Z" transform="translate(-115.75 -13.44)"/><path class="cls-14" d="M342.85,308.85c.33,3.57.66,7,.94,10.42.14,1.83.28,3.64.4,5.43,5.74,15.39,2.5,23.87,11.58,32.35,3,1,5.35.44,8.67.17a16.79,16.79,0,0,0,2.93-.53,24.72,24.72,0,0,0,3.6-1.34c5.39-2.49,10.67-7,12.83-11.41,16.87-34.37,19.64-134.73-11-153.13a15.25,15.25,0,0,0-1.42-.63,31.15,31.15,0,0,0-10.5-2.36c-8.16-.21-14.93,4.23-16.68,16.85C337.42,253.56,340.51,283.89,342.85,308.85Z" transform="translate(-115.75 -13.44)"/><g class="cls-2"><g class="cls-15"><g class="cls-2"><path class="cls-16" d="M192.26,413.57,183,398.08a31.41,31.41,0,0,0,10-9l9.21,15.5a31.34,31.34,0,0,1-10,9Z" transform="translate(-115.75 -13.44)"/><path class="cls-17" d="M202.23,404.55,193,389.05c.34-.5.66-1,.94-1.51,2.16-3.81,2.66-7.61,1-10.49l9.22,15.5c1.67,2.88,1.17,6.68-1,10.48-.29.51-.6,1-1,1.52Z" transform="translate(-115.75 -13.44)"/></g></g></g><path class="cls-18" d="M204.17,392.55l1.52-.9c1.82,3.13,1.27,7.24-1.07,11.38a32.61,32.61,0,0,1-11.85,11.42l-.51-.88A30.13,30.13,0,0,0,203.18,403C205.34,399.23,205.84,395.43,204.17,392.55Z" transform="translate(-115.75 -13.44)"/><g class="cls-2"><g class="cls-19"><g class="cls-2"><path class="cls-17" d="M168.21,413.69,159,398.2c1.54,2.63,4.63,4.05,8.48,4.25l9.22,15.5c-3.85-.2-6.95-1.62-8.48-4.26Z" transform="translate(-115.75 -13.44)"/><path class="cls-16" d="M176.69,418l-9.22-15.5c4.57.24,10.19-1.22,15.57-4.37l9.22,15.49c-5.38,3.16-11,4.62-15.57,4.38Z" transform="translate(-115.75 -13.44)"/></g></g></g><path class="cls-18" d="M166.68,414.58l1.53-.89c3.35,5.76,14.13,5.7,24-.12l.51.88C182,420.77,170.31,420.83,166.68,414.58Z" transform="translate(-115.75 -13.44)"/><path class="cls-10" d="M197.78,391.34a9.29,9.29,0,0,0-11.32-.55c-3.2,2.58-8.15,5.29-10.67,8.52-1.59,2-3.3,10.15-1.88,13,4.24,8.44,8.18,17,13.1,25.13,6,9.78,15.51,14.45,25,20.41a8.72,8.72,0,0,0,3.24,1.47,3.08,3.08,0,0,0,3.15-1.28c.85-1.5-.22-3.29-1.25-4.64,4.44.32,16.73,4.48,10.26-4.36-3.36-4.58-10.85-7.31-15.37-10.63a16.69,16.69,0,0,1-6.24-17.6c3.39,1.55,5.65,2.85,8,6,1.51,2,2.85,4.18,4.92,5.58s5.15,1.75,7,0C228.42,429.62,210,401.27,197.78,391.34Z" transform="translate(-115.75 -13.44)"/><path class="cls-3" d="M129.1,309.09C120.36,270.51,156.81,258.21,161,253c24,40.22,34.17,130,38.87,140.36a29,29,0,0,0-18.27,5.21c-4.09,3-6.6,8.66-7.34,14.31C174.29,412.83,135.59,337.74,129.1,309.09Z" transform="translate(-115.75 -13.44)"/><polygon class="cls-20" points="88.42 379.11 79.2 363.61 80.72 362.71 89.94 378.21 88.42 379.11"/><polygon class="cls-20" points="50.93 401.14 41.71 385.65 43.24 384.76 52.45 400.26 50.93 401.14"/><g class="cls-2"><g class="cls-21"><g class="cls-2"><path class="cls-17" d="M166.68,414.58l-9.21-15.49c-1.75-3-1.39-7.07,1.05-11.37l9.22,15.5c-2.44,4.3-2.8,8.33-1.06,11.36Z" transform="translate(-115.75 -13.44)"/></g></g></g><path class="cls-18" d="M179.61,391.78c10.75-6.32,22.45-6.38,26.08-.13l-1.52.9c-3.35-5.77-14.12-5.71-24,.12Z" transform="translate(-115.75 -13.44)"/><g class="cls-2"><g class="cls-22"><g class="cls-2"><path class="cls-16" d="M179.61,391.78l-9.22-15.5c5.83-3.42,11.93-5,16.88-4.75l9.22,15.5c-5-.26-11.05,1.32-16.88,4.75Z" transform="translate(-115.75 -13.44)"/><path class="cls-17" d="M196.49,387l-9.22-15.5c4.19.22,7.54,1.76,9.2,4.62l9.22,15.5c-1.66-2.87-5-4.4-9.2-4.62Z" transform="translate(-115.75 -13.44)"/></g></g></g><path class="cls-18" d="M167.74,403.22a32.7,32.7,0,0,1,11.87-11.44l.51.89a30,30,0,0,0-10.93,10.54c-2.25,4-2.6,7.69-1,10.48l-1.53.89C164.94,411.55,165.3,407.52,167.74,403.22Z" transform="translate(-115.75 -13.44)"/><g class="cls-2"><g class="cls-23"><g class="cls-2"><path class="cls-17" d="M167.74,403.22l-9.22-15.5c.31-.55.66-1.1,1-1.65l9.22,15.5c-.37.54-.72,1.09-1,1.65Z" transform="translate(-115.75 -13.44)"/><path class="cls-16" d="M168.77,401.57l-9.22-15.5a34.26,34.26,0,0,1,10.84-9.79l9.22,15.5a34,34,0,0,0-10.84,9.79Z" transform="translate(-115.75 -13.44)"/></g></g></g><polygon class="cls-24" points="68.09 376.19 232.59 230.37 0 114.78 57.63 360.4 68.09 376.19"/><path class="cls-10" d="M261,383.83c.2-2.06-3-7.05-3.67-9.33-.8-2.86-1.26-5.86-2.27-8.65-2.23-6.16-5.66-6.24-11.7-4.86-10.49,2.39-16.56-8.21-33.65-2.59-2.23.73-4.19,1.82-6.56,2.24s-7,0-5.24,3.28c3.8,7.14,9.87,1.37,17.9,2.72-18.51,9.09-47.82,12.19-43.29,20.55,2.24,4.14,22.6-4.89,27.56-4.8-1.17,2.77-1.48,4.88.37,7.94.58.95,2,.3,2.72,1.17,2.13,2.73-1.55,3.72,2,7,3,2.72,2.79.76,4.73,1.92,1.64,1,1.4,3.29,3.33,4.4,6.57,3.77,13.44-2.34,19.22-5.07A56.17,56.17,0,0,0,240,395.8c3.51-2.38,5.91-5.34,9.9-7.09C252.47,387.58,260.77,386.53,261,383.83Z" transform="translate(-115.75 -13.44)"/><path class="cls-14" d="M245,363.76c2.36,10.18,7.46,27.76,11,28.62,0,0,63-17.82,111.39-35.69,1.22-.44,2.41-.9,3.6-1.34,3.9-8.32,14.13-22.73,15.06-31.22s.5-16.86-5.66-23.51a52.84,52.84,0,0,0-7.5-6.24l-22.64,10.91c-2.4,1.17-4.87,2.36-7.38,3.56l-99.09,47.8C243.54,356.73,244,359.63,245,363.76Z" transform="translate(-115.75 -13.44)"/><path class="cls-6" d="M245,363.76q34.9-15.35,69-32.58c8-4,16-8.19,24.63-10.67,1.7-.49,3.44-.9,5.18-1.24,7.09-1.38,14.47-1.39,21.28.88-6.61-2.81-11.6-8.37-14.84-14.86a42.49,42.49,0,0,1-3-7.76c-2.62-9.58-2.3-19.68-2-29.6q.92-27.45,1.86-54.92c.2-5.72.44-11.64,3-16.77,2.1-4.26,6.19-7.81,10.74-8.42-8.16-.21-14.93,4.23-16.68,16.85-6.77,48.89-3.68,79.22-1.34,104.18l-99.09,47.8C243.54,356.73,244,359.63,245,363.76Z" transform="translate(-115.75 -13.44)"/><polygon class="cls-25" points="93.31 281.15 82.37 274.83 82.37 235.93 93.31 242.25 93.31 281.15"/><polygon class="cls-25" points="107.96 289.61 97.01 283.29 97.01 244.38 107.96 250.7 107.96 289.61"/><polygon class="cls-25" points="78.07 272.35 67.12 266.03 67.12 227.13 78.07 233.45 78.07 272.35"/><polygon class="cls-25" points="120.69 280.66 114.18 276.9 114.18 268.94 120.69 272.7 120.69 280.66"/><polygon class="cls-25" points="120.69 296.95 114.18 293.2 114.18 285.23 120.69 288.99 120.69 296.95"/><polygon class="cls-25" points="120.69 264.36 114.18 260.61 114.18 252.65 120.69 256.4 120.69 264.36"/><g class="cls-2"><rect class="cls-26" x="136.04" y="209.82" width="2.17" height="35.34"/><rect class="cls-26" x="63.09" y="167.7" width="2.17" height="35.34"/><path class="cls-26" d="M176.33,179c0-2.29,1.61-3.22,3.59-2.07a7.92,7.92,0,0,1,3.6,6.23c0,2.29-1.61,3.22-3.6,2.07A7.94,7.94,0,0,1,176.33,179Z" transform="translate(-115.75 -13.44)"/><rect class="cls-26" x="77.31" y="175.91" width="2.17" height="35.34"/><path class="cls-26" d="M190.55,187.24c0-2.29,1.61-3.22,3.6-2.07a7.94,7.94,0,0,1,3.59,6.23c0,2.29-1.61,3.22-3.59,2.07A7.92,7.92,0,0,1,190.55,187.24Z" transform="translate(-115.75 -13.44)"/><path class="cls-26" d="M155.7,167.13c0-2.3,1.61-3.23,3.6-2.08a8,8,0,0,1,3.6,6.23c0,2.29-1.61,3.22-3.6,2.08A8,8,0,0,1,155.7,167.13Z" transform="translate(-115.75 -13.44)"/><path class="cls-26" d="M249.28,256.52c0-2.29,1.62-3.22,3.6-2.07a7.92,7.92,0,0,1,3.6,6.23c0,2.29-1.61,3.22-3.6,2.07A8,8,0,0,1,249.28,256.52Z" transform="translate(-115.75 -13.44)"/><path class="cls-26" d="M236.41,249.09c0-2.29,1.61-3.22,3.59-2.08a8,8,0,0,1,3.6,6.23c0,2.3-1.61,3.23-3.6,2.08A8,8,0,0,1,236.41,249.09Z" transform="translate(-115.75 -13.44)"/><rect class="cls-26" x="249.98" y="226.83" width="2.17" height="23.28" transform="translate(-201.32 143.92) rotate(-29.98)"/><rect class="cls-26" x="256.29" y="229.74" width="2.17" height="17.2" transform="translate(-200.42 147.12) rotate(-29.99)"/><path class="cls-26" d="M169.41,212.25a4.2,4.2,0,0,0,2.13-.55c1.51-.87,2.33-2.6,2.33-4.87H171.7a2.66,2.66,0,0,1-4.45,2.57l-1.33-.77a12.43,12.43,0,0,1-5.53-9.59V171.9h-2.17V199a14.66,14.66,0,0,0,6.62,11.47l1.33.77A6.61,6.61,0,0,0,169.41,212.25Z" transform="translate(-115.75 -13.44)"/><rect class="cls-26" x="150.46" y="218.15" width="2.17" height="35.34"/><path class="cls-26" d="M263.89,229.58c0-2.29,1.61-3.22,3.6-2.07a7.94,7.94,0,0,1,3.59,6.23c0,2.29-1.61,3.22-3.59,2.07A7.92,7.92,0,0,1,263.89,229.58Z" transform="translate(-115.75 -13.44)"/><path class="cls-26" d="M275.25,273.63h2.16v-18.1a10,10,0,0,0-4.59-8l-.89-.51a3.54,3.54,0,0,0-5.68,3.28h2.17a1.88,1.88,0,0,1,.65-1.68,1.86,1.86,0,0,1,1.78.28l.88.51a7.89,7.89,0,0,1,3.52,6.08Z" transform="translate(-115.75 -13.44)"/><rect class="cls-26" x="96.29" y="186.88" width="2.17" height="35.34"/><path class="cls-26" d="M209.72,198.31c0-2.29,1.61-3.22,3.6-2.07a7.92,7.92,0,0,1,3.6,6.23c0,2.29-1.61,3.22-3.6,2.07A7.92,7.92,0,0,1,209.72,198.31Z" transform="translate(-115.75 -13.44)"/><path class="cls-26" d="M221.08,242.35h2.17V224.26a10,10,0,0,0-4.6-8l-.88-.51a3.53,3.53,0,0,0-5.68,3.28h2.17a1.88,1.88,0,0,1,.64-1.68,1.86,1.86,0,0,1,1.78.28l.89.51a7.89,7.89,0,0,1,3.51,6.08Z" transform="translate(-115.75 -13.44)"/><path class="cls-26" d="M203.11,232h2.17V213.89a1.88,1.88,0,0,1,.65-1.68,1.86,1.86,0,0,1,1.78.28l.88.51a7.87,7.87,0,0,1,3.51,6.08h2.17a10,10,0,0,0-4.59-8l-.89-.51a3.53,3.53,0,0,0-5.68,3.28Z" transform="translate(-115.75 -13.44)"/><path class="cls-26" d="M238.77,249.45h2.17v-31a14.66,14.66,0,0,0-6.63-11.47l-1.32-.76c-2-1.14-3.88-1.29-5.38-.42s-2.33,2.6-2.33,4.87h2.17a2.67,2.67,0,0,1,4.46-2.58l1.32.77a12.46,12.46,0,0,1,5.54,9.59Z" transform="translate(-115.75 -13.44)"/></g></g></g></svg>